<svg xmlns="http://www.w3.org/2000/svg" xmlns:xlink="http://www.w3.org/1999/xlink" width="36.081298828125" height="40" viewBox="0 0 36.081298828125 40" fill="none">
<path d="M36.0132 12.6616C36.0468 10.7809 35.038 9.00084 33.3905 8.09404L20.613 0.705289C18.999 -0.235096 16.9815 -0.235096 15.3675 0.705289L2.62357 8.09404C0.975942 9.03442 0.000813466 10.7809 0.000813466 12.628L0.000815069 27.372C-0.03281 29.2191 0.975942 30.9656 2.6572 31.906L15.4347 39.2947C17.0824 40.2351 19.0662 40.2351 20.6803 39.2947L33.4578 31.906C35.0717 30.9656 36.114 29.2191 36.0804 27.372L36.0132 12.6616ZM32.8189 27.372C32.8189 28.0772 32.4154 28.7825 31.8102 29.1184L19.0662 36.4735C18.4274 36.8094 17.654 36.8094 17.0487 36.4735L4.2712 29.0848C3.63232 28.7154 3.22882 28.0437 3.22882 27.3384L3.22882 12.628C3.22882 11.8892 3.63232 11.2175 4.2712 10.8816L17.0487 3.49286C17.6876 3.12343 18.461 3.15701 19.0662 3.49286L31.8438 10.8816C32.4827 11.251 32.8189 11.9228 32.8189 12.628L32.8189 27.372Z"   fill="#333333" >
</path>
<path d="M28.2121 12.4602L18.0237 18.304L7.80169 12.4602C7.02831 12.0236 6.05318 12.2922 5.61605 13.0311C5.17893 13.8036 5.44793 14.7775 6.18768 15.2142L16.3761 21.0915L16.3761 33.0143C16.3761 33.8875 17.1158 34.6264 17.9901 34.6264C18.8643 34.6264 19.6041 33.8875 19.6041 33.0143L19.6041 21.0915L29.7925 15.2142C30.5659 14.7775 30.8349 13.77 30.3641 13.0311C29.9942 12.2587 28.9855 11.99 28.2121 12.4602Z"   fill="#1A75FF" >
</path>
</svg>
