<svg xmlns="http://www.w3.org/2000/svg" xmlns:xlink="http://www.w3.org/1999/xlink" width="48.01849365234375" height="38.53227233886719" viewBox="0 0 48.01849365234375 38.53227233886719" fill="none">
<path d="M16.9562 38.3311C16.2387 38.1301 15.5611 37.7681 15.003 37.2452L14.9233 37.1648C14.3254 36.6822 13.847 36.0387 13.5281 35.355C13.2092 34.6713 13.0099 33.9473 12.9302 33.1832C12.8505 32.419 12.9302 31.6549 13.1295 30.9309C13.3288 30.1668 13.6876 29.4831 14.1659 28.8396L16.2387 26.3058C16.2786 26.2253 16.3583 26.1449 16.438 26.0645L16.5177 26.0243C16.717 25.8232 16.9961 25.7025 17.2751 25.6623C17.4744 25.6221 17.6338 25.6623 17.8331 25.7025C18.3912 25.8634 18.7898 26.346 18.8297 26.9493C18.8695 27.3917 18.7101 27.8341 18.3912 28.1156L16.438 30.6494C15.9597 31.2527 15.7205 32.057 15.8002 32.8212C15.8401 33.5854 16.1988 34.2691 16.7569 34.7919L16.8765 34.8723C17.4345 35.355 18.152 35.5561 18.8695 35.4756C19.6269 35.355 20.2647 34.993 20.743 34.3495L25.1278 28.6787C25.7257 27.9547 26.0047 27.0297 25.9649 26.1047C25.5663 25.2199 24.9285 24.4557 24.0914 23.9731L24.0117 23.8927C23.5732 23.5709 23.2942 23.0481 23.2942 22.485C23.2942 21.9622 23.5333 21.4796 23.9319 21.198C24.0914 21.0774 24.2907 20.9969 24.5299 20.9567C24.7292 20.9165 24.9285 20.9567 25.0879 20.9969C25.5264 21.1578 25.9649 21.4393 26.2838 21.7611C27.4398 22.6861 28.2768 23.9329 28.7153 25.3808C29.0741 27.2308 28.5957 29.1211 27.36 30.5287L22.9354 36.28C22.0186 37.4866 20.6234 38.2909 19.1486 38.492C18.9094 38.5322 18.6702 38.5322 18.4709 38.5322C17.9129 38.5322 17.4345 38.4518 16.9562 38.3311Z"   fill="#1A75FF" >
</path>
<path d="M22.2585 29.443C22.0991 29.4028 21.9397 29.3224 21.7802 29.2017C20.3851 28.0354 19.5081 26.3864 19.3487 24.5766C19.2689 23.0885 19.7473 21.6004 20.7039 20.4341L25.1286 14.6426C26.0454 13.436 27.4405 12.6316 28.9154 12.4305C30.3903 12.2294 31.8652 12.6718 33.0211 13.6371L33.061 13.6773L33.1407 13.7578C34.2967 14.7632 35.0142 16.1709 35.1338 17.6992C35.2534 19.2677 34.8149 20.796 33.8582 22.0026L33.8582 22.0428L31.7854 24.5363C31.7057 24.657 31.626 24.7777 31.5064 24.8581L31.4665 24.9385C31.1078 25.2201 30.6693 25.3407 30.2308 25.2201C29.6728 25.0592 29.2742 24.5766 29.2343 23.9733C29.1944 23.5711 29.3539 23.1287 29.6329 22.8069L31.626 20.233C32.1043 19.6297 32.3435 18.8253 32.2638 18.0612C32.2239 17.297 31.8652 16.6133 31.3071 16.0904L31.2274 16.01C30.6693 15.5274 29.9518 15.3263 29.2343 15.4067C28.4769 15.4871 27.7993 15.8893 27.3608 16.4926L22.8963 22.2841C22.4977 22.8069 22.3383 23.4907 22.418 24.1744C22.5376 25.1396 23.0159 26.0244 23.7733 26.6277L23.8131 26.6679C24.132 26.9897 24.3313 27.3919 24.3712 27.8343C24.3712 28.2365 24.2516 28.5984 23.9726 28.88C23.6936 29.2017 23.3348 29.443 22.8963 29.4832C22.8166 29.4832 22.7767 29.4832 22.697 29.4832C22.5376 29.4832 22.418 29.4832 22.2585 29.443Z"   fill="#1A75FF" >
</path>
<path d="M38.8027 10.0173C35.4543 1.77249 26.1267 -2.16893 17.9153 1.20943C13.969 2.85839 10.82 6.03564 9.2255 10.0173C2.76794 11.5858 -1.2182 18.1414 0.33639 24.6166C1.17348 28.0754 3.44558 30.9712 6.55478 32.5799C7.35201 32.9821 8.30868 32.6201 8.66744 31.8158C9.02619 31.0516 8.74716 30.1266 7.98979 29.7244C3.68475 27.4721 1.97071 22.1231 4.16309 17.7795C5.43866 15.2457 7.83035 13.4761 10.6206 13.0337L11.5773 12.8728L11.8962 11.9478C14.2082 5.19105 21.5028 1.61161 28.1995 3.94429C31.9067 5.23127 34.8564 8.20745 36.132 11.9478L36.4509 12.8728L37.4075 13.0337C42.1908 13.7978 45.4993 18.3425 44.7419 23.1688C44.3034 25.9841 42.5495 28.3972 40.0383 29.6842C39.281 30.1266 38.9621 31.0918 39.4006 31.8962C39.7992 32.6603 40.7159 32.9419 41.4733 32.5799C47.3728 29.5233 49.7246 22.2437 46.6951 16.2914C45.1007 13.1543 42.2306 10.8619 38.8027 10.0173Z"   fill="#333333" >
</path>
</svg>
