<svg xmlns="http://www.w3.org/2000/svg" xmlns:xlink="http://www.w3.org/1999/xlink" width="42.090576171875" height="38.20613479614258" viewBox="0 0 42.090576171875 38.20613479614258" fill="none">
<path d="M31.1705 34.9886L10.8811 34.9886C10.0041 34.9886 9.28662 35.7126 9.28662 36.5974C9.28662 37.4822 10.0041 38.1659 10.8811 38.2061L31.1705 38.2061C32.0475 38.2061 32.765 37.4822 32.765 36.5974C32.765 35.6724 32.0475 34.9886 31.1705 34.9886Z"   fill="#333333" >
</path>
<path d="M19.9299 22.2795C20.5677 22.8828 21.5243 22.8828 22.1621 22.2795L26.9056 17.4935C27.1847 17.212 27.3441 16.85 27.3441 16.4478C27.3441 16.0054 27.1847 15.6033 26.9056 15.3217C26.2678 14.7184 25.3112 14.7184 24.6734 15.3217L22.6006 17.4131L22.6006 2.61265C22.6006 1.72784 21.8831 1.00391 21.0061 1.00391C20.1292 1.00391 19.4117 1.72784 19.4117 2.61265L19.4117 2.61265L19.4117 17.2924L17.3389 15.2011C16.741 14.5978 15.7046 14.5978 15.1066 15.2011C14.5087 15.8044 14.5087 16.85 15.1066 17.4533L19.9299 22.2795Z"   fill="#1A75FF" >
</path>
<path d="M38.2654 0.0789089L31.0904 0.0789089C30.054 0.199565 29.3365 1.12459 29.456 2.17027C29.5756 3.01487 30.2134 3.69858 31.0904 3.81924L38.3451 3.81924L38.3451 28.9559L3.6657 28.9559L3.6657 3.77902L10.8408 3.77902C11.8771 3.65836 12.5947 2.73334 12.4751 1.68765C12.3555 0.843062 11.7177 0.159346 10.8408 0.0386902L3.82515 0.0386902C1.99152 -0.24284 0.317345 1.04415 0.038315 2.85399C-0.00154641 3.21596 -0.00154641 3.53771 0.038315 3.85946L0.038315 28.795C-0.240715 30.645 1.03485 32.3342 2.86848 32.6157C3.18737 32.656 3.50626 32.656 3.82515 32.6157L38.2654 32.6157C40.099 32.8973 41.7732 31.6103 42.0522 29.7602C42.0921 29.4385 42.0921 29.1167 42.0522 28.795L42.0522 3.85946C42.3312 2.0094 41.0557 0.32022 39.2221 0.0386896C38.9032 -0.00152836 38.5843 -0.00152836 38.2654 0.0789089Z"   fill="#333333" >
</path>
</svg>
