<svg xmlns="http://www.w3.org/2000/svg" xmlns:xlink="http://www.w3.org/1999/xlink" width="42.349647521972656" height="39.999969482421875" viewBox="0 0 42.349647521972656 39.999969482421875" fill="none">
<path d="M19.7337 0.336277L1.96471 8.66847C0.243917 9.45311 -0.466843 11.5081 0.318734 13.1895C0.655411 13.9368 1.29135 14.5346 2.03952 14.8709L19.8085 22.6426C20.6689 23.0163 21.6789 23.0163 22.5393 22.6426L40.3084 14.8709C42.0291 14.1236 42.8147 12.106 42.0666 10.3872C41.7299 9.63993 41.1313 9.00474 40.3832 8.66847L22.6516 0.336277C21.7164 -0.112092 20.6689 -0.112092 19.7337 0.336277ZM3.42364 11.7697L21.1926 3.40013L38.9242 11.7697L21.1926 19.5414L3.42364 11.7697ZM38.9242 28.9198C39.7846 28.5462 40.7947 28.9572 41.1688 29.8165C41.5428 30.6385 41.1688 31.61 40.3832 32.021L40.271 32.0957L21.8286 39.8675C21.4545 40.0169 21.043 40.0543 20.6315 39.9048L20.4819 39.8675L2.07693 32.0584C1.21654 31.6847 0.805045 30.6759 1.17913 29.8165C1.51581 28.9945 2.45102 28.5835 3.274 28.8451L3.38623 28.9198L21.1552 36.43L38.9242 28.9198Z"   fill="#333333" >
</path>
<path d="M38.5501 20.2886L21.4919 27.9483L4.43359 20.2886L4.43359 23.0536C4.43359 23.7261 4.80768 24.324 5.40621 24.5855L19.7337 30.9374C20.2948 31.1989 20.8933 31.3484 21.4919 31.3484C22.0904 31.3484 22.6889 31.1989 23.2501 30.9374L37.5775 24.5855C38.176 24.324 38.5501 23.6888 38.5501 23.0536L38.5501 20.2886Z"   fill="#1A75FF" >
</path>
</svg>
