<svg xmlns="http://www.w3.org/2000/svg" xmlns:xlink="http://www.w3.org/1999/xlink" width="44.40873718261719" height="40.000030517578125" viewBox="0 0 44.40873718261719 40.000030517578125" fill="none">
<path d="M28.851 0C29.6478 0 30.2768 0.628273 30.2768 1.42408L30.2768 6.32461L42.983 6.32461C43.7797 6.32461 44.4087 6.95288 44.4087 7.7487L44.4087 38.5759C44.4087 39.3717 43.7797 40 42.983 40L1.42578 40C0.629019 40 0 39.3717 0 38.5759L0 20.5655L0 17.089L0 7.79058C0 6.99477 0.629019 6.3665 1.42578 6.3665L12.6642 6.3665L12.6642 1.42408C12.6642 0.628273 13.2933 0 14.09 0L28.851 0ZM3.48057 20.6073L3.48057 36.6074L41.012 36.6074L41.012 20.6073L27.7188 20.6073L3.48057 20.6073ZM40.9701 9.80105L3.48057 9.80105L3.48057 17.1309L41.012 17.1309L41.012 9.80105L40.9701 9.80105ZM26.8381 3.47644L16.1448 3.47644L16.1448 6.3665L26.8381 6.3665C26.8381 6.32461 26.8381 3.47644 26.8381 3.47644Z"   fill="#333333" >
</path>
<rect x="9.01611328125" y="23.32977294921875" width="26.4188232421875" height="3.35076904296875"   fill="#1A75FF" >
</rect>
</svg>
