<svg xmlns="http://www.w3.org/2000/svg" xmlns:xlink="http://www.w3.org/1999/xlink" width="40.124267578125" height="40" viewBox="0 0 40.124267578125 40" fill="none">
<path d="M35.406 13.4866L4.67988 13.4866C3.68253 13.4866 2.99205 12.8352 2.99205 11.8008L2.99205 7.81609C2.99205 7.16475 3.33729 6.47509 3.9894 6.32184L19.3716 0.114942C19.7169 -0.0383142 20.2155 -0.0383142 20.5224 0.114942L35.9046 6.28352C36.5568 6.62835 36.902 7.12643 36.902 7.77777L36.902 11.8008C37.0938 12.7969 36.2499 13.4866 35.406 13.4866ZM6.3677 10.1533L33.6031 10.1533L33.6031 8.81226L20.0621 3.44827L6.3677 8.81226L6.3677 10.1533ZM38.4364 40L1.68783 40C0.690474 40 0 39.3486 0 38.3142C0 37.318 0.652114 36.6283 1.68783 36.6283L38.4364 36.6283C39.4337 36.6283 40.1242 37.2797 40.1242 38.3142C40.0858 39.3486 39.4337 40 38.4364 40Z"   fill="#333333" >
</path>
<path d="M6.86678 34.8275C5.86943 34.8275 5.17896 34.1762 5.17896 33.1417L5.17896 16.8199C5.17896 15.8237 5.83107 15.134 6.86678 15.134C7.90249 15.134 8.55461 15.7854 8.55461 16.8199L8.55461 33.18C8.51625 33.9846 7.67233 34.8275 6.86678 34.8275Z"   fill="#333333" >
</path>
<path d="M15.6893 34.8275C14.6919 34.8275 14.0015 34.1762 14.0015 33.1417L14.0015 16.8199C14.0015 15.8237 14.6536 15.134 15.6893 15.134C16.6866 15.134 17.3771 15.7854 17.3771 16.8199L17.3771 33.18C17.3771 33.9846 16.5332 34.8275 15.6893 34.8275Z"   fill="#1A75FF" >
</path>
<path d="M24.3968 34.8275C23.3995 34.8275 22.709 34.1762 22.709 33.1417L22.709 16.8199C22.709 15.8237 23.3611 15.134 24.3968 15.134C25.3942 15.134 26.0846 15.7854 26.0846 16.8199L26.0846 33.18C26.0463 33.9846 25.3942 34.8275 24.3968 34.8275Z"   fill="#1A75FF" >
</path>
<path d="M33.2579 34.8275C32.2605 34.8275 31.5701 34.1762 31.5701 33.1417L31.5701 16.8199C31.5701 15.8237 32.2222 15.134 33.2579 15.134C34.2552 15.134 34.9457 15.7854 34.9457 16.8199L34.9457 33.18C34.9074 33.9846 34.2552 34.8275 33.2579 34.8275Z"   fill="#333333" >
</path>
</svg>
