<svg xmlns="http://www.w3.org/2000/svg" xmlns:xlink="http://www.w3.org/1999/xlink" width="45.6614990234375" height="46.000030517578125" viewBox="0 0 45.6614990234375 46.000030517578125" fill="none">
<path d="M17.8579 41.2944C15.3865 41.2944 12.9948 40.6911 10.8024 39.565C8.64993 38.4791 6.73658 36.9508 5.14212 35.1008C1.91335 31.4007 0.0797229 26.6146 0 21.6275L0 8.95869C0 8.31519 0.398614 7.71191 0.996536 7.43038L17.1006 0.15082C17.539 -0.0502732 18.0174 -0.0502732 18.4558 0.15082L34.7592 7.4706C35.3571 7.75213 35.7557 8.35541 35.7557 8.99891L35.7557 14.6295C35.7557 15.5545 34.9983 16.3187 34.0815 16.3187C33.1647 16.3187 32.4073 15.5545 32.4073 14.6295L32.4073 10.0446L17.8181 3.48896L3.34836 10.0446L3.34836 21.6275C3.34836 30.1539 10.2842 37.9161 17.8978 37.9161C18.8146 37.9161 19.572 38.6802 19.572 39.6052C19.572 40.5303 18.7747 41.2944 17.8579 41.2944Z"   fill="#333333" >
</path>
<path d="M17.3395 32.9692C15.6653 32.9692 14.3499 31.6018 14.3499 29.9528C14.3499 28.3038 15.7051 26.9364 17.3395 26.9364C18.336 26.9364 19.2528 27.419 19.8109 28.2234L19.8508 28.2636L40.1004 28.2636L40.1403 28.2234C40.6984 27.419 41.6152 26.9364 42.5719 26.9364C44.246 26.9364 45.5615 28.3038 45.5615 29.9528C45.5615 31.1594 44.844 32.2453 43.7278 32.7279C43.3691 32.8888 42.9306 32.9692 42.532 32.9692C41.5355 32.9692 40.6186 32.4866 40.0606 31.6822L40.0207 31.642L19.8508 31.642L19.8109 31.6822C19.2528 32.4866 18.336 32.9692 17.3395 32.9692Z"   fill="#333333" >
</path>
<path d="M25.5109 24.8451C23.8367 24.8451 22.5212 23.4777 22.5212 21.8287C22.5212 20.1396 23.8765 18.8123 25.5109 18.8123C26.5074 18.8123 27.4242 19.295 27.9823 20.0993L28.0222 20.1396L38.3463 20.1396L40.9772 17.5253L40.9772 9.52185L40.9373 9.48163C39.582 8.51639 39.2233 6.62609 40.18 5.25866C41.1366 3.89123 43.0101 3.52926 44.3654 4.49451C45.7207 5.45975 46.0795 7.35003 45.1228 8.71748C44.9235 8.99901 44.6843 9.28054 44.3654 9.48163L44.3256 9.52185L44.3256 18.2091C44.3256 18.6515 44.1661 19.0939 43.8472 19.4156L40.2597 23.0353C39.9408 23.357 39.5422 23.5179 39.1037 23.5179L28.0222 23.5179L27.9823 23.5581C27.4242 24.3625 26.5074 24.8451 25.5109 24.8451Z"   fill="#1A75FF" >
</path>
<path d="M42.6114 46C40.9373 46 39.6218 44.6326 39.6218 42.9836C39.6218 42.7423 39.6617 42.4608 39.7015 42.2195L39.7015 42.139L37.3497 39.7662L28.62 39.7662L28.5801 39.8064C28.0619 40.8118 27.0255 41.4553 25.9094 41.4553C25.75 41.4553 25.5905 41.4553 25.4311 41.4151C23.7967 41.1336 22.6806 39.5651 22.9596 37.9161C23.2387 36.2671 24.7933 35.141 26.4276 35.4226C27.0654 35.5432 27.6633 35.865 28.1018 36.3476L28.1417 36.3878L38.0274 36.3878C38.4658 36.3878 38.9043 36.5487 39.1833 36.8704L42.2128 39.927L42.731 39.927C44.4052 40.0075 45.6808 41.4151 45.6011 43.1043C45.5213 44.713 44.2059 45.9598 42.6114 46Z"   fill="#333333" >
</path>
</svg>
