<svg xmlns="http://www.w3.org/2000/svg" xmlns:xlink="http://www.w3.org/1999/xlink" width="43.12846374511719" height="40.00018310546875" viewBox="0 0 43.12846374511719 40.00018310546875" fill="none">
<path d="M41.2797 39.6922L17.2512 39.6922C16.327 39.6922 15.4028 38.7692 15.4028 37.8461C15.4028 36.923 16.327 35.9999 17.2512 35.9999L39.4313 35.9999L39.4313 27.6922L17.2512 27.6922C16.6351 27.6922 16.327 27.3845 16.0189 27.0768C15.7109 26.7692 15.4028 26.4615 15.4028 25.8461L15.4028 14.1538C15.4028 13.5384 15.7109 13.2307 16.0189 12.923C16.327 12.6153 16.9431 12.3076 17.2512 12.3076L39.4313 12.3076L39.4313 3.99992L17.2512 3.99992C16.327 3.99992 15.4028 3.07685 15.4028 2.15377C15.4028 1.23069 16.327 0.307617 17.2512 0.307617L41.2797 0.307617C41.8958 0.307617 42.2039 0.615309 42.5119 0.923002C42.82 1.23069 43.128 1.53839 43.128 2.15377L43.128 14.1538C43.128 14.7692 42.82 15.0768 42.5119 15.3845C42.2039 15.6922 41.5877 15.9999 41.2797 15.9999L19.0995 15.9999L19.0995 24.3076L41.5877 24.3076C42.2039 24.3076 42.5119 24.6153 42.82 24.923C42.82 24.923 43.128 25.5384 43.128 25.8461L43.128 37.8461C43.128 38.4615 42.82 38.7692 42.5119 39.0768C42.2039 39.3845 41.8958 39.6922 41.2797 39.6922Z"   fill="#333333" >
</path>
<path d="M12.3223 0.615385C12.0143 0.307692 11.7062 0 11.0901 0L1.84835 0C1.54029 0 0.924173 0.307692 0.616116 0.615385C0.308058 0.923077 0 1.23077 0 1.84615L0 9.84615C0 10.4615 0.308058 10.7692 0.616116 11.0769C0.924173 11.3846 1.23223 11.6923 1.84835 11.6923L11.0901 11.6923C12.0143 11.6923 12.6304 10.7692 12.9384 9.84615L12.9384 1.84615C12.9384 1.53846 12.6304 0.923077 12.3223 0.615385ZM9.24173 8L3.69669 8L3.69669 3.69231L9.24173 3.69231L9.24173 8Z"   fill="#1A75FF" >
</path>
<path d="M12.3223 14.7694C12.0143 14.4617 11.7062 14.1541 11.0901 14.1541L1.84835 14.1541C1.54029 14.1541 0.924173 14.4617 0.616116 14.7694C0.308057 15.0771 0 15.3848 0 16.0002L0 24.0002C0 24.6156 0.308058 24.9233 0.616116 25.231C0.924173 25.5387 1.23223 25.8464 1.84835 25.8464L11.0901 25.8464C12.0143 25.8464 12.6304 24.9233 12.9384 24.0002L12.9384 16.0002C12.9384 15.6925 12.6304 15.0771 12.3223 14.7694ZM9.24173 22.1541L3.69669 22.1541L3.69669 17.8464L9.24173 17.8464L9.24173 22.1541Z"   fill="#333333" >
</path>
<path d="M12.3223 28.9229C12.0143 28.6152 11.7062 28.3075 11.0901 28.3075L1.84835 28.3075C1.54029 28.3075 0.924173 28.6152 0.616116 28.9229C0.308058 29.2306 0 29.5383 0 30.1536L0 38.1536C0 38.769 0.308058 39.0767 0.616116 39.3844C0.924173 39.6921 1.23223 39.9998 1.84835 39.9998L11.0901 39.9998C12.0143 39.9998 12.6304 39.0767 12.9384 38.1536L12.9384 30.1536C12.9384 29.846 12.6304 29.2306 12.3223 28.9229ZM9.24173 36.3075L3.69669 36.3075L3.69669 31.6921L9.24173 31.6921L9.24173 36.3075Z"   fill="#333333" >
</path>
</svg>
