<svg xmlns="http://www.w3.org/2000/svg" xmlns:xlink="http://www.w3.org/1999/xlink" width="45.4461669921875" height="40" viewBox="0 0 45.4461669921875 40" fill="none">
<path d="M44.8202 27.4551C44.2461 26.7741 43.2772 26.4157 42.0212 26.4157C41.16 26.4157 40.4423 26.559 40.0475 26.7382C39.8322 26.8099 39.5093 26.9533 39.1145 27.1325C38.2533 27.4909 36.459 28.3153 35.4184 28.5662C35.0954 27.025 34.1983 25.5913 32.8706 25.5913C32.7988 25.5913 32.727 25.5913 32.6552 25.5913C32.6552 25.5913 32.5476 25.5913 32.1529 25.5913C30.1433 25.5913 24.7965 25.3046 23.1457 25.0537C21.6386 24.8028 18.1577 23.0823 16.9377 22.473L16.6865 22.3296L11.519 22.3296L11.519 20.7167L0 20.7167L0 38.6379L11.519 38.6379L11.519 37.1325C12.4879 37.3117 13.8874 37.6701 15.4664 38.0644C18.8396 38.9246 23.074 39.9999 26.2318 39.9999C27.2366 39.9999 28.062 39.8924 28.7797 39.6773C31.1122 38.9963 35.1313 37.2042 38.5045 35.3404C39.6169 34.7311 41.2317 33.7992 42.5954 32.8314C44.4255 31.5411 45.2867 30.5375 45.4303 29.6056C45.502 28.7454 45.3226 27.9927 44.8202 27.4551ZM11.519 24.5519L16.1482 24.5519C17.3683 25.197 20.9209 26.9533 22.7869 27.24C24.5453 27.5268 30.0715 27.8135 32.1529 27.8135C32.404 27.8135 32.6194 27.8135 32.7629 27.8135C32.7988 27.8852 32.8706 27.9569 32.9782 28.1361C33.1935 28.5304 33.3371 29.0321 33.3371 29.4981C33.3729 30.1791 33.9112 30.8601 34.9878 30.8601C36.1361 30.8601 38.038 30.0716 40.0475 29.1755C40.4064 29.0321 40.7293 28.8888 40.837 28.8171C41.0164 28.7454 41.4829 28.6379 42.0212 28.6379C42.703 28.6379 43.0619 28.8171 43.1336 28.8888C43.2054 28.9605 43.1695 29.1397 43.1695 29.2114C43.1695 29.2472 42.9901 29.6415 41.8418 30.5375C40.8011 31.3619 39.2581 32.3296 37.392 33.3691C34.1265 35.1612 30.3227 36.8816 28.0979 37.5268C27.5955 37.6701 26.9495 37.7418 26.196 37.7418C23.3252 37.7418 19.2343 36.7024 15.9688 35.878C14.1745 35.4121 12.6315 35.0178 11.4832 34.8386L11.4832 24.5519L11.519 24.5519ZM6.02866 32.1146C6.60282 32.1146 7.10521 32.5805 7.10521 33.1899C7.10521 33.7633 6.6387 34.2651 6.02866 34.2651C5.41862 34.2651 4.95211 33.7992 4.95211 33.1899C4.95211 32.6164 5.4545 32.1146 6.02866 32.1146ZM6.02866 29.8924C4.19853 29.8924 2.72725 31.3619 2.72725 33.154C2.72725 34.7669 3.91145 36.0931 5.4545 36.3798L2.22486 36.3798L2.22486 22.939L9.29418 22.939L9.29418 32.7239C9.07887 31.1468 7.67936 29.8924 6.02866 29.8924ZM9.29418 33.6558L9.29418 36.4157L6.60282 36.4157C8.00233 36.1648 9.07887 35.0537 9.29418 33.6558Z"   fill="#333333" >
</path>
<path d="M13.7453 11.8998C14.7142 13.0109 15.8625 13.9428 17.1544 14.6597C18.2668 15.269 19.4869 15.6991 20.6352 15.8783C22.3218 16.1651 23.3625 16.8819 23.9366 17.4195C24.2955 17.778 24.5108 18.1005 24.6184 18.2798L24.6184 21.0038L24.762 21.2547C25.4079 22.4375 26.1974 22.6884 26.7715 22.6884C27.9916 22.6884 28.7452 21.5414 28.8887 21.2905L29.0323 21.0396L29.0323 18.3873C29.104 18.3514 29.1758 18.2798 29.2476 18.2439C30.0729 17.7421 31.616 17.097 33.7691 16.3443C35.2762 15.8066 36.5681 14.9823 37.6087 13.8353C38.4341 12.9393 39.1159 11.864 39.6183 10.6095C40.4437 8.53065 40.5154 6.66685 40.5154 6.66685L40.5513 5.66327L39.5824 5.5199C39.2953 5.48406 38.9365 5.44821 38.5776 5.44821C36.8193 5.44821 34.5227 5.98585 32.8002 6.81022C29.7858 8.27975 29.0681 10.1077 28.9964 11.4339C28.9605 12.5091 28.5658 13.2977 27.8122 13.7636C27.561 13.907 27.3098 14.0145 27.0945 14.0862C26.9509 13.7995 26.8433 13.1901 26.8074 12.5808L26.8074 12.4016L26.7356 12.2224C25.1567 7.52707 22.7883 4.12205 19.774 2.07904C17.2261 0.358606 14.7142 0.000183105 13.0635 0.000183105C12.0228 0.000183105 11.341 0.143552 11.2334 0.179395L10.408 0.358606L10.3721 1.21882C10.3004 3.47689 10.5874 5.59158 11.1975 7.45538C11.8075 9.13997 12.6329 10.6453 13.7453 11.8998ZM26.8792 17.5271C26.8433 17.5988 26.8074 17.7063 26.8074 17.778L26.7356 17.5988C26.6639 17.4554 26.3409 16.7027 25.4797 15.8425C24.6902 15.054 23.2548 14.0504 20.9941 13.6919C18.9845 13.3694 16.9391 12.1507 15.4678 10.4661C13.6735 8.38728 12.7046 5.55574 12.6329 2.25825C12.7764 2.25825 12.92 2.25825 13.0994 2.25825C15.4678 2.25825 21.317 3.29767 24.6543 12.8676C24.6543 13.2618 24.7261 13.907 24.9055 14.5522C25.3002 15.8066 25.982 16.2726 26.5203 16.416L26.7356 16.4876L26.9509 16.4876C27.1304 16.4876 28.0634 16.3801 29.0323 15.735C30.0012 15.1256 31.1495 13.9428 31.2571 11.6489C31.3289 10.2869 32.9796 9.31918 33.9485 8.85323C35.4198 8.17223 37.0346 7.84965 38.1829 7.77796C38.0753 8.35144 37.8958 9.10413 37.5729 9.85682C36.9628 11.398 35.671 13.4052 33.0514 14.3013C28.0993 15.9858 27.1663 16.8461 26.8792 17.5271Z"   fill="#1A75FF" >
</path>
</svg>
