<svg xmlns="http://www.w3.org/2000/svg" xmlns:xlink="http://www.w3.org/1999/xlink" width="40.76263427734375" height="40.00018310546875" viewBox="0 0 40.76263427734375 40.00018310546875" fill="none">
<path d="M10.7271 18.5714C9.9405 18.5714 9.29688 19.2142 9.29688 19.9999L9.29688 22.8571C9.29688 23.6428 9.9405 24.2856 10.7271 24.2856C11.5138 24.2856 12.1574 23.6428 12.1574 22.8571L12.1574 19.9999C12.1574 19.2142 11.5138 18.5714 10.7271 18.5714Z"   fill="#333333" >
</path>
<path d="M10.7271 8.57135C9.9405 8.57135 9.29688 9.21421 9.29688 9.99992L9.29688 12.8571C9.29688 13.6428 9.9405 14.2856 10.7271 14.2856C11.5138 14.2856 12.1574 13.6428 12.1574 12.8571L12.1574 9.99992C12.1574 9.21421 11.5138 8.57135 10.7271 8.57135Z"   fill="#333333" >
</path>
<path d="M39.3324 37.143L25.0297 37.143L25.0297 2.85733C25.0297 1.2859 23.7425 0.000183105 22.1692 0.000183105L5.00594 0.000183105C3.43264 0.000183105 2.1454 1.2859 2.1454 2.85733L2.1454 37.143L1.43027 37.143C0.643621 37.143 0 37.7859 0 38.5716C0 39.3573 0.643621 40.0002 1.43027 40.0002L39.3324 40.0002C40.119 40.0002 40.7626 39.3573 40.7626 38.5716C40.7626 37.7859 40.119 37.143 39.3324 37.143ZM15.4469 37.143L12.1573 37.143L12.1573 31.893L15.4469 31.893L15.4469 37.143ZM18.3074 37.143L18.3074 29.0359L9.29674 29.0359L9.29674 37.143L5.00594 37.143L5.00594 2.85733L22.1692 2.85733L22.1692 37.143L18.3074 37.143Z"   fill="#333333" >
</path>
<path d="M16.4474 8.57135C15.6607 8.57135 15.0171 9.21421 15.0171 9.99992L15.0171 12.8571C15.0171 13.6428 15.6607 14.2856 16.4474 14.2856C17.234 14.2856 17.8776 13.6428 17.8776 12.8571L17.8776 9.99992C17.8776 9.21421 17.234 8.57135 16.4474 8.57135Z"   fill="#333333" >
</path>
<path d="M16.4474 18.5714C15.6607 18.5714 15.0171 19.2142 15.0171 19.9999L15.0171 22.8571C15.0171 23.6428 15.6607 24.2856 16.4474 24.2856C17.234 24.2856 17.8776 23.6428 17.8776 22.8571L17.8776 19.9999C17.8776 19.2142 17.234 18.5714 16.4474 18.5714Z"   fill="#333333" >
</path>
<path d="M34.5046 34.5719L33.7537 33.8219C33.2889 33.2147 32.7883 32.3219 32.4307 31.5362C32.0731 30.7147 31.7513 29.8576 31.6083 28.9647C31.2507 27.2147 31.4295 25.3933 32.3592 23.8219C32.6095 23.429 32.824 23.0719 33.1458 22.6433C33.4677 22.179 33.7537 21.7504 34.004 21.2862C34.5046 20.3219 34.8264 19.2504 34.8622 18.179C34.9337 16.0004 33.861 14.0004 32.395 12.679C33.6822 14.2147 34.3973 16.2504 34.0398 18.1076C33.8967 19.0362 33.4677 19.8933 32.9313 20.6433C32.6453 21.0362 32.3592 21.3933 32.0374 21.7147C31.7156 22.0362 31.2865 22.4647 30.9647 22.8933C29.5702 24.6433 28.9981 27.0362 29.1411 29.2504C29.2126 30.3576 29.4271 31.4647 29.7132 32.5362C29.9635 33.2862 30.2138 34.0004 30.5356 34.7504L27.7466 34.7504L27.7466 35.8933L36.9718 35.8933L36.9718 34.7504L34.5761 34.7504C34.5761 34.679 34.5404 34.6433 34.5046 34.5719Z"   fill="#1A75FF" >
</path>
<path d="M33.8608 24.8576C32.6094 26.1076 32.4306 27.8933 33.4318 28.8933C34.4329 29.8933 36.2565 29.7147 37.4723 28.4647C38.7238 27.2147 39.1528 23.179 39.1528 23.179C39.1528 23.179 35.0766 23.6076 33.8608 24.8576ZM31.6439 21.0361C32.6451 20.0361 32.4663 18.2147 31.2148 17.0004C29.9634 15.7504 25.9229 15.3218 25.9229 15.3218C25.9229 15.3218 26.3519 19.3933 27.6034 20.6076C28.8549 21.8576 30.6427 22.0361 31.6439 21.0361Z"   fill="#1A75FF" >
</path>
</svg>
