<svg xmlns="http://www.w3.org/2000/svg" xmlns:xlink="http://www.w3.org/1999/xlink" width="45.59675598144531" height="40.00018310546875" viewBox="0 0 45.59675598144531 40.00018310546875" fill="none">
<path d="M35.5839 0.000183105C36.7937 0.000183105 37.7948 1.00018 37.7948 2.20852L37.7948 10.1252L33.3729 10.1252L33.3729 4.45852L6.67459 4.45852L6.67459 35.5835L44.5111 35.5835L44.5111 40.0002L0 40.0002L0 35.5418L2.21096 35.5418L2.21096 2.20852C2.21096 1.00018 3.21214 0.000183105 4.46363 0.000183105L35.5839 0.000183105Z"   fill="#333333" >
</path>
<rect x="11.1376953125" y="26.66705322265625" width="4.463623046875" height="4.45831298828125"   fill="#333333" >
</rect>
<path d="M25.5713 11.5419L25.5713 24.7503C25.5713 26.9586 26.6976 29.0003 28.5331 30.2086L35.5832 34.8336L42.6332 30.2086C44.4687 29.0003 45.595 26.9586 45.595 24.7503L45.595 11.5419L25.5713 11.5419ZM41.1731 15.9586L41.1731 24.7503C41.1731 25.4586 40.7977 26.1253 40.2137 26.5003L35.6249 29.5419L31.0361 26.5003C30.4104 26.0836 30.0766 25.4169 30.0766 24.7503L30.0766 15.9586L41.1731 15.9586Z"   fill="#1A75FF" >
</path>
<rect x="11.1376953125" y="17.79193115234375" width="4.463623046875" height="4.45831298828125"   fill="#333333" >
</rect>
<rect x="11.1376953125" y="8.87530517578125" width="4.463623046875" height="4.45831298828125"   fill="#333333" >
</rect>
</svg>
