<svg xmlns="http://www.w3.org/2000/svg" xmlns:xlink="http://www.w3.org/1999/xlink" width="25" height="24" viewBox="0 0 25 24" fill="none">
<path d="M12.4995 15.7962C11.9826 15.7962 11.4962 15.5992 11.1304 15.2411L5.74074 9.94523C5.53685 9.74492 5.42456 9.47858 5.42456 9.19534C5.42456 8.91211 5.53682 8.64574 5.74074 8.44546C5.94465 8.24518 6.2157 8.13489 6.50403 8.13489C6.79232 8.13489 7.06345 8.24512 7.26732 8.44546L12.4992 13.5859L17.7323 8.44546C17.9362 8.24515 18.2072 8.13489 18.4956 8.13489C18.7839 8.13489 19.055 8.24512 19.2589 8.44546C19.6798 8.85901 19.6798 9.53168 19.2589 9.94536L13.8693 15.2398C13.504 15.5987 13.0176 15.7962 12.4995 15.7962Z"   fill="#1A75FF" >
</path>
<path d="M12.5001 15.5849C11.9049 15.5849 11.4207 15.1093 11.4207 14.5243L11.4207 1.06059C11.4207 0.475791 11.9047 0 12.5001 0C13.0954 0 13.5796 0.475608 13.5796 1.06059L13.5796 14.5243C13.5796 15.1092 13.0955 15.5849 12.5001 15.5849Z"   fill="#1A75FF" >
</path>
<path d="M4.50568 23.9999C2.02114 23.9999 0 22.0141 0 19.5733L0 7.23148C0 4.7906 2.02122 2.80493 4.50568 2.80493C5.10085 2.80493 5.58509 3.28051 5.58509 3.86539C5.58509 4.45026 5.10101 4.92584 4.50568 4.92584C3.21156 4.92584 2.1589 5.96011 2.1589 7.2314L2.1589 19.5732C2.1589 20.8445 3.21164 21.8788 4.50568 21.8788L20.4943 21.8788C21.7883 21.8788 22.8411 20.8445 22.8411 19.5732L22.8411 7.2314C22.8411 5.96014 21.7883 4.92584 20.4943 4.92584C19.8992 4.92584 19.4149 4.45026 19.4149 3.86539C19.4149 3.28051 19.899 2.80493 20.4943 2.80493C22.9789 2.80493 25 4.79065 25 7.23148L25 19.5733C25 22.0142 22.9788 23.9999 20.4943 23.9999L4.50568 23.9999Z"   fill="#1A75FF" >
</path>
</svg>
