<svg xmlns="http://www.w3.org/2000/svg" xmlns:xlink="http://www.w3.org/1999/xlink" width="45.44688415527344" height="44.954345703125" viewBox="0 0 45.44688415527344 44.954345703125" fill="none">
<path d="M23.9103 14.8913C23.6269 14.611 23.2019 14.4358 22.7768 14.4358C22.3517 14.4358 21.9266 14.611 21.6433 14.8913L15.161 21.3033C14.7359 21.6888 14.5588 22.2844 14.7359 22.845C14.8776 23.4056 15.3381 23.8261 15.9048 24.0013C16.4716 24.1415 17.0738 23.9663 17.4634 23.5808L21.1828 19.9018L21.1828 28.8366C21.1828 29.7126 21.8912 30.4484 22.8122 30.4484C23.6978 30.4484 24.4416 29.7476 24.4416 28.8366L24.4416 19.9018L28.0901 23.5458C28.4798 23.9663 29.082 24.1415 29.6487 23.9663C30.2155 23.8261 30.6405 23.3706 30.8177 22.81C30.9593 22.2494 30.7822 21.6537 30.3926 21.2683L23.9103 14.8913Z"   fill="#1A75FF" >
</path>
<path d="M43.8175 25.6131L42.188 25.6131L42.188 19.2361L43.8175 19.2361C44.703 19.2361 45.4469 18.5354 45.4469 17.6244C45.4469 16.7484 44.7384 16.0126 43.8175 16.0126L42.188 16.0126L42.188 14.4008C42.188 8.23404 37.0872 3.18851 30.8529 3.18851L29.2234 3.18851L29.2234 1.61177C29.2234 0.735808 28.515 0 27.594 0C26.7085 0 25.9646 0.70077 25.9646 1.61177L25.9646 3.22354L19.4823 3.22354L19.4823 1.61177C19.4823 0.735808 18.7738 0 17.8529 0C16.9673 0 16.2234 0.70077 16.2234 1.61177L16.2234 3.22354L14.594 3.22354C8.35968 3.22354 3.25885 8.26908 3.25885 14.4359L3.25885 16.0476L1.62942 16.0476C0.743862 16.0476 0 16.7484 0 17.6594C0 18.5354 0.708447 19.2712 1.62942 19.2712L3.25885 19.2712L3.25885 25.6832L1.62942 25.6832C0.743862 25.6832 0 26.384 0 27.295C0 28.1709 0.708447 28.9067 1.62942 28.9067L3.25885 28.9067L3.25885 30.5185C3.25885 36.6853 8.35968 41.7308 14.594 41.7308L16.2234 41.7308L16.2234 43.3426C16.2234 44.2186 16.9319 44.9544 17.8529 44.9544C18.7384 44.9544 19.4823 44.2536 19.4823 43.3426L19.4823 41.7308L25.9646 41.7308L25.9646 43.3426C25.9646 44.2186 26.673 44.9544 27.594 44.9544C28.4796 44.9544 29.2234 44.2536 29.2234 43.3426L29.2234 41.7308L30.8529 41.7308C37.0872 41.7308 42.188 36.6853 42.188 30.5185L42.188 28.9067L43.8175 28.9067C44.703 28.9067 45.4469 28.206 45.4469 27.295C45.4469 26.3489 44.703 25.6131 43.8175 25.6131ZM30.8529 38.4372L14.6649 38.4372C10.2016 38.4372 6.55314 34.8283 6.55314 30.4134L6.55314 14.4008C6.55314 9.98597 10.2016 6.377 14.6649 6.377L30.8529 6.377C35.3161 6.377 38.9646 9.98597 38.9646 14.4008L38.9646 30.4134C38.9646 34.8633 35.3161 38.4372 30.8529 38.4372Z"   fill="#333333" >
</path>
</svg>
