<svg xmlns="http://www.w3.org/2000/svg" xmlns:xlink="http://www.w3.org/1999/xlink" width="45" height="45.0001220703125" viewBox="0 0 45 45.0001220703125" fill="none">
<path d="M42.7596 0L41.8816 0L2.19631 0C1.01101 0 0.0452154 0.960236 0.00132632 2.13871C-0.0425761 3.36082 1.01101 4.36471 2.2402 4.36471L2.6792 4.36471C2.9426 4.36471 3.1182 4.5393 3.1182 4.80118L3.1182 28.5452C3.1182 32.1679 6.05948 35.0922 9.70315 35.0922L18.5709 35.0922C18.966 35.0922 19.1855 35.616 18.8343 35.8779L12.2493 41.0719C11.2835 41.8139 11.1079 43.2106 11.8542 44.1708C12.2932 44.7383 12.9517 45.0001 13.5663 45.0001C14.0492 45.0001 14.5321 44.8255 14.9272 44.52L22.2146 38.7586C22.5658 38.4967 23.0048 38.4967 23.3121 38.7586L29.9409 44.4327C30.8628 45.2184 32.2676 45.1311 33.0578 44.2145C33.848 43.2979 33.7602 41.9012 32.8383 41.1155L26.6484 35.8342C26.3411 35.5724 26.5167 35.0486 26.9557 35.0486L35.2967 35.0486C38.9403 35.0486 41.8816 32.1242 41.8816 28.5015L41.8816 4.80118C41.8816 4.5393 42.0572 4.36471 42.3206 4.36471L42.8035 4.36471C43.9888 4.36471 44.9546 3.40447 44.9985 2.226C45.0424 1.00388 43.9888 0 42.7596 0ZM37.4917 28.5452C37.4917 29.7673 36.5259 30.7275 35.2967 30.7275L9.70315 30.7275C8.47396 30.7275 7.50817 29.7673 7.50817 28.5452L7.50817 6.11059C7.50817 5.15035 8.29836 4.36471 9.26415 4.36471L35.7357 4.36471C36.7015 4.36471 37.4917 5.15035 37.4917 6.11059L37.4917 28.5452Z"   fill="#333333" >
</path>
<path d="M12.4254 25.0532C12.9961 25.0532 13.5229 24.8349 13.9619 24.3985L17.5178 20.9067C17.869 20.5575 18.3958 20.5575 18.747 20.9067L21.1615 23.22C21.7761 23.7874 22.5663 24.0929 23.4003 24.0929C24.2344 24.0493 25.0246 23.7001 25.5953 23.0891L34.2435 13.6613C35.0776 12.7884 34.9898 11.3917 34.1118 10.5624C33.2339 9.73313 31.8291 9.82043 30.995 10.6934L23.8832 18.4625C23.532 18.8117 22.9614 18.8553 22.6102 18.5061L20.2835 16.2365C19.0982 15.058 17.1666 15.1017 15.9813 16.2365L10.889 21.2995C10.011 22.1288 10.011 23.5255 10.889 24.3985C11.2841 24.8349 11.8548 25.0532 12.4254 25.0532Z"   fill="#1A75FF" >
</path>
</svg>
