<svg xmlns="http://www.w3.org/2000/svg" xmlns:xlink="http://www.w3.org/1999/xlink" width="45.305877685546875" height="44.8143310546875" viewBox="0 0 45.305877685546875 44.8143310546875" fill="none">
<path d="M42.4713 0L2.83378 0C1.2752 0 0 1.26139 0 2.80309L0 31.7449C0 33.2866 1.2752 34.548 2.83378 34.548L20.9346 34.548L20.9346 41.3806L10.4496 41.3806C9.49317 41.3806 8.71388 42.1514 8.71388 43.0974C8.71388 44.0435 9.49317 44.8143 10.4496 44.8143L34.9264 44.8143C35.8828 44.8143 36.6621 44.0435 36.6621 43.0974C36.6621 42.1514 35.8828 41.3806 34.9264 41.3806L24.406 41.3806L24.406 34.548L42.4713 34.548C44.0299 34.548 45.3051 33.2866 45.3051 31.7449L45.3051 2.80309C45.3405 1.22635 44.0653 0 42.4713 0ZM41.8337 31.1143L3.50681 31.1143L3.50681 3.43378L41.8337 3.43378L41.8337 31.1143Z"   fill="#333333" >
</path>
<path d="M10.4842 22.7049C12.7158 24.9123 16.6123 27.5402 22.7049 27.5402C28.7975 27.5402 32.694 24.9123 34.8902 22.7049C37.2989 20.3222 38.2553 17.9046 38.2907 17.7995L38.5387 17.1688L38.2907 16.5381C38.2553 16.433 37.2989 13.9803 34.8902 11.5626C32.6586 9.32015 28.7621 6.65723 22.6695 6.65723C16.5768 6.65723 12.6804 9.32015 10.4488 11.5626C8.07549 13.9803 7.08367 16.433 7.04825 16.5381L6.80029 17.1688L7.04825 17.7995C7.11909 17.8696 8.07549 20.2872 10.4842 22.7049ZM13.07 13.8752C15.585 11.3874 18.8439 10.126 22.6695 10.126C26.4951 10.126 29.7539 11.3874 32.2689 13.8752C33.2253 14.8212 34.0754 15.9424 34.713 17.1337C34.0754 18.3251 33.2607 19.4112 32.3043 20.3573C29.7539 22.81 26.5305 24.0714 22.6695 24.0714C18.8084 24.0714 15.585 22.81 13.0346 20.3573C12.0782 19.4112 11.2635 18.3251 10.5905 17.1337C11.2635 15.9424 12.0782 14.8562 13.07 13.8752Z"   fill="#333333" >
</path>
<path d="M22.7405 22.2845C25.6451 22.2845 27.9829 19.9719 27.9829 17.0988C27.9829 14.2256 25.6451 11.9131 22.7405 11.9131C19.8359 11.9131 17.498 14.2256 17.498 17.0988C17.498 19.9719 19.8359 22.2845 22.7405 22.2845ZM22.7405 15.3819C23.6969 15.3819 24.4761 16.1527 24.4761 17.0988C24.4761 18.0448 23.6969 18.8157 22.7405 18.8157C21.7841 18.8157 21.0048 18.0448 21.0048 17.0988C21.0048 16.1527 21.7487 15.3819 22.7405 15.3819Z"   fill="#1A75FF" >
</path>
</svg>
