<svg xmlns="http://www.w3.org/2000/svg" xmlns:xlink="http://www.w3.org/1999/xlink" width="43.92413330078125" height="42.32647705078125" viewBox="0 0 43.92413330078125 42.32647705078125" fill="none">
<path d="M23.2361 13.9802L21.2524 15.9424L24.9364 19.5864L21.2524 23.2654L23.2361 25.1925L28.9038 19.5864L23.2361 13.9802Z"   fill="#1A75FF" >
</path>
<path d="M13.6022 13.9802L7.93457 19.5864L13.6022 25.1925L15.5858 23.2654L11.9019 19.5864L15.5858 15.9424L13.6022 13.9802Z"   fill="#1A75FF" >
</path>
<path d="M35.9891 0.840925C35.4224 0.280308 34.8556 0 34.0055 0L2.83379 0C1.98366 0 1.4169 0.280308 0.850134 0.840925C0.28338 1.40154 0 1.96216 0 2.80308L0 30.8339C0 31.6748 0.28338 32.2355 0.850134 32.7961C1.4169 33.3567 1.98366 33.637 2.83379 33.637L19.8365 33.637L19.8365 30.8339L2.83379 30.8339L2.83379 9.81079L34.0055 9.81079L34.0055 19.6216L36.8393 19.6216L36.8393 2.80308C36.8393 1.96216 36.5559 1.3665 35.9891 0.840925ZM34.0055 6.97267L2.83379 6.97267L2.83379 2.76805L34.0055 2.76805L34.0055 6.97267Z"   fill="#333333" >
</path>
<path d="M43.9241 33.6018L43.9241 30.7987L40.807 30.7987C40.5236 29.9578 40.2402 29.1169 39.6735 28.276L41.6571 26.3138L39.6735 24.3867L37.6899 26.3489C36.8397 25.7883 35.9896 25.5079 35.1395 25.2276L35.1395 22.4246L32.3058 22.4246L32.3058 25.5079C31.4556 25.7883 30.6055 26.0686 29.7554 26.6292L27.7718 24.667L26.0715 26.3489L28.0551 28.311C27.4884 29.1519 27.205 29.9929 26.9216 30.8338L24.0879 30.8338L24.0879 33.6369L27.205 33.6369C27.4884 34.4778 27.7718 35.3187 28.3385 36.1596L26.3549 38.1218L28.3385 40.0839L30.3221 38.1218C31.1723 38.6824 32.0224 38.9627 32.8725 39.243L32.8725 42.3264L35.7062 42.3264L35.7062 39.243C36.5564 38.9627 37.4065 38.6824 38.2566 38.1218L40.2402 40.0839L42.2239 38.1218L40.2402 36.1596C40.807 35.3187 41.0904 34.4778 41.3737 33.6369L43.9241 33.6369L43.9241 33.6018ZM37.1231 35.3187C36.273 36.1596 35.1395 36.4399 34.006 36.4399C33.1559 36.4399 32.3058 36.1596 31.739 35.599C31.1723 35.0384 30.6055 34.4778 30.0388 33.6369C29.7554 33.0762 29.7554 32.2353 29.7554 31.3944C30.0388 30.5535 30.3221 29.7126 30.8889 29.1519C31.4556 28.5913 32.3058 28.0307 33.1559 28.0307C34.006 27.7504 34.8561 28.0307 35.7062 28.311C36.5564 28.5913 37.1231 29.1519 37.6899 29.9929C38.2566 30.8338 38.2566 31.3944 38.2566 32.2353C38.2566 33.3215 37.6899 34.4778 37.1231 35.3187Z"   fill="#333333" >
</path>
</svg>
