<svg xmlns="http://www.w3.org/2000/svg" xmlns:xlink="http://www.w3.org/1999/xlink" width="44.211090087890625" height="47.5819091796875" viewBox="0 0 44.211090087890625 47.5819091796875" fill="none">
<path d="M14.7373 27.3032L20.3574 45.7004L22.9801 40.3903L29.0581 47.5819L32.222 44.8641L26.144 37.6725L31.8057 35.8746L14.7373 27.3032Z"   fill="#1A75FF" >
</path>
<rect x="5.870361328125" y="0" width="32.471435546875" height="4.4320526123046875"   fill="#333333" >
</rect>
<rect x="2.91455078125" y="7.4007568359375" width="38.34130859375" height="4.4320526123046875"   fill="#333333" >
</rect>
<path d="M4.41277 14.8014C1.9566 14.8014 0 16.8084 0 19.2334L0 32.6132C0 35.0801 1.99823 37.0452 4.41277 37.0452L13.6546 37.0452L9.20022 32.6132L4.41277 32.6132L4.41277 19.2752L39.8398 19.2752L39.8398 32.6132L30.598 32.6132L35.0108 37.0452L39.7982 37.0452C42.2544 37.0452 44.211 35.0383 44.211 32.6132L44.211 19.2752C44.211 16.8084 42.2128 14.8432 39.7982 14.8432C39.7982 14.8014 4.41277 14.8014 4.41277 14.8014Z"   fill="#333333" >
</path>
</svg>
