<svg xmlns="http://www.w3.org/2000/svg" xmlns:xlink="http://www.w3.org/1999/xlink" width="46.5008544921875" height="36.62713623046875" viewBox="0 0 46.5008544921875 36.62713623046875" fill="none">
<path d="M23.188 32.864L3.58019 32.864L3.58019 5.60277L22.064 19.777C22.397 20.0278 22.7717 20.1533 23.188 20.1533C23.5626 20.1533 23.9789 20.0278 24.312 19.777L42.8374 5.60277L42.8374 18.3135C42.8374 19.317 43.67 20.1533 44.6691 20.1533C45.6682 20.1533 46.5008 19.317 46.5008 18.3135L46.5008 1.88153C46.5008 1.63066 46.4592 1.37979 46.3759 1.17073L46.3759 1.17073C46.3759 1.12892 46.3343 1.12892 46.3343 1.08711C46.3343 1.04529 46.2927 1.04529 46.2927 1.00348L46.2927 1.00348C46.2927 0.96167 46.2511 0.96167 46.2511 0.919858L46.2511 0.919858C46.2511 0.878047 46.2094 0.878047 46.2094 0.836235L46.2094 0.836235L46.1678 0.794423L46.1678 0.794423L46.1262 0.752611C46.1262 0.752611 46.1262 0.752611 46.0845 0.7108L46.0429 0.668988L46.0013 0.627176C46.0013 0.627176 46.0013 0.627176 45.9596 0.585364L45.918 0.543553C45.918 0.543553 45.918 0.543553 45.8764 0.501741L45.8348 0.459929C45.8348 0.459929 45.8348 0.459929 45.7931 0.418117L45.7515 0.376306C45.7515 0.376306 45.7515 0.376306 45.7099 0.376306C45.7099 0.376306 45.6682 0.376306 45.6682 0.334494C45.6682 0.334494 45.627 0.334494 45.627 0.292683C45.627 0.292683 45.5854 0.292683 45.5854 0.25087C45.5854 0.25087 45.5438 0.25087 45.5438 0.209059L45.5021 0.209059C45.5021 0.209059 45.4605 0.209059 45.4605 0.167247C45.4605 0.167247 45.4605 0.167247 45.4189 0.167247C45.4189 0.167247 45.3772 0.167247 45.3772 0.125436C45.3356 0.125436 45.3356 0.125436 45.294 0.0836239L45.294 0.0836239C45.2524 0.0836239 45.2524 0.0836239 45.2107 0.0418117L45.2107 0.0418117C45.1691 0.0418117 45.1691 0.0418117 45.1275 0C45.0858 0 45.0858 0 45.0442 0L45.0442 0C45.0026 0 45.0026 0 44.9609 0C44.9193 0 44.9193 0 44.8777 0C44.8777 0 44.8777 0 44.8361 0L44.7944 0L44.7528 0L44.7112 0C44.6695 0 44.6695 0 44.6279 0L44.6279 0L1.74888 0C1.70724 0 1.66563 0 1.62399 0C1.58236 0 1.58236 0 1.54073 0C1.54073 0 1.54073 0 1.49909 0C1.45747 0 1.45747 0 1.41584 0L1.37421 0L1.33258 0L1.29094 0L1.24932 0L1.20769 0L1.16606 0L1.12443 0L1.08279 0L1.04117 0L0.999539 0L0.957905 0C0.957905 0 0.916275 0 0.916275 0.0418117C0.916275 0.0418117 0.916275 0.0418117 0.87464 0.0418117C0.87464 0.0418117 0.833023 0.0418117 0.833023 0.0836239C0.833023 0.0836239 0.833023 0.0836239 0.791389 0.0836239L0.749754 0.125436L0.749754 0.125436C0.708124 0.125436 0.708124 0.167247 0.708124 0.167247L0.708124 0.167247C0.66649 0.167247 0.66649 0.209059 0.624872 0.209059L0.624872 0.209059L0.583238 0.25087L0.583238 0.25087L0.541604 0.292683L0.541604 0.292683L0.499974 0.334494C0.499974 0.334494 0.499974 0.334494 0.499974 0.376306L0.458339 0.418117C0.458339 0.418117 0.458339 0.459929 0.416301 0.459929C0.416301 0.459929 0.416301 0.501741 0.374669 0.501741L0.333036 0.543553L0.291403 0.585364L0.291403 0.585364C0.291403 0.627176 0.249783 0.627176 0.249783 0.668988C0.249783 0.7108 0.208151 0.7108 0.208151 0.752611L0.208151 0.752611C0.208151 0.794423 0.166518 0.794423 0.166518 0.836235C0.166518 0.878047 0.124885 0.878047 0.124885 0.919858L0.124885 0.919858C0.0416326 1.12892 0 1.37979 0 1.63066L0 34.4529C0 35.4564 0.832602 36.2926 1.83172 36.2926L23.2712 36.2926C24.2708 36.2926 25.1034 35.4564 25.1034 34.4529C25.0197 33.7003 24.1871 32.864 23.188 32.864ZM23.188 15.9721L7.16038 3.72125L39.1739 3.72125L23.188 15.9721Z"   fill="#333333" >
</path>
<path d="M46.0839 30.397C46.1256 30.3552 46.1672 30.3134 46.1672 30.2716C46.1672 30.2716 46.1672 30.2716 46.1672 30.2297C46.2088 30.1879 46.2088 30.1461 46.2505 30.1043C46.2505 30.1043 46.2505 30.1043 46.2505 30.0625C46.2921 30.0207 46.2921 29.9789 46.3337 29.9371L46.3337 29.9371C46.3337 29.8953 46.3753 29.8534 46.3753 29.7698L46.3753 29.7698C46.3753 29.728 46.417 29.6444 46.417 29.6026L46.417 29.6026C46.417 29.5608 46.417 29.4771 46.4586 29.4353L46.4586 29.4353C46.4586 29.3935 46.4586 29.3099 46.4586 29.2681C46.4586 29.2263 46.4586 29.1426 46.4586 29.1008L46.4586 29.1008C46.4586 29.059 46.4586 28.9754 46.417 28.9336L46.417 28.9336C46.417 28.8918 46.3753 28.8082 46.3753 28.7663L46.3753 28.7663C46.3753 28.7245 46.3337 28.6827 46.3337 28.5991L46.3337 28.5991C46.3337 28.5573 46.2921 28.5155 46.2505 28.4737C46.2505 28.4737 46.2505 28.4737 46.2505 28.4319C46.2088 28.39 46.2088 28.3482 46.1672 28.3064C46.1672 28.3064 46.1672 28.3064 46.1672 28.2646C46.1256 28.2228 46.1256 28.181 46.0839 28.1392L46.0839 28.1392C46.0423 28.0974 46.0007 28.0555 45.9591 28.0137L45.9591 28.0137L40.5889 22.5364C39.8812 21.8256 38.7156 21.7838 38.0079 22.5364C37.3002 23.2472 37.2585 24.4179 38.0079 25.1287L40.2975 27.4702L29.682 27.4702C28.6829 27.4702 27.8503 28.3064 27.8503 29.3099C27.8503 30.3134 28.6829 31.1496 29.682 31.1496L40.2975 31.1496L38.0079 33.491C37.3002 34.2018 37.3002 35.3725 38.0079 36.0833C38.3825 36.4178 38.8405 36.6269 39.2984 36.6269C39.7563 36.6269 40.2559 36.4596 40.5889 36.0833L45.9591 30.5224L45.9591 30.5224C46.0007 30.4806 46.0423 30.4388 46.0839 30.397L46.0839 30.397Z"   fill="#1A75FF" >
</path>
</svg>
