<svg xmlns="http://www.w3.org/2000/svg" xmlns:xlink="http://www.w3.org/1999/xlink" width="51.694061279296875" height="45.74212646484375" viewBox="0 0 51.694061279296875 45.74212646484375" fill="none">
<path d="M30.8065 12.9615C30.8065 12.0417 30.0988 11.2054 29.1829 11.2054L9.65859 11.2054C8.74274 11.2054 8.03503 12.0417 8.03503 12.9615C8.03503 13.8814 8.74274 14.7176 9.65859 14.7176L29.1829 14.7176C30.0988 14.7176 30.8065 13.8814 30.8065 12.9615ZM9.65859 21.4493C8.74274 21.4493 8.03503 22.3273 8.03503 23.2472C8.03503 24.167 8.74274 25.0451 9.65859 25.0451L22.6887 25.0451C23.6045 25.0451 24.3123 24.167 24.3123 23.2472C24.3123 22.3273 23.6045 21.4493 22.6887 21.4493L9.65859 21.4493ZM19.3999 31.7349L9.65859 31.7349C8.74274 31.7349 8.03503 32.613 8.03503 33.5328C8.03503 34.4527 8.74274 35.3307 9.65859 35.3307L19.4416 35.3307C20.3574 35.3307 21.0651 34.4527 21.0651 33.5328C21.0235 32.613 20.3158 31.7349 19.3999 31.7349Z"   fill="#333333" >
</path>
<path d="M16.7352 42.5226L6.24449 42.5226C4.62092 42.5226 3.28876 41.2264 3.28876 39.6794L3.28876 6.10452C3.28876 4.51568 4.62092 3.26132 6.24449 3.26132L36.1348 3.26132C37.7583 3.26132 39.0905 4.55749 39.0905 6.10452L39.0905 13.0453C39.0905 13.9651 39.7982 14.6759 40.7141 14.6759C41.6299 14.6759 42.3376 13.9651 42.3376 13.0453L42.3376 6.10452C42.3376 2.71777 39.5484 0 36.0931 0L6.24449 0C2.78921 0 0 2.75958 0 6.10452L0 39.6376C0 43.0244 2.78921 45.7421 6.24449 45.7421L16.7352 45.7421C17.6511 45.7421 18.3588 45.0313 18.3588 44.1115C18.3588 43.2752 17.6511 42.5226 16.7352 42.5226Z"   fill="#333333" >
</path>
<path d="M37.4671 37.2961L35.7187 37.2961C35.5938 37.2961 35.4689 37.338 35.344 37.4634C35.2607 37.5888 35.1775 37.7561 35.1775 37.9233L35.1775 38.9686C35.1775 39.1358 35.2191 39.3031 35.344 39.4285C35.4273 39.554 35.5521 39.5958 35.7187 39.5958L37.4671 39.5958C37.5919 39.5958 37.7168 39.554 37.8417 39.4285C37.925 39.3031 38.0082 39.1358 38.0082 38.9686L38.0082 37.9233C38.0082 37.7561 37.9666 37.5888 37.8417 37.4634C37.7168 37.338 37.5919 37.2961 37.4671 37.2961Z"   fill="#1A75FF" >
</path>
<path d="M35.344 35.4981C35.4273 35.5817 35.5521 35.6235 35.7187 35.6235L37.4671 35.6235C37.5919 35.6235 37.7168 35.5817 37.8417 35.4981C37.925 35.4145 38.0082 35.289 38.0082 35.2054L38.0082 32.195L38.0082 27.5539C38.0082 27.4284 37.9666 27.3448 37.8417 27.2612C37.7585 27.1776 37.6336 27.1357 37.4671 27.1357L35.7187 27.1357C35.5938 27.1357 35.4689 27.1776 35.344 27.2612C35.2607 27.3448 35.1775 27.4702 35.1775 27.5539L35.1775 32.2368L35.1775 35.2054C35.1775 35.3308 35.2607 35.4145 35.344 35.4981Z"   fill="#1A75FF" >
</path>
<path d="M51.1632 38.6757L39.9647 19.1496C38.5909 16.7664 34.761 16.7664 33.3872 19.1496L22.1471 38.6757C21.4811 39.8883 21.4811 41.3099 22.1471 42.4806C22.8548 43.6931 24.0621 44.4039 25.4359 44.4039L47.8744 44.4039C49.2482 44.4039 50.4971 43.6931 51.1632 42.4806C51.8709 41.268 51.8709 39.8465 51.1632 38.6757ZM48.3323 40.8499C48.2907 40.9336 48.1242 41.1008 47.8744 41.1008L25.4359 41.1008C25.1861 41.1008 25.0196 40.9336 24.978 40.8499C24.9363 40.7663 24.8531 40.5572 24.978 40.3064L36.218 20.7803C36.5094 20.3204 36.8841 20.3204 37.1339 20.7803L48.3323 40.3064C48.4989 40.5154 48.4156 40.7245 48.3323 40.8499Z"   fill="#1A75FF" >
</path>
</svg>
