<svg xmlns="http://www.w3.org/2000/svg" xmlns:xlink="http://www.w3.org/1999/xlink" width="44.96064758300781" height="45.15673828125" viewBox="0 0 44.96064758300781 45.15673828125" fill="none">
<path d="M26.6432 13.3798L4.9956 13.3798C2.24802 13.3798 0 15.6376 0 18.3972L0 40.1393C0 42.8989 2.24802 45.1567 4.9956 45.1567L26.6432 45.1567C29.3908 45.1567 31.6388 42.8989 31.6388 40.1393L31.6388 18.3972C31.6388 15.6376 29.3908 13.3798 26.6432 13.3798ZM28.3084 40.1393C28.3084 41.0592 27.5591 41.8118 26.6432 41.8118L4.9956 41.8118C4.07974 41.8118 3.3304 41.0592 3.3304 40.1393L3.3304 18.3972C3.3304 17.4773 4.07974 16.7247 4.9956 16.7247L26.6432 16.7247C27.5591 16.7247 28.3084 17.4773 28.3084 18.3972L28.3084 40.1393Z"   fill="#333333" >
</path>
<path d="M33.3038 6.69006L11.6562 6.69006C10.7403 6.69006 9.99097 7.44268 9.99097 8.36254C9.99097 9.2824 10.7403 10.035 11.6562 10.035L33.3038 10.035C34.2196 10.035 34.969 10.7876 34.969 11.7075L34.969 33.4496C34.969 34.3695 35.7183 35.1221 36.6342 35.1221C37.55 35.1221 38.2994 34.3695 38.2994 33.4496L38.2994 11.7075C38.2994 8.9479 36.0513 6.69006 33.3038 6.69006Z"   fill="#333333" >
</path>
<path d="M23.3122 35.1221L8.32536 35.1221C7.4095 35.1221 6.66016 35.8747 6.66016 36.7945C6.66016 37.7144 7.4095 38.467 8.32536 38.467L23.3122 38.467C24.228 38.467 24.9774 37.7144 24.9774 36.7945C24.9774 35.8747 24.228 35.1221 23.3122 35.1221Z"   fill="#1A75FF" >
</path>
<path d="M39.9649 0L18.3173 0C17.4014 0 16.6521 0.752612 16.6521 1.67247C16.6521 2.59233 17.4014 3.34494 18.3173 3.34494L39.9649 3.34494C40.8808 3.34494 41.6301 4.09756 41.6301 5.01742L41.6301 26.7596C41.6301 27.6794 42.3794 28.432 43.2953 28.432C44.2112 28.432 44.9605 27.6794 44.9605 26.7596L44.9605 5.01742C44.9605 2.25784 42.7125 0 39.9649 0Z"   fill="#333333" >
</path>
</svg>
