<svg xmlns="http://www.w3.org/2000/svg" xmlns:xlink="http://www.w3.org/1999/xlink" width="18.5142822265625" height="18" viewBox="0 0 18.5142822265625 18" fill="none">
<path d="M16.676 1.31767e-14L1.8382 1.31767e-14C1.80812 -3.61575e-09 1.77805 0.000744131 1.74801 0.0022324C1.71795 0.00372069 1.68796 0.0059513 1.65802 0.00892427C1.62808 0.0118972 1.59824 0.015609 1.56848 0.0200595C1.53872 0.0245101 1.50909 0.0296938 1.47958 0.0356112C1.45008 0.0415285 1.42073 0.0481721 1.39155 0.055542C1.36237 0.0629119 1.33338 0.0709991 1.3046 0.0798038C1.27581 0.0886085 1.24725 0.0981199 1.21893 0.108338C1.1906 0.118557 1.16254 0.129469 1.13475 0.141076C1.10696 0.152684 1.07946 0.164972 1.05227 0.17794C1.02507 0.190907 0.998207 0.204541 0.971677 0.218839C0.945145 0.233137 0.918978 0.248082 0.893174 0.263675C0.867371 0.279269 0.841962 0.295492 0.816949 0.312342C0.791935 0.329194 0.767347 0.346653 0.743183 0.364721C0.719021 0.38279 0.695311 0.401444 0.672057 0.420687C0.648801 0.439929 0.62603 0.459735 0.60374 0.480104C0.58145 0.500472 0.559667 0.521381 0.538395 0.542828C0.517123 0.564275 0.496385 0.586236 0.476183 0.608709C0.45598 0.631183 0.436337 0.654144 0.417251 0.677591C0.398165 0.701037 0.379664 0.724941 0.361743 0.749303C0.343822 0.773664 0.326506 0.798456 0.309791 0.823676C0.293078 0.848895 0.276988 0.874513 0.261522 0.900529C0.246056 0.926545 0.231233 0.952928 0.217052 0.979678C0.20287 1.00643 0.189348 1.03351 0.176487 1.06093C0.163624 1.08835 0.151437 1.11607 0.139924 1.14409C0.128412 1.17211 0.117588 1.2004 0.107453 1.22896C0.0973187 1.25752 0.0878848 1.28631 0.079152 1.31534C0.0704192 1.34436 0.0623981 1.37359 0.0550885 1.40301C0.0477787 1.43243 0.0411893 1.46202 0.0353203 1.49176C0.0294513 1.52151 0.0243099 1.55139 0.0198956 1.58139C0.0154815 1.6114 0.0118001 1.64149 0.00885142 1.67167C0.00590273 1.70186 0.00369032 1.7321 0.00221419 1.7624C0.000738063 1.79269 0 1.82301 0 1.85333L0 12.8133C0 12.8437 0.000738063 12.874 0.00221419 12.9043C0.00369032 12.9346 0.00590272 12.9648 0.00885141 12.995C0.0118001 13.0252 0.0154815 13.0553 0.0198956 13.0853C0.0243099 13.1153 0.0294513 13.1452 0.0353203 13.1749C0.0411893 13.2047 0.0477787 13.2342 0.0550883 13.2636C0.0623981 13.2931 0.0704192 13.3223 0.079152 13.3513C0.0878848 13.3803 0.0973185 13.4091 0.107453 13.4377C0.117588 13.4663 0.128412 13.4946 0.139924 13.5226C0.151437 13.5506 0.163624 13.5783 0.176487 13.6057C0.189348 13.6332 0.20287 13.6602 0.217052 13.687C0.231233 13.7137 0.246056 13.7401 0.261522 13.7661C0.276988 13.7921 0.293078 13.8178 0.309791 13.843C0.326506 13.8682 0.343822 13.893 0.361743 13.9174C0.379664 13.9417 0.398165 13.9656 0.417251 13.9891C0.436337 14.0125 0.45598 14.0355 0.476183 14.0579C0.496385 14.0804 0.517123 14.1024 0.538395 14.1238C0.559667 14.1453 0.58145 14.1662 0.60374 14.1865C0.62603 14.2069 0.648801 14.2267 0.672057 14.246C0.695311 14.2652 0.719021 14.2839 0.743183 14.3019C0.767346 14.32 0.791935 14.3375 0.816949 14.3543C0.841962 14.3712 0.867371 14.3874 0.893174 14.403C0.918978 14.4186 0.945145 14.4335 0.971677 14.4478C0.998207 14.4621 1.02507 14.4758 1.05227 14.4887C1.07946 14.5017 1.10696 14.514 1.13475 14.5256C1.16254 14.5372 1.1906 14.5481 1.21893 14.5583C1.24725 14.5685 1.27581 14.578 1.3046 14.5869C1.33338 14.5957 1.36237 14.6037 1.39155 14.6111C1.42073 14.6185 1.45008 14.6251 1.47958 14.631C1.50909 14.637 1.53872 14.6422 1.56848 14.6466C1.59824 14.6511 1.62808 14.6548 1.65802 14.6577C1.68796 14.6607 1.71795 14.6629 1.74801 14.6644C1.77805 14.6659 1.80812 14.6667 1.8382 14.6667L16.676 14.6667C16.7061 14.6667 16.7362 14.6659 16.7662 14.6644C16.7963 14.6629 16.8263 14.6607 16.8562 14.6577C16.8861 14.6548 16.916 14.6511 16.9457 14.6466C16.9755 14.6422 17.0051 14.637 17.0346 14.631C17.0641 14.6251 17.0935 14.6185 17.1227 14.6111C17.1518 14.6037 17.1808 14.5957 17.2096 14.5869C17.2384 14.578 17.267 14.5685 17.2953 14.5583C17.3236 14.5481 17.3517 14.5372 17.3795 14.5256C17.4073 14.514 17.4347 14.5017 17.4619 14.4887C17.4891 14.4758 17.516 14.4621 17.5425 14.4478C17.5692 14.4335 17.5953 14.4186 17.6211 14.403C17.6469 14.3874 17.6724 14.3712 17.6973 14.3543C17.7222 14.3375 17.7468 14.32 17.771 14.3019C17.7953 14.2839 17.819 14.2652 17.8422 14.246C17.8654 14.2267 17.8882 14.2069 17.9105 14.1865C17.9327 14.1662 17.9545 14.1453 17.9759 14.1238C17.9972 14.1024 18.0179 14.0804 18.038 14.0579C18.0582 14.0355 18.0779 14.0125 18.0969 13.9891C18.1161 13.9656 18.1346 13.9417 18.1525 13.9174C18.1705 13.893 18.1877 13.8682 18.2045 13.843C18.2212 13.8178 18.2373 13.7921 18.2528 13.7661C18.2683 13.7401 18.2831 13.7137 18.2972 13.687C18.3113 13.6602 18.3249 13.6332 18.3377 13.6057C18.3506 13.5783 18.3628 13.5506 18.3743 13.5226C18.3858 13.4946 18.3966 13.4663 18.4067 13.4377C18.4168 13.4091 18.4262 13.3803 18.4351 13.3513C18.4438 13.3223 18.4519 13.2931 18.4592 13.2636C18.4665 13.2342 18.4731 13.2047 18.4789 13.1749C18.4848 13.1452 18.4899 13.1153 18.4942 13.0853C18.4986 13.0553 18.5024 13.0252 18.5054 12.995C18.5084 12.9648 18.5105 12.9346 18.512 12.9043C18.5136 12.874 18.5143 12.8437 18.5143 12.8133L18.5143 1.85333C18.5143 1.82301 18.5136 1.79269 18.512 1.7624C18.5105 1.7321 18.5084 1.70186 18.5054 1.67167C18.5024 1.64149 18.4986 1.6114 18.4942 1.58139C18.4899 1.55139 18.4848 1.52151 18.4789 1.49176C18.4731 1.46202 18.4665 1.43243 18.4592 1.40301C18.4519 1.37359 18.4438 1.34436 18.4351 1.31534C18.4262 1.28631 18.4168 1.25752 18.4067 1.22896C18.3966 1.2004 18.3858 1.17211 18.3743 1.14409C18.3628 1.11607 18.3506 1.08835 18.3377 1.06093C18.3249 1.03351 18.3113 1.00643 18.2972 0.979678C18.2831 0.952928 18.2683 0.926545 18.2528 0.900529C18.2373 0.874513 18.2212 0.848895 18.2045 0.823676C18.1877 0.798456 18.1705 0.773664 18.1525 0.749303C18.1346 0.724941 18.1161 0.701037 18.0969 0.677591C18.0779 0.654144 18.0582 0.631185 18.038 0.608711C18.0179 0.586237 17.9972 0.564275 17.9759 0.542828C17.9545 0.521381 17.9327 0.500472 17.9105 0.480104C17.8882 0.459735 17.8654 0.439929 17.8422 0.420687C17.819 0.401444 17.7953 0.38279 17.771 0.364721C17.7468 0.346653 17.7222 0.329194 17.6973 0.312342C17.6724 0.295492 17.6469 0.279269 17.6211 0.263675C17.5953 0.248082 17.5692 0.233137 17.5425 0.218839C17.516 0.204541 17.4891 0.190907 17.4619 0.17794C17.4347 0.164972 17.4073 0.152684 17.3795 0.141076C17.3517 0.129469 17.3236 0.118557 17.2953 0.108338C17.267 0.0981199 17.2384 0.0886085 17.2096 0.0798038C17.1808 0.0709991 17.1518 0.0629119 17.1227 0.055542C17.0935 0.0481721 17.0641 0.0415285 17.0346 0.0356112C17.0051 0.0296938 16.9755 0.0245101 16.9457 0.0200595C16.916 0.015609 16.8861 0.0118973 16.8562 0.00892429C16.8263 0.00595132 16.7963 0.00372071 16.7662 0.00223242C16.7362 0.00074414 16.7061 1.31767e-14 16.676 1.31767e-14ZM1.32245 1.85333C1.32265 1.84488 1.32306 1.83644 1.32367 1.828C1.32427 1.81958 1.32507 1.81116 1.32607 1.80278C1.32708 1.79437 1.32827 1.78601 1.32967 1.77768C1.33107 1.76934 1.33266 1.76105 1.33445 1.75278C1.33624 1.74452 1.33822 1.73631 1.34039 1.72815C1.34257 1.71998 1.34493 1.71188 1.34749 1.70382C1.35005 1.69577 1.35279 1.68779 1.35573 1.67987C1.35866 1.67195 1.36178 1.66411 1.36509 1.65634C1.36839 1.64857 1.37188 1.64088 1.37554 1.63328C1.37921 1.62567 1.38305 1.61816 1.38707 1.61075C1.39109 1.60333 1.39529 1.59601 1.39965 1.58879C1.40402 1.58157 1.40855 1.57447 1.41325 1.56747C1.41795 1.56047 1.42282 1.55358 1.42784 1.54682C1.43287 1.54005 1.43805 1.53341 1.44339 1.52689C1.44873 1.52037 1.45422 1.51398 1.45986 1.50773C1.4655 1.50147 1.47129 1.49536 1.47721 1.48938C1.48314 1.4834 1.48921 1.47757 1.49541 1.47188C1.50162 1.4662 1.50795 1.46066 1.51442 1.45528C1.52088 1.44989 1.52747 1.44467 1.53418 1.4396C1.54089 1.43453 1.54772 1.42963 1.55466 1.42489C1.56161 1.42015 1.56866 1.41558 1.57582 1.41118C1.58297 1.40678 1.59023 1.40255 1.59759 1.39849C1.60495 1.39444 1.6124 1.39057 1.61994 1.38687C1.62748 1.38317 1.6351 1.37966 1.64281 1.37633C1.65051 1.373 1.6583 1.36985 1.66615 1.36689C1.674 1.36393 1.68192 1.36117 1.68991 1.35859C1.69789 1.35601 1.70594 1.35362 1.71403 1.35143C1.72213 1.34924 1.73028 1.34724 1.73847 1.34544C1.74666 1.34363 1.75489 1.34203 1.76316 1.34062C1.77142 1.33921 1.77972 1.338 1.78805 1.33699C1.79637 1.33598 1.80472 1.33517 1.81307 1.33456C1.82144 1.33395 1.82981 1.33355 1.8382 1.33334L16.676 1.33334C16.6844 1.33355 16.6928 1.33395 16.7011 1.33456C16.7095 1.33517 16.7178 1.33598 16.7262 1.33699C16.7345 1.338 16.7428 1.33921 16.7511 1.34062C16.7593 1.34203 16.7676 1.34363 16.7757 1.34544C16.7839 1.34724 16.7921 1.34924 16.8002 1.35143C16.8083 1.35362 16.8163 1.35601 16.8243 1.35859C16.8323 1.36117 16.8402 1.36393 16.8481 1.36689C16.8559 1.36985 16.8637 1.373 16.8714 1.37633C16.8791 1.37966 16.8867 1.38317 16.8943 1.38687C16.9018 1.39057 16.9093 1.39444 16.9166 1.39849C16.924 1.40255 16.9312 1.40678 16.9384 1.41118C16.9456 1.41558 16.9526 1.42015 16.9596 1.42489C16.9665 1.42963 16.9733 1.43453 16.98 1.4396C16.9867 1.44467 16.9933 1.44989 16.9998 1.45528C17.0063 1.46066 17.0126 1.4662 17.0188 1.47188C17.025 1.47757 17.0311 1.4834 17.037 1.48938C17.0429 1.49536 17.0487 1.50147 17.0543 1.50773C17.06 1.51398 17.0655 1.52037 17.0708 1.52689C17.0762 1.53341 17.0813 1.54005 17.0864 1.54682C17.0914 1.55358 17.0963 1.56047 17.101 1.56747C17.1057 1.57447 17.1102 1.58158 17.1146 1.58879C17.1189 1.59601 17.1231 1.60333 17.1271 1.61075C17.1312 1.61816 17.135 1.62567 17.1387 1.63328C17.1423 1.64088 17.1458 1.64857 17.1491 1.65634C17.1524 1.66411 17.1556 1.67195 17.1585 1.67987C17.1614 1.68779 17.1642 1.69577 17.1667 1.70382C17.1693 1.71188 17.1716 1.71998 17.1738 1.72815C17.176 1.73631 17.178 1.74452 17.1798 1.75278C17.1816 1.76105 17.1831 1.76934 17.1846 1.77768C17.1859 1.78601 17.1871 1.79437 17.1881 1.80278C17.1891 1.81116 17.1899 1.81958 17.1905 1.828C17.1912 1.83644 17.1916 1.84488 17.1918 1.85333L17.1918 8L13.6344 8L11.1746 3.04C11.1671 3.02692 11.1592 3.0141 11.1509 3.00154C11.1425 2.98898 11.1338 2.97671 11.1246 2.96474C11.1155 2.95276 11.106 2.94108 11.0961 2.92975C11.0862 2.91839 11.076 2.90737 11.0653 2.8967C11.0547 2.88603 11.0438 2.87571 11.0325 2.86574C11.0212 2.85579 11.0096 2.84623 10.9977 2.83704C10.9858 2.82785 10.9736 2.81906 10.9612 2.81067C10.9487 2.80229 10.936 2.79431 10.923 2.78677C10.91 2.77922 10.8968 2.77211 10.8834 2.76543C10.8699 2.75875 10.8563 2.75252 10.8424 2.74674C10.8286 2.74096 10.8145 2.73565 10.8003 2.7308C10.7861 2.72595 10.7718 2.72157 10.7573 2.71767C10.7428 2.71375 10.7282 2.71032 10.7135 2.70738C10.6988 2.70445 10.6841 2.70199 10.6692 2.70002C10.6543 2.69803 10.6394 2.69655 10.6245 2.69557C10.6095 2.69459 10.5945 2.69409 10.5796 2.69409C10.5646 2.69409 10.5496 2.69459 10.5346 2.69557C10.5197 2.69655 10.5048 2.69803 10.4899 2.70002C10.475 2.70199 10.4602 2.70445 10.4456 2.70738C10.4309 2.71032 10.4163 2.71375 10.4018 2.71767C10.3873 2.72157 10.373 2.72595 10.3588 2.7308C10.3446 2.73565 10.3305 2.74096 10.3167 2.74674C10.3028 2.75252 10.2892 2.75875 10.2757 2.76543C10.2623 2.77211 10.2491 2.77922 10.2361 2.78677C10.2231 2.79431 10.2104 2.80229 10.1979 2.81067C10.1854 2.81906 10.1733 2.82785 10.1614 2.83704C10.1494 2.84623 10.1379 2.85579 10.1266 2.86574C10.1153 2.87571 10.1044 2.88603 10.0938 2.8967C10.0831 2.90737 10.0729 2.91839 10.063 2.92975C10.0531 2.94108 10.0436 2.95276 10.0344 2.96474C10.0253 2.97671 10.0166 2.98898 10.0082 3.00154C9.99987 3.0141 9.99196 3.02692 9.98444 3.04L6.42708 10.24L4.43019 8.20002C4.42283 8.19204 4.41529 8.18425 4.40753 8.17668C4.39977 8.1691 4.39182 8.16172 4.38368 8.15456C4.37554 8.14741 4.36722 8.14046 4.35873 8.13373C4.35024 8.127 4.34157 8.1205 4.33273 8.11422C4.32389 8.10795 4.31491 8.10192 4.30576 8.09612C4.29661 8.09033 4.28732 8.08478 4.27788 8.07947C4.26845 8.07416 4.2589 8.0691 4.24919 8.06428C4.23949 8.05948 4.22968 8.05493 4.21976 8.05064C4.20984 8.04635 4.19979 8.04233 4.18965 8.03856C4.17952 8.0348 4.16928 8.0313 4.15896 8.02807C4.14864 8.02485 4.13825 8.0219 4.12777 8.01921C4.11729 8.01654 4.10676 8.01413 4.09618 8.012C4.08558 8.00988 4.07493 8.00803 4.06424 8.00647C4.05355 8.0049 4.04283 8.00362 4.03207 8.00262C4.02132 8.00162 4.01052 8.00091 3.99973 8.00047C3.98894 8.00003 3.97813 7.99989 3.96734 8.00002L1.32245 8.00002L1.32245 1.85333ZM17.1918 12.8133C17.1918 12.8218 17.1916 12.8303 17.1911 12.8389C17.1907 12.8473 17.1901 12.8558 17.1893 12.8643C17.1885 12.8728 17.1874 12.8812 17.1862 12.8896C17.185 12.8981 17.1835 12.9064 17.1819 12.9148C17.1802 12.9231 17.1784 12.9314 17.1763 12.9397C17.1743 12.9479 17.172 12.9562 17.1696 12.9643C17.1671 12.9724 17.1645 12.9805 17.1616 12.9885C17.1588 12.9965 17.1558 13.0045 17.1525 13.0123C17.1493 13.0202 17.1459 13.028 17.1423 13.0357C17.1386 13.0434 17.1349 13.0509 17.1309 13.0585C17.1269 13.066 17.1227 13.0734 17.1184 13.0807C17.1141 13.088 17.1095 13.0952 17.1049 13.1022C17.1002 13.1093 17.0953 13.1163 17.0903 13.1231C17.0852 13.1299 17.0801 13.1366 17.0747 13.1432C17.0694 13.1498 17.0638 13.1562 17.0582 13.1626C17.0525 13.1689 17.0467 13.175 17.0407 13.181C17.0348 13.1871 17.0287 13.1929 17.0224 13.1986C17.0161 13.2044 17.0097 13.2099 17.0032 13.2153C16.9967 13.2207 16.99 13.2259 16.9833 13.231C16.9765 13.2361 16.9696 13.241 16.9626 13.2457C16.9555 13.2504 16.9484 13.255 16.9412 13.2594C16.9339 13.2637 16.9266 13.2679 16.9191 13.2719C16.9117 13.2759 16.9042 13.2798 16.8965 13.2834C16.8889 13.2871 16.8812 13.2905 16.8734 13.2938C16.8656 13.297 16.8577 13.3001 16.8498 13.3029C16.8418 13.3058 16.8338 13.3085 16.8257 13.3109C16.8177 13.3134 16.8095 13.3157 16.8013 13.3178C16.7932 13.3198 16.7849 13.3217 16.7766 13.3234C16.7684 13.325 16.7601 13.3265 16.7517 13.3277C16.7434 13.329 16.735 13.33 16.7266 13.3308C16.7182 13.3317 16.7098 13.3323 16.7013 13.3327C16.6929 13.3331 16.6845 13.3333 16.676 13.3333L1.8382 13.3333C1.82976 13.3333 1.82132 13.3331 1.81288 13.3327C1.80446 13.3323 1.79604 13.3317 1.78764 13.3308C1.77925 13.33 1.77086 13.329 1.76251 13.3277C1.75416 13.3265 1.74586 13.325 1.73758 13.3234C1.7293 13.3217 1.72107 13.3198 1.71288 13.3178C1.70469 13.3157 1.69656 13.3134 1.68848 13.3109C1.6804 13.3085 1.67239 13.3058 1.66444 13.3029C1.65649 13.3001 1.64862 13.297 1.64082 13.2938C1.63302 13.2905 1.62531 13.2871 1.61768 13.2834C1.61005 13.2798 1.60251 13.2759 1.59507 13.2719C1.58762 13.2679 1.58028 13.2637 1.57304 13.2594C1.5658 13.255 1.55867 13.2504 1.55166 13.2457C1.54464 13.241 1.53774 13.2361 1.53096 13.231C1.52418 13.2259 1.51753 13.2207 1.511 13.2153C1.50448 13.2099 1.49809 13.2044 1.49183 13.1986C1.48558 13.1929 1.47947 13.1871 1.4735 13.181C1.46753 13.175 1.46171 13.1689 1.45604 13.1626C1.45038 13.1562 1.44486 13.1498 1.43951 13.1432C1.43415 13.1366 1.42896 13.1299 1.42394 13.1231C1.41891 13.1163 1.41405 13.1093 1.40936 13.1022C1.40467 13.0952 1.40016 13.088 1.39582 13.0807C1.39148 13.0734 1.38732 13.066 1.38334 13.0585C1.37936 13.0509 1.37557 13.0434 1.37196 13.0357C1.36835 13.028 1.36493 13.0202 1.3617 13.0123C1.35847 13.0045 1.35543 12.9965 1.35259 12.9885C1.34975 12.9805 1.3471 12.9724 1.34465 12.9643C1.3422 12.9561 1.33995 12.9479 1.3379 12.9397C1.33585 12.9314 1.334 12.9231 1.33235 12.9148C1.33071 12.9064 1.32927 12.8981 1.32803 12.8896C1.32679 12.8812 1.32576 12.8728 1.32493 12.8643C1.3241 12.8558 1.32348 12.8473 1.32307 12.8389C1.32265 12.8303 1.32245 12.8218 1.32245 12.8133L1.32245 9.33333L3.68962 9.33333L6.14934 11.8133C6.15702 11.8208 6.16486 11.828 6.17286 11.8351C6.18088 11.8422 6.18906 11.8491 6.19741 11.8557C6.20576 11.8624 6.21425 11.8689 6.22292 11.8751C6.23158 11.8814 6.24037 11.8874 6.24931 11.8933C6.25826 11.8991 6.26734 11.9047 6.27656 11.9101C6.28577 11.9155 6.2951 11.9206 6.30456 11.9255C6.31403 11.9305 6.3236 11.9352 6.3333 11.9396C6.34297 11.9441 6.35277 11.9483 6.36266 11.9523C6.37254 11.9563 6.38253 11.9601 6.39259 11.9636C6.40265 11.9671 6.4128 11.9703 6.42303 11.9733C6.43327 11.9763 6.44355 11.9791 6.45391 11.9816C6.46427 11.9841 6.47467 11.9864 6.48513 11.9884C6.4956 11.9904 6.50611 11.9921 6.51666 11.9936C6.5272 11.9951 6.53777 11.9963 6.54839 11.9973C6.559 11.9982 6.56962 11.999 6.58026 11.9994C6.59091 11.9999 6.60154 12.0001 6.6122 12L6.71799 12C6.73087 11.9977 6.74367 11.9951 6.75638 11.992C6.76911 11.989 6.78173 11.9856 6.79427 11.9819C6.8068 11.9781 6.81922 11.974 6.83152 11.9696C6.84382 11.9651 6.85599 11.9603 6.86801 11.9551C6.88003 11.95 6.8919 11.9445 6.90362 11.9386C6.91533 11.9328 6.92687 11.9266 6.93824 11.9201C6.94961 11.9136 6.96078 11.9068 6.97177 11.8996C6.98275 11.8925 6.99353 11.885 7.00407 11.8773C7.01464 11.8695 7.02498 11.8614 7.03507 11.8531C7.04517 11.8447 7.05504 11.8361 7.06464 11.8271C7.07427 11.8182 7.08363 11.809 7.09271 11.7995C7.1018 11.7901 7.11062 11.7803 7.11918 11.7704C7.12772 11.7604 7.13597 11.7502 7.14393 11.7397C7.1519 11.7293 7.15956 11.7186 7.16693 11.7077C7.17429 11.6968 7.18133 11.6857 7.18808 11.6744C7.19481 11.6631 7.20122 11.6517 7.20731 11.64L10.5795 4.82667L12.6293 8.97333C12.633 8.98003 12.6367 8.98668 12.6406 8.99325C12.6444 8.99982 12.6484 9.00633 12.6525 9.01278C12.6566 9.01921 12.6607 9.02558 12.665 9.03189C12.6693 9.0382 12.6737 9.04442 12.6782 9.05059C12.6827 9.05674 12.6872 9.06282 12.6919 9.06884C12.6966 9.07483 12.7014 9.08075 12.7063 9.08661C12.7112 9.09244 12.7161 9.09821 12.7212 9.10389C12.7263 9.10956 12.7314 9.11517 12.7367 9.12067C12.7419 9.12618 12.7473 9.13159 12.7527 9.13692C12.7581 9.14224 12.7637 9.14748 12.7693 9.15263C12.7749 9.15778 12.7805 9.16283 12.7863 9.16778C12.7921 9.17274 12.7979 9.17759 12.8039 9.18236C12.8098 9.18712 12.8158 9.19178 12.8219 9.19633C12.828 9.2009 12.8341 9.20537 12.8403 9.20971C12.8466 9.21407 12.8529 9.21832 12.8592 9.22247C12.8656 9.2266 12.872 9.23064 12.8785 9.23458C12.885 9.2385 12.8916 9.24233 12.8982 9.24604C12.9048 9.24975 12.9115 9.25335 12.9183 9.25685C12.925 9.26035 12.9318 9.26372 12.9386 9.26698C12.9455 9.27023 12.9524 9.27337 12.9594 9.27642C12.9663 9.27946 12.9733 9.28238 12.9804 9.28517C12.9874 9.28796 12.9945 9.29065 13.0017 9.2932C13.0088 9.29577 13.016 9.29821 13.0232 9.30055C13.0304 9.30287 13.0377 9.30507 13.045 9.30714C13.0523 9.30923 13.0596 9.31119 13.0669 9.31303C13.0743 9.31488 13.0817 9.31658 13.0891 9.31816C13.0965 9.31976 13.1039 9.32122 13.1114 9.32258C13.1189 9.32393 13.1263 9.32514 13.1338 9.32623C13.1413 9.32732 13.1489 9.32829 13.1564 9.32913C13.1639 9.32998 13.1715 9.3307 13.179 9.3313C13.1866 9.33187 13.1941 9.33235 13.2017 9.3327C13.2093 9.33304 13.2168 9.33325 13.2244 9.33333L17.1918 9.33333L17.1918 12.8133ZM13.8857 16.6667L4.62855 16.6667C4.61772 16.6667 4.60691 16.6669 4.5961 16.6675C4.58529 16.668 4.5745 16.6688 4.56374 16.6699C4.55297 16.671 4.54223 16.6723 4.53152 16.6739C4.52082 16.6755 4.51016 16.6774 4.49955 16.6795C4.48893 16.6816 4.47838 16.684 4.46789 16.6867C4.45739 16.6893 4.44696 16.6922 4.43661 16.6954C4.42625 16.6986 4.41598 16.702 4.40578 16.7056C4.3956 16.7093 4.38551 16.7132 4.37552 16.7174C4.36553 16.7216 4.35562 16.726 4.34584 16.7307C4.33606 16.7353 4.32639 16.7402 4.31685 16.7454C4.30731 16.7505 4.2979 16.7559 4.28862 16.7615C4.27933 16.7671 4.2702 16.773 4.2612 16.779C4.2522 16.7851 4.24336 16.7914 4.23466 16.7979C4.22596 16.8044 4.21744 16.8111 4.20909 16.818C4.20072 16.8249 4.19252 16.832 4.1845 16.8394C4.17648 16.8467 4.16866 16.8542 4.161 16.8619C4.15335 16.8697 4.14589 16.8775 4.13862 16.8856C4.13135 16.8937 4.12429 16.902 4.11743 16.9104C4.11056 16.9188 4.1039 16.9274 4.09745 16.9362C4.09102 16.945 4.08478 16.9539 4.07876 16.963C4.07275 16.972 4.06698 16.9812 4.06142 16.9906C4.05585 17 4.05052 17.0095 4.04541 17.0191C4.0403 17.0287 4.03544 17.0384 4.03082 17.0483C4.0262 17.0582 4.0218 17.0681 4.01767 17.0782C4.01354 17.0883 4.00964 17.0985 4.00599 17.1087C4.00235 17.119 3.99895 17.1294 3.99581 17.1398C3.99267 17.1503 3.9898 17.1608 3.98716 17.1714C3.98453 17.1819 3.98216 17.1926 3.98005 17.2033C3.97794 17.214 3.97607 17.2247 3.97449 17.2355C3.9729 17.2463 3.97159 17.2571 3.97053 17.268C3.96947 17.2788 3.96866 17.2897 3.96814 17.3006C3.9676 17.3115 3.96734 17.3224 3.96734 17.3333C3.96734 17.3442 3.9676 17.3551 3.96814 17.366C3.96866 17.3769 3.96947 17.3878 3.97053 17.3987C3.97159 17.4095 3.9729 17.4204 3.97449 17.4312C3.97607 17.4419 3.97794 17.4527 3.98005 17.4634C3.98216 17.4741 3.98453 17.4847 3.98716 17.4953C3.9898 17.5059 3.99267 17.5164 3.99581 17.5268C3.99895 17.5373 4.00235 17.5476 4.00599 17.5579C4.00964 17.5682 4.01352 17.5783 4.01767 17.5885C4.0218 17.5985 4.0262 17.6085 4.03082 17.6184C4.03544 17.6282 4.0403 17.6379 4.04541 17.6476C4.05052 17.6572 4.05584 17.6667 4.0614 17.676C4.06696 17.6854 4.07275 17.6947 4.07876 17.7036C4.08478 17.7128 4.091 17.7217 4.09745 17.7305C4.1039 17.7391 4.11056 17.7478 4.11742 17.7562C4.12429 17.7646 4.13135 17.7729 4.13862 17.781C4.14589 17.7891 4.15335 17.797 4.161 17.8047C4.16866 17.8124 4.17648 17.82 4.1845 17.8272C4.19251 17.8346 4.2007 17.8418 4.20907 17.8487C4.21744 17.8555 4.22596 17.8624 4.23466 17.8689C4.24335 17.8754 4.25219 17.8815 4.26118 17.8877C4.2702 17.8938 4.27933 17.8996 4.28861 17.9051C4.2979 17.9107 4.30731 17.9162 4.31685 17.9212C4.32639 17.9263 4.33605 17.9313 4.34583 17.936C4.35561 17.9408 4.36551 17.9452 4.3755 17.9492C4.38549 17.9534 4.39558 17.9573 4.40578 17.961C4.41597 17.9647 4.42623 17.9682 4.43659 17.9713C4.44695 17.9745 4.45737 17.9773 4.46787 17.98C4.47836 17.9826 4.48891 17.9851 4.49953 17.9872C4.51015 17.9893 4.5208 17.9912 4.5315 17.9928C4.54221 17.9944 4.55295 17.9958 4.56372 17.9968C4.57448 17.9979 4.58527 17.9986 4.59608 17.9991C4.60689 17.9996 4.6177 18 4.62853 18L13.8856 18C13.8965 18 13.9073 17.9996 13.9181 17.9991C13.9289 17.9986 13.9397 17.9979 13.9504 17.9968C13.9612 17.9958 13.972 17.9944 13.9827 17.9928C13.9934 17.9912 14.004 17.9893 14.0146 17.9872C14.0253 17.9851 14.0358 17.9826 14.0463 17.98C14.0568 17.9773 14.0672 17.9745 14.0776 17.9713C14.0879 17.9682 14.0982 17.9647 14.1084 17.961C14.1186 17.9573 14.1287 17.9534 14.1387 17.9492C14.1487 17.9452 14.1586 17.9408 14.1683 17.936C14.1781 17.9313 14.1878 17.9263 14.1973 17.9212C14.2069 17.9162 14.2163 17.9107 14.2256 17.9051C14.2348 17.8996 14.244 17.8938 14.253 17.8877C14.262 17.8815 14.2708 17.8754 14.2795 17.8689C14.2882 17.8624 14.2967 17.8555 14.3051 17.8487C14.3135 17.8418 14.3217 17.8346 14.3297 17.8274C14.3377 17.82 14.3455 17.8124 14.3532 17.8047C14.3608 17.797 14.3683 17.7891 14.3756 17.781C14.3828 17.7729 14.3899 17.7646 14.3968 17.7562C14.4036 17.7478 14.4103 17.7391 14.4167 17.7305C14.4232 17.7217 14.4294 17.7128 14.4354 17.7036C14.4414 17.6947 14.4472 17.6854 14.4528 17.676C14.4583 17.6667 14.4637 17.6572 14.4688 17.6476C14.4739 17.6379 14.4788 17.6282 14.4834 17.6184C14.488 17.6085 14.4924 17.5985 14.4965 17.5885C14.5007 17.5783 14.5046 17.5682 14.5082 17.5579C14.5119 17.5476 14.5153 17.5373 14.5184 17.5268C14.5215 17.5164 14.5244 17.5059 14.527 17.4953C14.5297 17.4847 14.532 17.4741 14.5341 17.4634C14.5363 17.4527 14.5381 17.4419 14.5397 17.4312C14.5413 17.4204 14.5426 17.4095 14.5437 17.3987C14.5447 17.3878 14.5455 17.3769 14.5461 17.366C14.5466 17.3551 14.5469 17.3442 14.5469 17.3333C14.5469 17.3224 14.5466 17.3115 14.5461 17.3006C14.5455 17.2897 14.5447 17.2788 14.5437 17.268C14.5426 17.2571 14.5413 17.2463 14.5397 17.2355C14.5381 17.2247 14.5363 17.214 14.5341 17.2033C14.532 17.1926 14.5297 17.1819 14.527 17.1714C14.5244 17.1608 14.5215 17.1503 14.5184 17.1398C14.5153 17.1294 14.5119 17.119 14.5082 17.1087C14.5046 17.0985 14.5007 17.0883 14.4965 17.0782C14.4924 17.0681 14.488 17.0581 14.4834 17.0483C14.4788 17.0384 14.4739 17.0287 14.4688 17.0191C14.4637 17.0095 14.4583 17 14.4528 16.9906C14.4472 16.9812 14.4414 16.972 14.4354 16.9629C14.4294 16.9539 14.4232 16.945 14.4167 16.9362C14.4103 16.9274 14.4036 16.9188 14.3968 16.9104C14.3899 16.902 14.3828 16.8937 14.3756 16.8856C14.3683 16.8775 14.3608 16.8696 14.3532 16.8619C14.3455 16.8542 14.3377 16.8467 14.3297 16.8394C14.3217 16.832 14.3135 16.8249 14.3051 16.818C14.2967 16.8111 14.2882 16.8044 14.2795 16.7978C14.2708 16.7914 14.262 16.7851 14.253 16.779C14.244 16.773 14.2348 16.7671 14.2256 16.7615C14.2163 16.7559 14.2069 16.7505 14.1973 16.7454C14.1878 16.7402 14.1781 16.7353 14.1683 16.7307C14.1586 16.726 14.1487 16.7216 14.1387 16.7174C14.1287 16.7132 14.1186 16.7093 14.1084 16.7056C14.0982 16.702 14.0879 16.6985 14.0776 16.6954C14.0672 16.6922 14.0568 16.6893 14.0463 16.6866C14.0358 16.684 14.0253 16.6816 14.0146 16.6795C14.004 16.6774 13.9934 16.6755 13.9827 16.6739C13.972 16.6723 13.9612 16.671 13.9504 16.6699C13.9397 16.6688 13.9289 16.668 13.9181 16.6675C13.9073 16.6669 13.8965 16.6667 13.8856 16.6667L13.8857 16.6667Z"   fill="#333333" >
</path>
</svg>
