<svg xmlns="http://www.w3.org/2000/svg" xmlns:xlink="http://www.w3.org/1999/xlink" width="20" height="19.99005126953125" viewBox="0 0 20 19.99005126953125" fill="none">
<path d="M19.61 8.17L16.49 6.92C16.17 6.78 15.81 6.93 15.67 7.25C15.53 7.57 15.68 7.93 16 8.07C16.01 8.07 16.02 8.08 16.02 8.08L18.75 9.18L18.75 18.37L15 16.49L15 11.25C15 10.9 14.72 10.63 14.38 10.63C14.04 10.63 13.76 10.91 13.76 11.25L13.76 16.51L10.62 18.3L10.62 15.63C10.62 15.28 10.34 15.01 10 15.01C9.65 15.01 9.38 15.29 9.38 15.63L9.38 18.3L6.26 16.51L6.26 11.25C6.26 10.9 5.98 10.63 5.64 10.63C5.3 10.63 5 10.9 5 11.25L5 16.49L1.25 18.37L1.25 9.17L3.98 8.08C4.3 7.96 4.47 7.6 4.34 7.27C4.22 6.95 3.86 6.78 3.53 6.91C3.52 6.91 3.51 6.92 3.51 6.92L0.39 8.17C0.16 8.26 0 8.49 0 8.75L0 19.37C0 19.7199 0.28 19.99 0.63 19.99C0.73 19.99 0.82 19.9699 0.91 19.9199L5.61 17.57L9.69 19.9C9.71 19.91 9.73 19.9199 9.76 19.9301C9.79 19.94 9.82 19.95 9.84 19.96C9.94 19.99 10.06 19.99 10.16 19.96C10.19 19.95 10.22 19.94 10.24 19.9301C10.26 19.9199 10.28 19.91 10.31 19.9L14.39 17.57L19.09 19.9199C19.4 20.0699 19.7699 19.95 19.9301 19.64C19.9699 19.55 20 19.46 20 19.36L20 8.75C20 8.49 19.84 8.26 19.61 8.17ZM10 13.75C10.19 13.75 10.38 13.66 10.5 13.51C10.96 12.91 15 7.56 15 5C15 2.24 12.76 0 10 0C7.24 0 5 2.24 5 5C5 7.55 9.04 12.9 9.5 13.51C9.62 13.66 9.81 13.75 10 13.75ZM10 1.25C12.07 1.25 13.75 2.93 13.75 5C13.75 6.59 11.38 10.19 10 12.08C8.62 10.19 6.25 6.59 6.25 5C6.25 2.93 7.93 1.25 10 1.25ZM8.75 5C8.75 4.31 9.31 3.75 10 3.75C10.69 3.75 11.25 4.31 11.25 5C11.25 5.69 10.69 6.25 10 6.25C9.31 6.25 8.75 5.69 8.75 5Z"   fill="#333333" >
</path>
</svg>
