<svg xmlns="http://www.w3.org/2000/svg" xmlns:xlink="http://www.w3.org/1999/xlink" width="21.33331298828125" height="16.00006103515625" viewBox="0 0 21.33331298828125 16.00006103515625" fill="none">
<path d="M7.39334 15.7944L5.31393 15.7944C2.38788 15.7944 0 13.5865 0 10.8327C6.70732e-05 10.7562 0.00199909 10.6798 0.00579602 10.6035C0.00959297 10.5271 0.0152508 10.4509 0.0227696 10.3748C0.0302884 10.2987 0.0396603 10.2228 0.050885 10.1471C0.0621099 10.0714 0.0751759 9.99596 0.0900831 9.92083C0.10499 9.84569 0.121723 9.77092 0.140281 9.6965C0.158839 9.62208 0.179202 9.54811 0.201372 9.47458C0.223541 9.40105 0.247495 9.32804 0.27323 9.25553C0.298964 9.18303 0.326454 9.11113 0.3557 9.03982C0.384946 8.96851 0.415917 8.89787 0.44861 8.82789C0.481304 8.75793 0.51569 8.68869 0.551764 8.6202C0.587839 8.55171 0.625566 8.48405 0.664945 8.41719C0.704324 8.35033 0.745312 8.28437 0.787912 8.21929C0.830512 8.15419 0.874677 8.09007 0.920408 8.0269C0.96614 7.96373 1.01339 7.90157 1.06215 7.84043C1.11092 7.7793 1.16115 7.71924 1.21285 7.66028C1.26455 7.60131 1.31765 7.54351 1.37217 7.48684C1.4267 7.43016 1.48257 7.3747 1.5398 7.32045C1.59703 7.2662 1.65555 7.21321 1.71536 7.16148C1.77519 7.10976 1.83623 7.05934 1.89851 7.01026C1.96079 6.96118 2.02422 6.91346 2.08882 6.86712C2.15344 6.82078 2.21913 6.77584 2.28594 6.73234C2.35274 6.68884 2.42056 6.6468 2.48941 6.60622C2.55826 6.56566 2.62808 6.52659 2.69883 6.48903C2.76959 6.45146 2.84123 6.41546 2.91375 6.381C2.98627 6.34653 3.0596 6.31367 3.13371 6.28236C3.20783 6.25106 3.28268 6.22139 3.35825 6.19334C3.43383 6.16527 3.51005 6.13886 3.5869 6.1141C3.66376 6.08932 3.74119 6.06624 3.81918 6.04483C3.89718 6.02341 3.97565 6.00367 4.05459 5.98565C4.13354 5.96763 4.2129 5.9513 4.29265 5.9367C4.37239 5.9221 4.45245 5.90923 4.53283 5.89809C4.61321 5.88695 4.69381 5.87756 4.77465 5.86991C5.19853 2.53566 8.23997 0 11.8617 0C11.9174 1.31416e-05 11.9731 0.000644267 12.0288 0.00189338C12.0844 0.0031425 12.1401 0.00500923 12.1957 0.00749363C12.2513 0.009978 12.3069 0.0130793 12.3624 0.0167977C12.418 0.0205159 12.4735 0.0248501 12.5289 0.0298002C12.5843 0.0347503 12.6397 0.040315 12.695 0.0464941C12.7503 0.0526733 12.8055 0.0594652 12.8606 0.0668699C12.9157 0.0742747 12.9708 0.0822903 13.0257 0.0909166C13.0806 0.0995429 13.1354 0.108778 13.1901 0.11862C13.2448 0.128463 13.2994 0.138912 13.3538 0.149966C13.4082 0.161021 13.4625 0.172677 13.5167 0.184937C13.5708 0.197196 13.6248 0.210054 13.6786 0.223511C13.7324 0.236969 13.786 0.251021 13.8395 0.26567C13.8929 0.280319 13.9462 0.295559 13.9993 0.311389C14.0524 0.32722 14.1053 0.343637 14.1579 0.360642C14.2106 0.377646 14.263 0.395234 14.3153 0.413403C14.3675 0.431572 14.4195 0.450317 14.4712 0.46964C14.523 0.488964 14.5745 0.508859 14.6258 0.529326C14.677 0.549792 14.728 0.570825 14.7787 0.592422C14.8295 0.614021 14.8799 0.63618 14.9301 0.6589C14.9803 0.681618 15.0302 0.70489 15.0797 0.728716C15.1293 0.752542 15.1786 0.776915 15.2276 0.801835C15.2766 0.826756 15.3252 0.852215 15.3736 0.878215C15.4219 0.904217 15.4699 0.93075 15.5176 0.957815C15.5653 0.984882 15.6126 1.01247 15.6596 1.04059C15.7066 1.06871 15.7532 1.09734 15.7995 1.12649C15.8457 1.15564 15.8916 1.18531 15.9371 1.21548C15.9827 1.24565 16.0278 1.27632 16.0726 1.30749C16.1173 1.33866 16.1617 1.37033 16.2056 1.40249C16.2496 1.43464 16.2931 1.46728 16.3363 1.50041C16.3794 1.53353 16.4221 1.56713 16.4644 1.6012C16.5067 1.63529 16.5486 1.66982 16.59 1.70482C16.6314 1.73982 16.6724 1.77528 16.713 1.81118L16.7518 1.84772C16.8295 1.92079 16.8295 1.92079 16.9438 1.99282C16.9506 1.99894 16.9572 2.0052 16.9637 2.01163C16.9701 2.01806 16.9765 2.02463 16.9826 2.03135C16.9887 2.03809 16.9946 2.04495 17.0004 2.05195C17.0061 2.05897 17.0117 2.06611 17.017 2.07337C17.0224 2.08064 17.0276 2.08805 17.0325 2.09557C17.0375 2.10309 17.0423 2.1107 17.0468 2.11845C17.0514 2.1262 17.0557 2.13405 17.0599 2.14201C17.064 2.14995 17.0679 2.15799 17.0716 2.16613C17.0753 2.17427 17.0788 2.18249 17.0821 2.19079C17.0854 2.19909 17.0884 2.20748 17.0912 2.21593C17.094 2.22438 17.0966 2.23289 17.0989 2.24145C17.1013 2.25002 17.1034 2.25865 17.1053 2.26732C17.1072 2.27598 17.1089 2.28469 17.1103 2.29345C17.1117 2.30221 17.1129 2.31099 17.1138 2.3198C17.1148 2.3286 17.1155 2.33743 17.116 2.34627C17.1164 2.35511 17.1167 2.36395 17.1167 2.37281C17.1167 2.38166 17.1164 2.39051 17.116 2.39935C17.1155 2.40819 17.1148 2.41701 17.1138 2.42582C17.1129 2.43463 17.1117 2.4434 17.1103 2.45216C17.1089 2.46092 17.1072 2.46963 17.1053 2.47829C17.1034 2.48697 17.1013 2.4956 17.0989 2.50416C17.0966 2.51272 17.094 2.52124 17.0912 2.52969C17.0884 2.53814 17.0854 2.54652 17.0821 2.55482C17.0788 2.56313 17.0753 2.57135 17.0716 2.57949C17.0679 2.58762 17.064 2.59567 17.0599 2.60361C17.0557 2.61157 17.0514 2.61941 17.0468 2.62716C17.0423 2.63491 17.0375 2.64253 17.0325 2.65005C17.0276 2.65757 17.0224 2.66497 17.017 2.67225C17.0117 2.6795 17.0061 2.68665 17.0004 2.69366C16.9946 2.70066 16.9887 2.70753 16.9826 2.71426C16.9765 2.72098 16.9701 2.72756 16.9637 2.73398C16.9572 2.74041 16.9506 2.74667 16.9438 2.75279C16.9373 2.7592 16.9306 2.76545 16.9238 2.77153C16.9169 2.77762 16.9099 2.78354 16.9028 2.78929C16.8956 2.79505 16.8883 2.80065 16.8809 2.80605C16.8734 2.81146 16.8659 2.8167 16.8581 2.82174C16.8504 2.82678 16.8425 2.83164 16.8345 2.83632C16.8266 2.841 16.8185 2.84547 16.8102 2.84976C16.802 2.85405 16.7936 2.85814 16.7852 2.86204C16.7767 2.86592 16.7682 2.86961 16.7595 2.8731C16.7509 2.87658 16.7422 2.87985 16.7333 2.88294C16.7245 2.886 16.7156 2.88886 16.7066 2.8915C16.6976 2.89414 16.6886 2.89657 16.6795 2.89879C16.6704 2.90099 16.6612 2.903 16.652 2.90478C16.6428 2.90656 16.6335 2.90812 16.6242 2.90946C16.6149 2.9108 16.6056 2.91191 16.5962 2.9128C16.5868 2.9137 16.5775 2.91437 16.5681 2.91481C16.5587 2.91525 16.5493 2.91548 16.5399 2.91548C16.5304 2.91548 16.521 2.91525 16.5116 2.91481C16.5023 2.91437 16.4929 2.9137 16.4835 2.9128C16.4741 2.91191 16.4648 2.9108 16.4555 2.90946C16.4462 2.90812 16.4369 2.90656 16.4277 2.90478C16.4185 2.903 16.4093 2.90101 16.4002 2.89879C16.3911 2.89657 16.3821 2.89414 16.3731 2.8915C16.3641 2.88886 16.3552 2.886 16.3464 2.88294C16.3376 2.87985 16.3288 2.87658 16.3202 2.8731C16.3115 2.86961 16.303 2.86592 16.2945 2.86204C16.2861 2.85814 16.2777 2.85405 16.2695 2.84976C16.2613 2.84547 16.2531 2.841 16.2452 2.83632C16.2372 2.83164 16.2293 2.82678 16.2216 2.82174C16.2139 2.8167 16.2063 2.81146 16.1988 2.80605C16.1914 2.80065 16.1841 2.79507 16.1769 2.78931C16.1698 2.78355 16.1628 2.77762 16.1559 2.77153C16.1491 2.76545 16.1425 2.7592 16.136 2.75279L16.0583 2.68076L15.9806 2.64422L15.9429 2.60873C15.9088 2.57847 15.8744 2.54861 15.8396 2.51912C15.8047 2.48963 15.7695 2.46053 15.734 2.43182C15.6984 2.40313 15.6625 2.37483 15.6263 2.34692C15.59 2.31901 15.5534 2.29153 15.5164 2.26444C15.4795 2.23734 15.4422 2.21066 15.4046 2.18441C15.3669 2.15815 15.329 2.13232 15.2907 2.1069C15.2524 2.08149 15.2138 2.05652 15.1749 2.03197C15.136 2.00742 15.0968 1.9833 15.0573 1.95961C15.0177 1.93595 14.9779 1.9127 14.9378 1.88992C14.8977 1.86713 14.8573 1.84478 14.8167 1.8229C14.776 1.80101 14.7351 1.77957 14.6939 1.7586C14.6527 1.73762 14.6112 1.7171 14.5695 1.69704C14.5278 1.67699 14.4858 1.6574 14.4436 1.63829C14.4014 1.61916 14.359 1.60051 14.3163 1.58234C14.2736 1.56417 14.2307 1.54647 14.1876 1.52925C14.1444 1.51204 14.1011 1.4953 14.0575 1.47905C14.014 1.4628 13.9703 1.44703 13.9263 1.43176C13.8824 1.41648 13.8382 1.40169 13.7939 1.3874C13.7496 1.3731 13.7051 1.3593 13.6604 1.346C13.6158 1.3327 13.5709 1.3199 13.5259 1.30759C13.481 1.29529 13.4358 1.28349 13.3905 1.27219C13.3453 1.26089 13.2998 1.2501 13.2543 1.23981C13.2087 1.22953 13.1631 1.21975 13.1172 1.21048C13.0714 1.20121 13.0255 1.19246 12.9795 1.18421C12.9335 1.17597 12.8874 1.16824 12.8411 1.16102C12.7949 1.1538 12.7486 1.1471 12.7022 1.14092C12.6559 1.13473 12.6094 1.12906 12.5629 1.12391C12.5163 1.11876 12.4698 1.11413 12.4231 1.11002C12.3765 1.1059 12.3298 1.10231 12.283 1.09924C12.2363 1.09617 12.1895 1.09362 12.1427 1.09159C12.0959 1.08956 12.0491 1.08805 12.0023 1.08706C11.9554 1.08607 11.9086 1.08561 11.8617 1.08567C8.66606 1.08567 6.04738 3.44073 5.89203 6.41065C5.89203 6.70086 5.62351 6.91799 5.31504 6.91799C5.2469 6.91771 5.1788 6.91902 5.11071 6.92191C5.04264 6.92479 4.97468 6.92926 4.90684 6.93531C4.83899 6.94135 4.77136 6.94897 4.70392 6.95815C4.63649 6.96733 4.56932 6.97808 4.50245 6.99038C4.43558 7.0027 4.36906 7.01654 4.30291 7.03192C4.23677 7.04732 4.17106 7.06424 4.1058 7.08268C4.04054 7.10113 3.9758 7.12108 3.91159 7.14253C3.84737 7.16398 3.78376 7.18691 3.72075 7.21131C3.65773 7.23573 3.5954 7.26158 3.53375 7.28887C3.47209 7.31618 3.41119 7.3449 3.35104 7.37503C3.2909 7.40516 3.23157 7.43665 3.17309 7.46953C3.11459 7.50242 3.05699 7.53664 3.00028 7.57221C2.94359 7.60777 2.88787 7.64462 2.8331 7.68277C2.77833 7.72092 2.7246 7.76031 2.67189 7.80094C2.6192 7.84159 2.5676 7.88343 2.5171 7.92647C2.4666 7.96952 2.41725 8.01371 2.36907 8.05903C2.32089 8.10436 2.27392 8.15078 2.22817 8.1983C2.18241 8.24581 2.13794 8.29435 2.09474 8.34392C2.05155 8.39351 2.00968 8.44406 1.96913 8.49558C1.92857 8.54711 1.88941 8.59953 1.85159 8.65287C1.8138 8.70623 1.77742 8.76041 1.74247 8.81544C1.70752 8.87046 1.67403 8.92628 1.64201 8.98286C1.60998 9.03945 1.57946 9.09675 1.55044 9.15475C1.52142 9.21275 1.49394 9.27139 1.468 9.33068C1.44206 9.38995 1.41769 9.4498 1.39488 9.51022C1.37208 9.57063 1.35088 9.63154 1.33127 9.69293C1.31167 9.75433 1.29368 9.81615 1.27732 9.87837C1.26096 9.9406 1.24624 10.0032 1.23316 10.0661C1.22008 10.129 1.20866 10.1922 1.1989 10.2556C1.18914 10.3191 1.18104 10.3827 1.17462 10.4465C1.1682 10.5104 1.16345 10.5743 1.16038 10.6383C1.15731 10.7024 1.15592 10.7665 1.15621 10.8306C1.15621 12.9685 3.00483 14.7066 5.31504 14.7066L7.39445 14.7066C7.70292 14.7066 7.97144 14.9603 7.97144 15.2505C7.97144 15.5407 7.70292 15.7933 7.39445 15.7933L7.39334 15.7944Z"   fill="#333333" >
</path>
<path d="M19.5236 7.79476L17.9446 7.79476C17.9256 7.79357 17.9066 7.79176 17.8878 7.78931C17.8689 7.78688 17.8501 7.78382 17.8314 7.78011C17.8128 7.77641 17.7943 7.7721 17.7759 7.76719C17.7577 7.76227 17.7396 7.75674 17.7217 7.75061C17.7038 7.74447 17.6861 7.73775 17.6688 7.73045C17.6513 7.72316 17.6342 7.71528 17.6175 7.70683C17.6006 7.69839 17.5841 7.68939 17.5681 7.67985C17.5519 7.67031 17.5361 7.66024 17.5207 7.64966L15.1717 5.47624L12.361 5.47624C12.3517 5.47601 12.3423 5.47557 12.3329 5.47493C12.3236 5.47428 12.3143 5.47342 12.3049 5.47235C12.2956 5.4713 12.2864 5.47003 12.2771 5.46855C12.2679 5.46707 12.2587 5.46539 12.2495 5.4635C12.2403 5.46161 12.2312 5.45951 12.2222 5.45722C12.2131 5.45492 12.2041 5.45243 12.1952 5.44973C12.1863 5.44703 12.1774 5.44414 12.1687 5.44105C12.1599 5.43795 12.1512 5.43466 12.1426 5.43119C12.1339 5.42771 12.1254 5.42404 12.117 5.42018C12.1085 5.41631 12.1002 5.41226 12.092 5.40802C12.0838 5.40379 12.0757 5.39938 12.0676 5.39478C12.0597 5.39018 12.0518 5.38541 12.044 5.38046C12.0362 5.37551 12.0286 5.37039 12.0211 5.36511C12.0136 5.35981 12.0062 5.35436 11.999 5.34875C11.9918 5.34313 11.9847 5.33735 11.9777 5.33141C11.9708 5.32547 11.964 5.31939 11.9574 5.31316C11.9508 5.30692 11.9443 5.30053 11.938 5.29401C11.9317 5.28747 11.9255 5.28081 11.9196 5.27401C11.9136 5.26721 11.9078 5.26027 11.9022 5.25321C11.8965 5.24616 11.8911 5.23898 11.8858 5.23167C11.8806 5.22437 11.8755 5.21696 11.8706 5.20942C11.8657 5.2019 11.861 5.19426 11.8565 5.18652C11.852 5.17878 11.8477 5.17094 11.8436 5.16301C11.8395 5.15508 11.8356 5.14706 11.8319 5.13896C11.8282 5.13084 11.8247 5.12266 11.8214 5.11439C11.8182 5.10614 11.8151 5.09781 11.8122 5.0894C11.8093 5.08101 11.8067 5.07255 11.8042 5.06402C11.8018 5.05551 11.7996 5.04694 11.7976 5.03832C11.7956 5.0297 11.7938 5.02105 11.7922 5.01235C11.7906 5.00365 11.7893 4.99492 11.7882 4.98617C11.787 4.97741 11.7861 4.96862 11.7854 4.95983C11.7847 4.95103 11.7843 4.94222 11.784 4.9334C11.784 4.6432 12.0526 4.38953 12.361 4.38953L15.4025 4.38953C15.5578 4.38953 15.7109 4.4626 15.8263 4.53359L18.1754 6.70805L19.5236 6.70805C19.831 6.70805 20.1006 6.96172 20.1006 7.25088C20.1006 7.54109 19.831 7.79372 19.5236 7.79372L19.5236 7.79476ZM10.9352 15.5646C10.9258 15.5644 10.9164 15.5639 10.9071 15.5633C10.8977 15.5626 10.8884 15.5618 10.8791 15.5607C10.8698 15.5596 10.8605 15.5584 10.8513 15.5569C10.842 15.5554 10.8328 15.5537 10.8237 15.5518C10.8145 15.55 10.8054 15.5479 10.7963 15.5456C10.7873 15.5433 10.7783 15.5408 10.7694 15.5381C10.7604 15.5354 10.7516 15.5325 10.7428 15.5294C10.734 15.5263 10.7253 15.523 10.7167 15.5195C10.7081 15.5161 10.6996 15.5124 10.6911 15.5085C10.6827 15.5047 10.6744 15.5006 10.6661 15.4964C10.6579 15.4921 10.6498 15.4877 10.6418 15.4831C10.6338 15.4785 10.6259 15.4737 10.6181 15.4688C10.6104 15.4639 10.6027 15.4587 10.5952 15.4535C10.5877 15.4482 10.5804 15.4427 10.5731 15.4371C10.5659 15.4315 10.5588 15.4257 10.5519 15.4198C10.5449 15.4138 10.5382 15.4077 10.5315 15.4015C10.5249 15.3953 10.5184 15.3889 10.5121 15.3824C10.5058 15.3758 10.4997 15.3692 10.4937 15.3624C10.4877 15.3556 10.4819 15.3486 10.4763 15.3416C10.4707 15.3345 10.4652 15.3273 10.46 15.32C10.4547 15.3127 10.4497 15.3053 10.4448 15.2978C10.4399 15.2902 10.4352 15.2826 10.4307 15.2749C10.4262 15.2671 10.4219 15.2593 10.4178 15.2513C10.4137 15.2434 10.4098 15.2354 10.4061 15.2273C10.4024 15.2192 10.3989 15.211 10.3956 15.2027C10.3923 15.1945 10.3892 15.1861 10.3864 15.1777C10.3835 15.1693 10.3808 15.1609 10.3784 15.1524C10.376 15.1439 10.3737 15.1353 10.3717 15.1267C10.3697 15.118 10.3679 15.1094 10.3663 15.1007C10.3648 15.092 10.3634 15.0833 10.3623 15.0745C10.3612 15.0658 10.3603 15.057 10.3596 15.0482C10.3589 15.0394 10.3584 15.0306 10.3582 15.0217C10.3582 14.7315 10.6278 14.4789 10.9352 14.4789L12.4764 14.4789L15.3259 11.8336C15.333 11.8275 15.3402 11.8214 15.3476 11.8156C15.355 11.8098 15.3625 11.8041 15.3702 11.7986C15.3779 11.7931 15.3858 11.7878 15.3937 11.7827C15.4017 11.7776 15.4098 11.7726 15.418 11.7679C15.4263 11.7632 15.4346 11.7586 15.4431 11.7543C15.4516 11.7499 15.4602 11.7458 15.4689 11.7418C15.4776 11.7379 15.4864 11.7342 15.4953 11.7306C15.5042 11.7271 15.5131 11.7238 15.5222 11.7207C15.5313 11.7176 15.5404 11.7147 15.5497 11.712C15.5589 11.7093 15.5682 11.7069 15.5775 11.7046C15.5869 11.7024 15.5963 11.7004 15.6058 11.6986C15.6152 11.6968 15.6247 11.6952 15.6343 11.6939C15.6438 11.6925 15.6534 11.6914 15.663 11.6905C15.6726 11.6896 15.6823 11.6889 15.6919 11.6885C15.7015 11.6881 15.7112 11.6878 15.7208 11.6878C15.7305 11.6878 15.7401 11.6881 15.7498 11.6885L19.6002 11.6885C19.9086 11.6885 20.1772 11.9422 20.1772 12.2314C20.1772 12.5216 19.8698 12.7398 19.5614 12.7398L15.9806 12.7398L13.1311 15.384C13.1243 15.3908 13.1172 15.3974 13.1101 15.4039C13.1029 15.4103 13.0955 15.4166 13.088 15.4227C13.0805 15.4289 13.0728 15.4348 13.065 15.4406C13.0572 15.4464 13.0492 15.452 13.0412 15.4574C13.0331 15.4628 13.0248 15.4681 13.0164 15.4731C13.0081 15.4781 12.9996 15.483 12.991 15.4877C12.9824 15.4923 12.9736 15.4968 12.9648 15.5011C12.9559 15.5053 12.947 15.5094 12.9379 15.5133C12.9289 15.5171 12.9197 15.5208 12.9105 15.5242C12.9012 15.5276 12.8919 15.5309 12.8825 15.5339C12.8731 15.5369 12.8636 15.5397 12.8541 15.5423C12.8445 15.5449 12.8349 15.5473 12.8252 15.5494C12.8155 15.5516 12.8058 15.5535 12.7961 15.5552C12.7863 15.5569 12.7765 15.5584 12.7666 15.5597C12.7568 15.5609 12.7469 15.562 12.737 15.5628C12.7271 15.5636 12.7172 15.5642 12.7072 15.5646L10.9363 15.5646L10.9352 15.5646ZM12.9769 9.74478L9.24191 9.74478C9.23254 9.74456 9.22318 9.74412 9.21383 9.74348C9.20448 9.74283 9.19514 9.74196 9.18583 9.7409C9.17652 9.73984 9.16725 9.73859 9.158 9.7371C9.14875 9.73562 9.13955 9.73394 9.1304 9.73205C9.12123 9.73015 9.11212 9.72807 9.10308 9.72577C9.09402 9.72347 9.08503 9.72097 9.0761 9.71828C9.06717 9.71559 9.05832 9.71268 9.04954 9.7096C9.04075 9.7065 9.03205 9.70321 9.02343 9.69973C9.01481 9.69626 9.0063 9.69259 8.99787 9.68872C8.98943 9.68486 8.9811 9.68081 8.97287 9.67657C8.96465 9.67235 8.95654 9.66793 8.94853 9.66333C8.94053 9.65873 8.93264 9.65395 8.92488 9.64901C8.91711 9.64406 8.90948 9.63894 8.90197 9.63366C8.89447 9.62836 8.8871 9.62291 8.87987 9.6173C8.87264 9.61167 8.86556 9.6059 8.85861 9.59996C8.85168 9.59402 8.84489 9.58794 8.83826 9.58171C8.83164 9.57546 8.82517 9.56908 8.81886 9.56256C8.81255 9.55602 8.8064 9.54936 8.80043 9.54256C8.79446 9.53576 8.78867 9.52883 8.78304 9.52176C8.77742 9.5147 8.77198 9.50752 8.76672 9.50022C8.76146 9.49292 8.75639 9.4855 8.7515 9.47797C8.74661 9.47045 8.74192 9.46281 8.73742 9.45507C8.73293 9.44732 8.72862 9.43949 8.72451 9.43156C8.7204 9.42362 8.7165 9.41561 8.7128 9.4075C8.70911 9.3994 8.70561 9.39121 8.70233 9.38294C8.69904 9.37469 8.69596 9.36635 8.69309 9.35795C8.69022 9.34955 8.68757 9.3411 8.68513 9.33257C8.68269 9.32406 8.68047 9.31549 8.67846 9.30686C8.67645 9.29825 8.67465 9.28959 8.67308 9.2809C8.67152 9.2722 8.67018 9.26348 8.66904 9.25472C8.66791 9.24596 8.667 9.23717 8.66632 9.22837C8.66563 9.21958 8.66516 9.21078 8.66492 9.20195C8.66492 8.91174 8.93344 8.65912 9.24191 8.65912L12.9769 8.65912C13.2853 8.65912 13.5539 8.91174 13.5539 9.20195C13.5539 9.49111 13.2853 9.74478 12.9769 9.74478Z"   fill="#333333" >
</path>
<path d="M11.784 5.91068C11.8016 5.91068 11.8193 5.91027 11.8369 5.90945C11.8545 5.90864 11.872 5.90742 11.8896 5.9058C11.9071 5.90417 11.9246 5.90213 11.9421 5.8997C11.9595 5.89727 11.9768 5.89443 11.9941 5.8912C12.0114 5.88796 12.0286 5.88432 12.0457 5.88029C12.0628 5.87626 12.0798 5.87182 12.0967 5.86701C12.1135 5.8622 12.1303 5.857 12.1468 5.8514C12.1635 5.84581 12.1799 5.83984 12.1962 5.83349C12.2125 5.82715 12.2286 5.82043 12.2445 5.81333C12.2604 5.80624 12.2762 5.79878 12.2917 5.79095C12.3073 5.78314 12.3226 5.77497 12.3377 5.76644C12.3528 5.75791 12.3677 5.74902 12.3823 5.7398C12.397 5.73059 12.4114 5.72104 12.4255 5.71116C12.4397 5.70128 12.4536 5.69106 12.4672 5.68054C12.4808 5.67002 12.4942 5.65918 12.5072 5.64804C12.5203 5.6369 12.533 5.62546 12.5455 5.61373C12.558 5.60201 12.5701 5.58998 12.5819 5.57769C12.5938 5.5654 12.6053 5.55285 12.6164 5.54001C12.6276 5.52719 12.6384 5.51412 12.6489 5.5008C12.6594 5.48747 12.6696 5.47391 12.6793 5.46012C12.6891 5.44632 12.6985 5.43231 12.7076 5.41808C12.7166 5.40385 12.7253 5.38942 12.7336 5.37479C12.7419 5.36016 12.7498 5.34534 12.7573 5.33035C12.7649 5.31535 12.772 5.30019 12.7787 5.28487C12.7855 5.26954 12.7918 5.25407 12.7977 5.23845C12.8036 5.22284 12.8092 5.20709 12.8143 5.19121C12.8194 5.17534 12.8241 5.15936 12.8283 5.14328C12.8326 5.12718 12.8364 5.111 12.8398 5.09473C12.8433 5.07847 12.8463 5.06213 12.8488 5.04573C12.8514 5.02933 12.8536 5.01287 12.8553 4.99636C12.857 4.97985 12.8583 4.96332 12.8591 4.94676C12.86 4.9302 12.8604 4.91363 12.8603 4.89704C12.86 4.88056 12.8592 4.86409 12.858 4.84764C12.8568 4.83119 12.8552 4.81476 12.8531 4.79838C12.8511 4.782 12.8487 4.76568 12.8458 4.74941C12.8429 4.73314 12.8397 4.71695 12.836 4.70082C12.8323 4.6847 12.8282 4.66867 12.8237 4.65274C12.8192 4.63679 12.8143 4.62096 12.809 4.60524C12.8037 4.58953 12.798 4.57394 12.7919 4.55848C12.7858 4.54301 12.7793 4.52769 12.7725 4.51251C12.7656 4.49734 12.7584 4.48234 12.7507 4.46749C12.7431 4.45264 12.7351 4.43797 12.7267 4.42348C12.7183 4.409 12.7096 4.39471 12.7005 4.3806C12.6914 4.36651 12.682 4.35263 12.6722 4.33896C12.6624 4.32529 12.6522 4.31184 12.6417 4.29862C12.6312 4.28541 12.6204 4.27244 12.6093 4.2597C12.5981 4.24698 12.5867 4.23451 12.5749 4.22229C12.5631 4.21008 12.551 4.19813 12.5387 4.18645C12.5263 4.17478 12.5136 4.1634 12.5007 4.15229C12.4877 4.14119 12.4745 4.13038 12.4609 4.11987C12.4474 4.10936 12.4337 4.09916 12.4197 4.08927C12.4056 4.07937 12.3914 4.0698 12.3768 4.06056C12.3623 4.05131 12.3476 4.04239 12.3326 4.0338C12.3177 4.02521 12.3025 4.01696 12.2871 4.00905C12.2717 4.00115 12.2562 3.99359 12.2404 3.98638C12.2246 3.97917 12.2087 3.97232 12.1926 3.96583C12.1765 3.95934 12.1602 3.95321 12.1438 3.94744C12.1273 3.94168 12.1108 3.93629 12.0941 3.93126C12.0774 3.92625 12.0606 3.92161 12.0436 3.91733C12.0267 3.91307 12.0097 3.90919 11.9925 3.90569C11.9754 3.9022 11.9582 3.89909 11.9409 3.89636C11.9236 3.89363 11.9063 3.89129 11.8889 3.88934C11.8715 3.8874 11.854 3.88584 11.8365 3.88468C11.8191 3.88352 11.8015 3.88274 11.784 3.88236C11.2059 3.84583 10.7044 4.31663 10.7044 4.89704C10.7043 4.91365 10.7048 4.93024 10.7056 4.94682C10.7065 4.96341 10.7077 4.97996 10.7095 4.99649C10.7112 5.01302 10.7133 5.0295 10.7159 5.04593C10.7185 5.06235 10.7215 5.07871 10.7249 5.09499C10.7283 5.11128 10.7322 5.12748 10.7365 5.14358C10.7408 5.1597 10.7455 5.1757 10.7506 5.19159C10.7557 5.20748 10.7612 5.22324 10.7671 5.23887C10.7731 5.25451 10.7794 5.27 10.7862 5.28534C10.7929 5.30069 10.8001 5.31587 10.8076 5.33088C10.8152 5.34589 10.8231 5.36072 10.8314 5.37537C10.8397 5.39001 10.8484 5.40445 10.8575 5.41869C10.8666 5.43293 10.876 5.44695 10.8858 5.46075C10.8957 5.47456 10.9058 5.48814 10.9163 5.50147C10.9268 5.51481 10.9377 5.52789 10.9489 5.54073C10.9601 5.55356 10.9716 5.56612 10.9835 5.57842C10.9953 5.59072 11.0075 5.60274 11.02 5.61447C11.0325 5.6262 11.0453 5.63765 11.0584 5.64879C11.0715 5.65993 11.0848 5.67076 11.0985 5.68128C11.1121 5.6918 11.126 5.70201 11.1402 5.71189C11.1544 5.72178 11.1688 5.73132 11.1835 5.74054C11.1982 5.74975 11.2131 5.75861 11.2283 5.76714C11.2434 5.77565 11.2588 5.78383 11.2744 5.79164C11.2899 5.79945 11.3057 5.80689 11.3217 5.81397C11.3376 5.82106 11.3538 5.82777 11.3701 5.8341C11.3864 5.84044 11.4029 5.8464 11.4195 5.85196C11.4361 5.85754 11.4529 5.86272 11.4698 5.86752C11.4867 5.87231 11.5037 5.87672 11.5208 5.88071C11.5379 5.88473 11.5552 5.88833 11.5725 5.89154C11.5898 5.89476 11.6072 5.89758 11.6246 5.89998C11.6421 5.90239 11.6596 5.9044 11.6772 5.90598C11.6948 5.90758 11.7124 5.90877 11.73 5.90955C11.7476 5.91033 11.7653 5.91071 11.7829 5.91068L11.784 5.91068ZM10.2816 16.0001C10.2993 16.0001 10.3169 15.9997 10.3345 15.9989C10.3522 15.9981 10.3697 15.9969 10.3873 15.9953C10.4049 15.9937 10.4224 15.9916 10.4398 15.9892C10.4573 15.9868 10.4747 15.984 10.492 15.9807C10.5093 15.9775 10.5266 15.9739 10.5437 15.9699C10.5608 15.9658 10.5778 15.9614 10.5947 15.9566C10.6116 15.9518 10.6283 15.9466 10.6449 15.941C10.6616 15.9354 10.678 15.9294 10.6943 15.9231C10.7107 15.9167 10.7268 15.91 10.7428 15.9029C10.7587 15.8958 10.7745 15.8883 10.79 15.8805C10.8056 15.8727 10.821 15.8645 10.8361 15.856C10.8512 15.8475 10.8661 15.8386 10.8808 15.8293C10.8955 15.8201 10.9099 15.8106 10.9241 15.8007C10.9383 15.7908 10.9522 15.7805 10.9658 15.77C10.9794 15.7595 10.9928 15.7486 11.0059 15.7375C11.0189 15.7263 11.0317 15.7149 11.0442 15.7031C11.0567 15.6914 11.0688 15.6793 11.0807 15.667C11.0925 15.6547 11.104 15.6421 11.1152 15.6293C11.1264 15.6165 11.1372 15.6034 11.1477 15.59C11.1582 15.5767 11.1684 15.5631 11.1782 15.5493C11.188 15.5355 11.1974 15.5214 11.2065 15.5072C11.2155 15.4929 11.2242 15.4785 11.2325 15.4638C11.2408 15.4492 11.2487 15.4343 11.2562 15.4193C11.2638 15.4043 11.2709 15.3891 11.2776 15.3738C11.2844 15.3584 11.2907 15.3429 11.2966 15.3273C11.3026 15.3116 11.3081 15.2959 11.3132 15.28C11.3183 15.2641 11.3229 15.2481 11.3272 15.232C11.3315 15.2158 11.3353 15.1996 11.3387 15.1834C11.3421 15.1671 11.3451 15.1507 11.3477 15.1343C11.3502 15.1178 11.3524 15.1014 11.354 15.0848C11.3557 15.0683 11.357 15.0518 11.3578 15.0352C11.3587 15.0186 11.3591 15.002 11.359 14.9854C11.3591 14.9688 11.3587 14.9522 11.3578 14.9356C11.357 14.9191 11.3557 14.9025 11.3539 14.886C11.3522 14.8695 11.3501 14.853 11.3475 14.8366C11.345 14.8202 11.3419 14.8038 11.3385 14.7876C11.3351 14.7713 11.3312 14.7551 11.327 14.739C11.3227 14.7229 11.318 14.7069 11.3129 14.691C11.3078 14.6751 11.3023 14.6594 11.2963 14.6438C11.2904 14.6281 11.2841 14.6127 11.2773 14.5973C11.2706 14.582 11.2634 14.5668 11.2559 14.5518C11.2484 14.5368 11.2405 14.522 11.2321 14.5074C11.2238 14.4927 11.2152 14.4783 11.2061 14.464C11.197 14.4498 11.1876 14.4358 11.1778 14.422C11.168 14.4082 11.1579 14.3946 11.1473 14.3813C11.1368 14.368 11.126 14.3549 11.1148 14.3421C11.1036 14.3292 11.0921 14.3167 11.0803 14.3044C11.0684 14.2921 11.0563 14.2801 11.0438 14.2683C11.0313 14.2566 11.0185 14.2452 11.0055 14.234C10.9924 14.2229 10.9791 14.212 10.9654 14.2015C10.9518 14.191 10.9379 14.1808 10.9237 14.1709C10.9095 14.161 10.8951 14.1515 10.8804 14.1422C10.8658 14.133 10.8509 14.1242 10.8358 14.1156C10.8206 14.1071 10.8053 14.0989 10.7897 14.0911C10.7742 14.0833 10.7584 14.0759 10.7425 14.0688C10.7265 14.0617 10.7104 14.055 10.6941 14.0486C10.6778 14.0423 10.6613 14.0363 10.6447 14.0307C10.6281 14.0252 10.6114 14.02 10.5945 14.0152C10.5776 14.0104 10.5606 14.006 10.5435 14.0019C10.5264 13.9979 10.5092 13.9943 10.4919 13.991C10.4746 13.9878 10.4572 13.985 10.4398 13.9826C10.4223 13.9802 10.4048 13.9781 10.3872 13.9765C10.3697 13.9749 10.3521 13.9737 10.3345 13.9729C10.3169 13.9721 10.2993 13.9717 10.2816 13.9717C10.2641 13.9721 10.2466 13.9728 10.2291 13.974C10.2116 13.9751 10.1941 13.9766 10.1767 13.9785C10.1593 13.9804 10.1419 13.9828 10.1246 13.9855C10.1073 13.9882 10.0901 13.9912 10.0729 13.9947C10.0558 13.9982 10.0387 14.002 10.0217 14.0063C10.0048 14.0105 9.98796 14.0151 9.97124 14.0201C9.95453 14.0251 9.93795 14.0305 9.9215 14.0362C9.90506 14.042 9.88877 14.048 9.87263 14.0545C9.8565 14.061 9.84053 14.0678 9.82474 14.075C9.80896 14.0822 9.79336 14.0897 9.77794 14.0976C9.76255 14.1055 9.74734 14.1137 9.73235 14.1223C9.71737 14.1309 9.70259 14.1398 9.68807 14.149C9.67354 14.1582 9.65923 14.1678 9.64517 14.1777C9.63113 14.1876 9.61735 14.1978 9.6038 14.2082C9.59028 14.2187 9.57702 14.2295 9.56401 14.2406C9.55103 14.2517 9.53834 14.2631 9.52592 14.2748C9.51351 14.2864 9.50141 14.2983 9.4896 14.3106C9.47781 14.3228 9.46632 14.3352 9.45513 14.348C9.44397 14.3607 9.43313 14.3736 9.42261 14.3868C9.4121 14.4001 9.40194 14.4135 9.39209 14.4272C9.38228 14.4408 9.3728 14.4547 9.36366 14.4688C9.35454 14.4829 9.34579 14.4972 9.33738 14.5117C9.32899 14.5262 9.32096 14.5408 9.31329 14.5557C9.30563 14.5705 9.29837 14.5855 9.29147 14.6007C9.28457 14.6159 9.27806 14.6312 9.27194 14.6467C9.26584 14.6621 9.26012 14.6777 9.2548 14.6934C9.24947 14.7092 9.24455 14.725 9.24003 14.7409C9.23552 14.7569 9.23139 14.7729 9.22768 14.7891C9.22397 14.8052 9.22068 14.8214 9.2178 14.8377C9.21492 14.8539 9.21244 14.8703 9.21038 14.8867C9.20833 14.9031 9.2067 14.9195 9.20547 14.9359C9.20426 14.9524 9.20345 14.9689 9.20307 14.9854C9.20303 15.002 9.20343 15.0186 9.20426 15.0352C9.20509 15.0518 9.20636 15.0684 9.20805 15.0849C9.20975 15.1014 9.21189 15.1179 9.21445 15.1344C9.21702 15.1508 9.22 15.1672 9.22342 15.1835C9.22685 15.1998 9.23068 15.216 9.23495 15.2321C9.23921 15.2483 9.24391 15.2643 9.24901 15.2802C9.2541 15.2961 9.25963 15.3118 9.26556 15.3275C9.27149 15.3432 9.27784 15.3587 9.28457 15.374C9.29131 15.3894 9.29845 15.4046 9.30598 15.4196C9.31352 15.4346 9.32144 15.4495 9.32977 15.4641C9.33809 15.4788 9.34677 15.4932 9.35584 15.5075C9.36491 15.5217 9.37434 15.5358 9.38414 15.5496C9.39395 15.5634 9.40411 15.577 9.41462 15.5904C9.42514 15.6037 9.43599 15.6168 9.44719 15.6297C9.45839 15.6425 9.46992 15.6551 9.48178 15.6674C9.49364 15.6797 9.50583 15.6917 9.51831 15.7035C9.5308 15.7152 9.54359 15.7267 9.55666 15.7378C9.56977 15.749 9.58314 15.7599 9.59678 15.7704C9.61045 15.7809 9.62437 15.7911 9.63855 15.801C9.65275 15.8109 9.66719 15.8205 9.68188 15.8297C9.69658 15.8389 9.71149 15.8478 9.72664 15.8563C9.7418 15.8649 9.75717 15.873 9.77274 15.8809C9.78833 15.8887 9.80411 15.8961 9.82008 15.9032C9.83606 15.9103 9.8522 15.917 9.86852 15.9234C9.88485 15.9297 9.90132 15.9357 9.91796 15.9413C9.93461 15.9469 9.95137 15.952 9.96828 15.9568C9.98518 15.9617 10.0022 15.9661 10.0193 15.9701C10.0365 15.9741 10.0537 15.9777 10.071 15.9809C10.0884 15.9841 10.1058 15.9869 10.1232 15.9893C10.1407 15.9918 10.1582 15.9938 10.1758 15.9954C10.1934 15.997 10.211 15.9982 10.2287 15.9989C10.2463 15.9997 10.264 16.0001 10.2816 16.0001ZM20.2549 8.15717C20.2724 8.1572 20.2901 8.15683 20.3077 8.15605C20.3254 8.15526 20.3431 8.15407 20.3606 8.15247C20.3782 8.15088 20.3957 8.14887 20.4132 8.14645C20.4306 8.14406 20.448 8.14124 20.4653 8.13802C20.4827 8.13481 20.4999 8.13119 20.517 8.12717C20.5342 8.12316 20.5513 8.11876 20.5682 8.11395C20.585 8.10915 20.6018 8.10396 20.6184 8.09837C20.6351 8.09279 20.6515 8.08684 20.6678 8.08049C20.6841 8.07415 20.7003 8.06744 20.7164 8.06035C20.7323 8.05325 20.7481 8.0458 20.7637 8.03797C20.7792 8.03016 20.7946 8.02198 20.8098 8.01345C20.825 8.00492 20.8399 7.99603 20.8546 7.98682C20.8693 7.97759 20.8837 7.96803 20.8979 7.95814C20.912 7.94824 20.9259 7.93803 20.9395 7.92749C20.9533 7.91696 20.9667 7.90611 20.9797 7.89495C20.9928 7.8838 21.0056 7.87235 21.0181 7.86059C21.0305 7.84884 21.0428 7.83682 21.0546 7.82451C21.0664 7.81219 21.0779 7.7996 21.0891 7.78676C21.1004 7.77391 21.1112 7.76081 21.1217 7.74747C21.1323 7.73411 21.1424 7.72052 21.1523 7.70671C21.1621 7.69289 21.1715 7.67885 21.1805 7.66459C21.1897 7.65034 21.1984 7.63588 21.2067 7.62122C21.215 7.60656 21.2229 7.59171 21.2305 7.57669C21.238 7.56167 21.2451 7.54647 21.2518 7.53112C21.2586 7.51577 21.265 7.50026 21.2708 7.4846C21.2767 7.46896 21.2822 7.45317 21.2873 7.43726C21.2925 7.42136 21.2972 7.40536 21.3014 7.38923C21.3056 7.3731 21.3095 7.35688 21.313 7.34059C21.3164 7.32429 21.3195 7.30792 21.322 7.29148C21.3245 7.27503 21.3267 7.25854 21.3284 7.242C21.33 7.22548 21.3313 7.20891 21.3322 7.1923C21.333 7.17572 21.3334 7.15911 21.3333 7.14249C21.3334 7.12587 21.333 7.10927 21.3322 7.09268C21.3313 7.07607 21.33 7.0595 21.3284 7.04298C21.3267 7.02644 21.3245 7.00995 21.322 6.99351C21.3195 6.97706 21.3164 6.96069 21.313 6.94439C21.3095 6.9281 21.3057 6.91188 21.3015 6.89575C21.2973 6.87962 21.2925 6.86362 21.2873 6.84772C21.2822 6.83181 21.2767 6.81602 21.2708 6.80038C21.265 6.78472 21.2586 6.76921 21.2518 6.75386C21.2451 6.73851 21.238 6.72331 21.2305 6.70829C21.2229 6.69327 21.215 6.67842 21.2067 6.66376C21.1984 6.6491 21.1897 6.63464 21.1805 6.62039C21.1715 6.60613 21.1621 6.59209 21.1523 6.57827C21.1424 6.56446 21.1323 6.55087 21.1217 6.53751C21.1112 6.52417 21.1004 6.51107 21.0891 6.49822C21.0779 6.48538 21.0664 6.47279 21.0546 6.46047C21.0428 6.44816 21.0305 6.43614 21.0181 6.4244C21.0056 6.41263 20.9928 6.40118 20.9797 6.39003C20.9667 6.37887 20.9533 6.36802 20.9395 6.35749C20.9259 6.34695 20.912 6.33674 20.8979 6.32684C20.8837 6.31695 20.8693 6.3074 20.8546 6.29816C20.8399 6.28895 20.825 6.28007 20.8098 6.27154C20.7946 6.26301 20.7792 6.25483 20.7637 6.24701C20.7481 6.23918 20.7323 6.23173 20.7164 6.22463C20.7003 6.21754 20.6841 6.21083 20.6678 6.20449C20.6515 6.19814 20.6351 6.19219 20.6184 6.18661C20.6018 6.18102 20.585 6.17583 20.5682 6.17103C20.5513 6.16622 20.5342 6.16182 20.517 6.15781C20.4999 6.15379 20.4827 6.15017 20.4653 6.14696C20.448 6.14375 20.4306 6.14092 20.4132 6.13853C20.3957 6.13611 20.3782 6.13411 20.3606 6.13251C20.3431 6.13091 20.3254 6.12972 20.3077 6.12894C20.2901 6.12815 20.2724 6.12778 20.2549 6.12781C20.2372 6.12778 20.2195 6.12815 20.2018 6.12894C20.1842 6.12972 20.1666 6.13091 20.1489 6.13251C20.1314 6.13411 20.1139 6.13611 20.0964 6.13853C20.079 6.14092 20.0615 6.14375 20.0442 6.14696C20.0269 6.15017 20.0097 6.15379 19.9925 6.15781C19.9754 6.16182 19.9584 6.16622 19.9414 6.17103C19.9245 6.17583 19.9078 6.18102 19.8911 6.18661C19.8745 6.19219 19.858 6.19814 19.8417 6.20449C19.8254 6.21083 19.8093 6.21754 19.7933 6.22463C19.7773 6.23173 19.7615 6.23918 19.746 6.24701C19.7304 6.25483 19.715 6.26301 19.6999 6.27154C19.6847 6.28007 19.6698 6.28895 19.655 6.29816C19.6403 6.3074 19.6259 6.31695 19.6118 6.32684C19.5976 6.33674 19.5837 6.34695 19.57 6.35749C19.5564 6.36802 19.543 6.37887 19.5298 6.39003C19.5167 6.40118 19.504 6.41263 19.4915 6.4244C19.479 6.43614 19.4668 6.44816 19.4549 6.46047C19.4431 6.47279 19.4316 6.48538 19.4204 6.49822C19.4092 6.51106 19.3983 6.52415 19.3878 6.53751C19.3773 6.55087 19.3671 6.56446 19.3573 6.57827C19.3475 6.59209 19.338 6.60613 19.329 6.62039C19.3199 6.63464 19.3112 6.6491 19.303 6.66376C19.2947 6.67842 19.2867 6.69327 19.2791 6.70829C19.2716 6.72331 19.2645 6.73851 19.2578 6.75386C19.2511 6.76921 19.2447 6.78472 19.2387 6.80038C19.2328 6.81602 19.2273 6.83181 19.2222 6.84772C19.2171 6.86362 19.2125 6.87962 19.2082 6.89575C19.2039 6.91188 19.2 6.9281 19.1966 6.94439C19.1932 6.96069 19.1902 6.97706 19.1876 6.99351C19.185 7.00995 19.1829 7.02644 19.1813 7.04298C19.1796 7.0595 19.1783 7.07607 19.1775 7.09268C19.1766 7.10927 19.1762 7.12587 19.1763 7.14249C19.1762 7.15911 19.1766 7.17572 19.1775 7.1923C19.1783 7.20891 19.1796 7.22548 19.1813 7.242C19.1829 7.25854 19.185 7.27503 19.1876 7.29148C19.1902 7.30792 19.1932 7.32429 19.1966 7.34059C19.2 7.35688 19.2039 7.3731 19.2082 7.38923C19.2125 7.40536 19.2171 7.42136 19.2222 7.43726C19.2273 7.45317 19.2328 7.46896 19.2387 7.4846C19.2447 7.50026 19.2511 7.51577 19.2578 7.53112C19.2645 7.54647 19.2716 7.56167 19.2791 7.57669C19.2867 7.59171 19.2947 7.60656 19.303 7.62122C19.3112 7.63588 19.3199 7.65034 19.329 7.66459C19.338 7.67885 19.3475 7.69289 19.3573 7.70671C19.3671 7.72052 19.3773 7.73411 19.3878 7.74747C19.3983 7.76083 19.4092 7.77393 19.4204 7.78676C19.4316 7.7996 19.4431 7.81219 19.4549 7.82451C19.4668 7.83682 19.479 7.84884 19.4915 7.86059C19.504 7.87235 19.5167 7.8838 19.5298 7.89495C19.543 7.90611 19.5564 7.91696 19.57 7.92749C19.5837 7.93803 19.5976 7.94824 19.6118 7.95814C19.6259 7.96803 19.6403 7.97759 19.655 7.98682C19.6698 7.99603 19.6847 8.00492 19.6999 8.01345C19.715 8.02198 19.7304 8.03016 19.746 8.03797C19.7615 8.0458 19.7773 8.05325 19.7933 8.06035C19.8093 8.06744 19.8254 8.07415 19.8417 8.08049C19.858 8.08684 19.8745 8.09279 19.8911 8.09837C19.9078 8.10396 19.9245 8.10915 19.9414 8.11395C19.9584 8.11876 19.9754 8.12316 19.9925 8.12717C20.0097 8.13119 20.0269 8.13481 20.0442 8.13802C20.0615 8.14124 20.079 8.14406 20.0964 8.14645C20.1139 8.14887 20.1314 8.15088 20.1489 8.15247C20.1666 8.15407 20.1842 8.15526 20.2018 8.15605C20.2195 8.15683 20.2372 8.1572 20.2549 8.15717ZM19.1763 12.0875C19.1762 12.1041 19.1766 12.1207 19.1775 12.1373C19.1783 12.1539 19.1796 12.1705 19.1813 12.187C19.1829 12.2035 19.185 12.22 19.1876 12.2365C19.1902 12.2529 19.1932 12.2693 19.1966 12.2856C19.2 12.3019 19.2039 12.3181 19.2082 12.3342C19.2125 12.3504 19.2171 12.3664 19.2222 12.3823C19.2273 12.3982 19.2328 12.414 19.2387 12.4296C19.2447 12.4453 19.2511 12.4608 19.2578 12.4761C19.2645 12.4915 19.2716 12.5067 19.2791 12.5217C19.2867 12.5367 19.2947 12.5516 19.303 12.5662C19.3112 12.5809 19.3199 12.5953 19.329 12.6096C19.338 12.6238 19.3475 12.6379 19.3573 12.6517C19.3671 12.6655 19.3773 12.6791 19.3878 12.6925C19.3983 12.7058 19.4092 12.7189 19.4204 12.7318C19.4316 12.7446 19.4431 12.7572 19.4549 12.7695C19.4668 12.7818 19.479 12.7938 19.4915 12.8056C19.504 12.8173 19.5167 12.8288 19.5298 12.84C19.543 12.8511 19.5564 12.862 19.57 12.8725C19.5837 12.883 19.5976 12.8932 19.6118 12.9031C19.6259 12.913 19.6403 12.9226 19.655 12.9318C19.6698 12.941 19.6847 12.9499 19.6999 12.9584C19.715 12.967 19.7304 12.9752 19.746 12.983C19.7615 12.9908 19.7773 12.9983 19.7933 13.0053C19.8093 13.0124 19.8254 13.0191 19.8417 13.0255C19.858 13.0318 19.8745 13.0378 19.8911 13.0434C19.9078 13.0489 19.9245 13.0541 19.9414 13.0589C19.9584 13.0638 19.9754 13.0682 19.9925 13.0722C20.0097 13.0762 20.0269 13.0798 20.0442 13.083C20.0615 13.0862 20.079 13.0891 20.0964 13.0915C20.1139 13.0939 20.1314 13.0959 20.1489 13.0975C20.1666 13.0991 20.1842 13.1003 20.2018 13.101C20.2195 13.1018 20.2372 13.1022 20.2549 13.1022C20.2724 13.1022 20.2901 13.1018 20.3077 13.101C20.3254 13.1003 20.3431 13.0991 20.3606 13.0975C20.3782 13.0959 20.3957 13.0939 20.4132 13.0915C20.4306 13.0891 20.448 13.0862 20.4653 13.083C20.4827 13.0798 20.4999 13.0762 20.517 13.0722C20.5342 13.0682 20.5513 13.0638 20.5682 13.0589C20.585 13.0541 20.6018 13.0489 20.6184 13.0434C20.6351 13.0378 20.6515 13.0318 20.6678 13.0255C20.6841 13.0191 20.7003 13.0124 20.7164 13.0053C20.7323 12.9983 20.7481 12.9908 20.7637 12.983C20.7792 12.9752 20.7946 12.967 20.8098 12.9585C20.825 12.9499 20.8399 12.941 20.8546 12.9318C20.8693 12.9226 20.8837 12.913 20.8979 12.9031C20.912 12.8932 20.9259 12.883 20.9395 12.8725C20.9533 12.862 20.9667 12.8511 20.9797 12.84C20.9928 12.8288 21.0056 12.8173 21.0181 12.8056C21.0305 12.7938 21.0428 12.7818 21.0546 12.7695C21.0664 12.7572 21.0779 12.7446 21.0891 12.7318C21.1004 12.7189 21.1112 12.7058 21.1217 12.6925C21.1323 12.6791 21.1424 12.6655 21.1523 12.6517C21.1621 12.6379 21.1715 12.6238 21.1805 12.6096C21.1897 12.5953 21.1984 12.5809 21.2067 12.5662C21.215 12.5516 21.2229 12.5367 21.2305 12.5217C21.238 12.5067 21.2451 12.4915 21.2518 12.4761C21.2586 12.4608 21.265 12.4453 21.2708 12.4296C21.2767 12.414 21.2822 12.3982 21.2873 12.3823C21.2925 12.3664 21.2972 12.3504 21.3014 12.3342C21.3056 12.3181 21.3095 12.3019 21.313 12.2856C21.3164 12.2693 21.3195 12.2529 21.322 12.2365C21.3245 12.22 21.3267 12.2035 21.3284 12.187C21.33 12.1705 21.3313 12.1539 21.3322 12.1373C21.333 12.1207 21.3334 12.1041 21.3333 12.0875C21.3329 12.071 21.3322 12.0545 21.331 12.038C21.3297 12.0215 21.3281 12.0051 21.3262 11.9887C21.3241 11.9723 21.3216 11.956 21.3187 11.9397C21.3158 11.9234 21.3125 11.9072 21.3088 11.891C21.3051 11.8749 21.301 11.8588 21.2965 11.8429C21.292 11.8269 21.2871 11.8111 21.2818 11.7953C21.2766 11.7796 21.2709 11.764 21.2648 11.7485C21.2587 11.733 21.2521 11.7177 21.2452 11.7025C21.2384 11.6873 21.2311 11.6723 21.2233 11.6574C21.2157 11.6426 21.2077 11.6279 21.1994 11.6134C21.191 11.5989 21.1822 11.5846 21.1731 11.5705C21.1639 11.5564 21.1545 11.5425 21.1446 11.5288C21.1348 11.5151 21.1246 11.5016 21.1141 11.4884C21.1036 11.4752 21.0928 11.4622 21.0817 11.4495C21.0705 11.4367 21.059 11.4243 21.0472 11.412C21.0354 11.3998 21.0233 11.3879 21.0108 11.3762C20.9984 11.3645 20.9858 11.3531 20.9728 11.342C20.9598 11.3309 20.9465 11.3201 20.9329 11.3096C20.9194 11.2991 20.9056 11.2889 20.8915 11.279C20.8775 11.2691 20.8632 11.2596 20.8487 11.2503C20.8341 11.2411 20.8193 11.2322 20.8043 11.2236C20.7894 11.215 20.7742 11.2067 20.7587 11.1988C20.7433 11.191 20.7277 11.1834 20.7119 11.1762C20.6962 11.169 20.6802 11.1622 20.664 11.1557C20.6479 11.1492 20.6316 11.1431 20.6151 11.1374C20.5986 11.1316 20.582 11.1262 20.5654 11.1212C20.5486 11.1162 20.5317 11.1116 20.5148 11.1074C20.4979 11.1031 20.4808 11.0993 20.4636 11.0958C20.4465 11.0923 20.4293 11.0892 20.4119 11.0865C20.3946 11.0838 20.3772 11.0815 20.3598 11.0796C20.3423 11.0777 20.3249 11.0762 20.3074 11.075C20.2898 11.0739 20.2723 11.0732 20.2549 11.0728C20.2372 11.0728 20.2195 11.0732 20.2018 11.0739C20.1842 11.0747 20.1666 11.0759 20.1489 11.0775C20.1314 11.0791 20.1139 11.0811 20.0964 11.0835C20.079 11.0859 20.0615 11.0887 20.0442 11.092C20.0269 11.0952 20.0097 11.0988 19.9925 11.1028C19.9754 11.1068 19.9584 11.1112 19.9414 11.116C19.9245 11.1208 19.9078 11.126 19.8911 11.1316C19.8745 11.1372 19.858 11.1431 19.8417 11.1495C19.8254 11.1558 19.8093 11.1625 19.7933 11.1696C19.7773 11.1767 19.7615 11.1842 19.746 11.192C19.7304 11.1998 19.715 11.208 19.6999 11.2165C19.6847 11.2251 19.6698 11.2339 19.655 11.2432C19.6403 11.2524 19.6259 11.262 19.6118 11.2718C19.5976 11.2817 19.5837 11.292 19.57 11.3025C19.5564 11.313 19.543 11.3239 19.5298 11.335C19.5167 11.3462 19.504 11.3577 19.4915 11.3694C19.479 11.3811 19.4668 11.3932 19.4549 11.4055C19.4431 11.4178 19.4316 11.4304 19.4204 11.4432C19.4092 11.4561 19.3983 11.4692 19.3878 11.4825C19.3773 11.4959 19.3671 11.5095 19.3573 11.5233C19.3475 11.5371 19.338 11.5511 19.329 11.5654C19.3199 11.5796 19.3112 11.5941 19.303 11.6088C19.2947 11.6234 19.2867 11.6383 19.2791 11.6533C19.2716 11.6683 19.2645 11.6835 19.2578 11.6989C19.2511 11.7142 19.2447 11.7297 19.2387 11.7454C19.2328 11.761 19.2273 11.7768 19.2222 11.7927C19.2171 11.8086 19.2125 11.8246 19.2082 11.8408C19.2039 11.8569 19.2 11.8731 19.1966 11.8894C19.1932 11.9057 19.1902 11.9221 19.1876 11.9385C19.185 11.9549 19.1829 11.9714 19.1813 11.988C19.1796 12.0045 19.1783 12.0211 19.1775 12.0377C19.1766 12.0543 19.1762 12.0709 19.1763 12.0875ZM7.46985 9.16454C7.4698 9.18116 7.47018 9.19779 7.471 9.21439C7.47181 9.23101 7.47306 9.24758 7.47474 9.26414C7.47643 9.28069 7.47855 9.29719 7.48109 9.31364C7.48363 9.3301 7.48661 9.34648 7.49002 9.36279C7.49343 9.3791 7.49726 9.39533 7.50151 9.41146C7.50577 9.42759 7.51044 9.44363 7.51554 9.45956C7.52063 9.47548 7.52613 9.49127 7.53206 9.50693C7.53798 9.5226 7.5443 9.53812 7.55103 9.5535C7.55777 9.56886 7.5649 9.58406 7.57242 9.5991C7.57996 9.61416 7.58788 9.62902 7.59619 9.64368C7.60449 9.65836 7.61318 9.67283 7.62225 9.6871C7.63131 9.70137 7.64075 9.71543 7.65055 9.72927C7.66035 9.7431 7.67051 9.7567 7.68103 9.77006C7.69153 9.78342 7.70239 9.79653 7.71359 9.8094C7.72479 9.82227 7.73632 9.83486 7.74818 9.84718C7.76003 9.85951 7.77221 9.87156 7.78471 9.88332C7.7972 9.89508 7.80999 9.90655 7.82308 9.91772C7.83617 9.9289 7.84954 9.93974 7.86319 9.9503C7.87686 9.96085 7.89078 9.97108 7.90498 9.98098C7.91917 9.99088 7.93362 10.0005 7.94832 10.0097C7.96301 10.0189 7.97794 10.0278 7.99311 10.0364C8.00826 10.0449 8.02363 10.0531 8.03922 10.0609C8.05482 10.0687 8.0706 10.0762 8.08659 10.0833C8.10256 10.0904 8.11872 10.0971 8.13505 10.1035C8.15138 10.1099 8.16787 10.1158 8.18451 10.1214C8.20116 10.127 8.21794 10.1322 8.23486 10.137C8.25178 10.1418 8.26882 10.1462 8.28596 10.1502C8.30311 10.1543 8.32036 10.1579 8.33769 10.1611C8.35503 10.1643 8.37244 10.1671 8.38993 10.1695C8.40742 10.1719 8.42496 10.174 8.44255 10.1756C8.46013 10.1772 8.47775 10.1784 8.49541 10.1791C8.51306 10.1799 8.53072 10.1803 8.5484 10.1803C8.56606 10.1803 8.58371 10.1799 8.60135 10.1791C8.61899 10.1784 8.63661 10.1772 8.65417 10.1756C8.67175 10.174 8.68928 10.172 8.70676 10.1696C8.72423 10.1672 8.74164 10.1643 8.75896 10.1611C8.77629 10.1579 8.79352 10.1543 8.81067 10.1503C8.8278 10.1463 8.84483 10.1419 8.86172 10.137C8.87863 10.1322 8.8954 10.1271 8.91204 10.1215C8.92868 10.1159 8.94516 10.1099 8.96148 10.1036C8.9778 10.0972 8.99395 10.0905 9.00993 10.0834C9.0259 10.0763 9.04168 10.0689 9.05726 10.0611C9.07284 10.0533 9.0882 10.0451 9.10336 10.0366C9.11851 10.028 9.13343 10.0191 9.14812 10.0099C9.16282 10.0007 9.17726 9.99113 9.19145 9.98124C9.20564 9.97134 9.21957 9.96113 9.23321 9.95059C9.24687 9.94005 9.26024 9.92921 9.27333 9.91805C9.28642 9.90689 9.2992 9.89544 9.31168 9.88368C9.32418 9.87194 9.33635 9.85992 9.34821 9.8476C9.36007 9.83529 9.3716 9.8227 9.3828 9.80986C9.394 9.79702 9.40487 9.78392 9.41538 9.77057C9.42589 9.75721 9.43605 9.74362 9.44586 9.7298C9.45567 9.71599 9.4651 9.70194 9.47417 9.68769C9.48324 9.67343 9.49192 9.65898 9.50025 9.64432C9.50857 9.62965 9.51649 9.61481 9.52402 9.59979C9.53156 9.58477 9.5387 9.56956 9.54543 9.55422C9.55217 9.53887 9.5585 9.52336 9.56443 9.5077C9.57038 9.49205 9.57589 9.47626 9.58099 9.46036C9.5861 9.44446 9.59078 9.42846 9.59505 9.41232C9.59931 9.39619 9.60316 9.37998 9.60658 9.36369C9.61001 9.34739 9.61299 9.33101 9.61554 9.31457C9.61811 9.29813 9.62024 9.28164 9.62194 9.2651C9.62364 9.24858 9.6249 9.23201 9.62574 9.2154C9.62657 9.19881 9.62697 9.18221 9.62693 9.16559C9.62657 9.14908 9.62579 9.13259 9.62457 9.11612C9.62338 9.09964 9.62175 9.0832 9.6197 9.06681C9.61767 9.0504 9.61521 9.03405 9.61234 9.01776C9.60947 9.00146 9.6062 8.98525 9.60249 8.96912C9.59881 8.95297 9.5947 8.93692 9.59019 8.92097C9.58569 8.905 9.58078 8.88916 9.57546 8.87342C9.57015 8.85768 9.56443 8.84207 9.55833 8.82659C9.55223 8.81112 9.54572 8.79578 9.53882 8.7806C9.53196 8.76541 9.52469 8.75037 9.51703 8.73551C9.50938 8.72065 9.50136 8.70597 9.49296 8.69147C9.48457 8.67697 9.47582 8.66267 9.46668 8.64856C9.45756 8.63447 9.4481 8.62055 9.43826 8.60687C9.42845 8.59318 9.41827 8.57974 9.40775 8.56651C9.39724 8.55329 9.38641 8.54032 9.37524 8.52758C9.36408 8.51484 9.35258 8.50236 9.34077 8.49013C9.32899 8.47791 9.31687 8.46597 9.30445 8.45429C9.29204 8.44262 9.27935 8.43123 9.26634 8.42012C9.25338 8.40901 9.24011 8.39822 9.22655 8.3877C9.21303 8.37719 9.19923 8.367 9.18517 8.3571C9.17112 8.34721 9.15682 8.33765 9.14228 8.32841C9.12773 8.31916 9.11296 8.31025 9.09797 8.30165C9.08298 8.29308 9.06777 8.28484 9.05235 8.27694C9.03694 8.26905 9.02134 8.2615 9.00554 8.2543C8.98974 8.24711 8.97377 8.24026 8.95762 8.23378C8.94148 8.22731 8.92519 8.22121 8.90872 8.21545C8.89227 8.20971 8.87567 8.20434 8.85895 8.19934C8.84222 8.19433 8.82538 8.18971 8.80841 8.18547C8.79145 8.18123 8.77439 8.17736 8.75723 8.17389C8.74008 8.17042 8.72284 8.16733 8.70553 8.16463C8.6882 8.16193 8.67082 8.15962 8.65339 8.15771C8.63596 8.15578 8.61849 8.15425 8.60098 8.15313C8.58347 8.152 8.56594 8.15125 8.5484 8.15091C8.53074 8.15088 8.51309 8.15125 8.49545 8.15203C8.4778 8.15282 8.46018 8.15401 8.4426 8.15561C8.42503 8.1572 8.40751 8.15921 8.39003 8.16162C8.37256 8.16402 8.35516 8.16684 8.33783 8.17006C8.3205 8.17327 8.30327 8.17689 8.28613 8.1809C8.26899 8.18492 8.25197 8.18932 8.23507 8.19413C8.21816 8.19893 8.20139 8.20411 8.18476 8.20971C8.16811 8.21529 8.15163 8.22124 8.13531 8.22759C8.11899 8.23393 8.10284 8.24063 8.08687 8.24773C8.07089 8.25483 8.05512 8.26228 8.03954 8.27011C8.02396 8.27792 8.00859 8.28609 7.99343 8.29462C7.97828 8.30316 7.96336 8.31205 7.94867 8.32126C7.93398 8.33049 7.91954 8.34005 7.90534 8.34994C7.89115 8.35984 7.87723 8.37005 7.86358 8.38058C7.84993 8.39112 7.83655 8.40197 7.82346 8.41312C7.81037 8.42428 7.79759 8.43573 7.7851 8.44749C7.77261 8.45924 7.76043 8.47126 7.74858 8.48357C7.73672 8.49589 7.72519 8.50848 7.71399 8.52132C7.70279 8.53415 7.69193 8.54725 7.68141 8.56061C7.6709 8.57397 7.66074 8.58755 7.65093 8.60137C7.64113 8.61519 7.63169 8.62921 7.62262 8.64349C7.61355 8.65774 7.60486 8.67219 7.59654 8.68686C7.58823 8.70152 7.58031 8.71636 7.57277 8.73139C7.56524 8.74641 7.5581 8.76161 7.55136 8.77696C7.54462 8.79231 7.53829 8.80782 7.53236 8.82346C7.52642 8.83912 7.5209 8.85491 7.5158 8.87081C7.51069 8.88672 7.506 8.90272 7.50174 8.91885C7.49747 8.93498 7.49363 8.95119 7.49021 8.96749C7.48679 8.98378 7.4838 9.00016 7.48125 9.0166C7.47868 9.03304 7.47655 9.04953 7.47485 9.06606C7.47315 9.0826 7.47188 9.09917 7.47105 9.11577C7.47022 9.13238 7.46982 9.14897 7.46985 9.16559L7.46985 9.16454ZM12.6295 9.16454C12.6295 9.18116 12.6299 9.19779 12.6307 9.21439C12.6315 9.23101 12.6327 9.24758 12.6344 9.26414C12.6361 9.28069 12.6382 9.29719 12.6408 9.31364C12.6433 9.3301 12.6463 9.34648 12.6497 9.36279C12.6531 9.3791 12.657 9.39533 12.6612 9.41146C12.6655 9.42759 12.6701 9.44363 12.6752 9.45956C12.6803 9.47548 12.6858 9.49127 12.6917 9.50693C12.6977 9.5226 12.704 9.53812 12.7107 9.5535C12.7175 9.56886 12.7246 9.58406 12.7321 9.5991C12.7397 9.61416 12.7476 9.62902 12.7559 9.64368C12.7642 9.65836 12.7729 9.67283 12.7819 9.6871C12.791 9.70137 12.8004 9.71543 12.8102 9.72927C12.82 9.7431 12.8302 9.7567 12.8407 9.77006C12.8512 9.78342 12.8621 9.79653 12.8733 9.8094C12.8845 9.82227 12.896 9.83486 12.9079 9.84718C12.9197 9.85951 12.9319 9.87156 12.9444 9.88332C12.9569 9.89508 12.9697 9.90655 12.9828 9.91772C12.9959 9.9289 13.0092 9.93974 13.0229 9.9503C13.0365 9.96085 13.0505 9.97108 13.0647 9.98098C13.0789 9.99088 13.0933 10.0005 13.108 10.0097C13.1227 10.0189 13.1376 10.0278 13.1528 10.0364C13.1679 10.0449 13.1833 10.0531 13.1989 10.0609C13.2145 10.0687 13.2303 10.0762 13.2463 10.0833C13.2623 10.0904 13.2784 10.0971 13.2947 10.1035C13.3111 10.1099 13.3276 10.1158 13.3442 10.1214C13.3609 10.127 13.3776 10.1322 13.3945 10.137C13.4115 10.1418 13.4285 10.1462 13.4456 10.1502C13.4628 10.1543 13.48 10.1579 13.4974 10.1611C13.5147 10.1643 13.5321 10.1671 13.5496 10.1695C13.5671 10.1719 13.5847 10.174 13.6022 10.1756C13.6198 10.1772 13.6375 10.1784 13.6551 10.1791C13.6727 10.1799 13.6904 10.1803 13.7081 10.1803C13.7258 10.1803 13.7434 10.1799 13.761 10.1791C13.7787 10.1784 13.7963 10.1772 13.8139 10.1756C13.8314 10.174 13.849 10.172 13.8664 10.1696C13.8839 10.1672 13.9013 10.1643 13.9186 10.1611C13.936 10.1579 13.9532 10.1543 13.9704 10.1503C13.9875 10.1463 14.0045 10.1419 14.0214 10.137C14.0383 10.1322 14.0551 10.127 14.0717 10.1215C14.0884 10.1159 14.1049 10.1099 14.1212 10.1036C14.1375 10.0972 14.1536 10.0905 14.1696 10.0834C14.1856 10.0763 14.2014 10.0689 14.2169 10.0611C14.2325 10.0533 14.2479 10.0451 14.263 10.0365C14.2782 10.028 14.2931 10.0191 14.3078 10.0099C14.3225 10.0007 14.337 9.99113 14.3511 9.98122C14.3653 9.97134 14.3793 9.96113 14.3929 9.95059C14.4066 9.94005 14.4199 9.92921 14.433 9.91805C14.4461 9.90689 14.4589 9.89544 14.4714 9.88368C14.4839 9.87194 14.496 9.8599 14.5079 9.84759C14.5198 9.83527 14.5313 9.8227 14.5425 9.80986C14.5537 9.79701 14.5646 9.78391 14.5751 9.77057C14.5856 9.75721 14.5957 9.74362 14.6056 9.7298C14.6154 9.71599 14.6248 9.70194 14.6338 9.68769C14.6429 9.67343 14.6516 9.65898 14.6599 9.64432C14.6682 9.62965 14.6762 9.61481 14.6837 9.59979C14.6913 9.58477 14.6984 9.56956 14.7051 9.55422C14.7119 9.53887 14.7182 9.52336 14.7241 9.5077C14.7301 9.49205 14.7356 9.47626 14.7407 9.46036C14.7458 9.44446 14.7505 9.42846 14.7547 9.41232C14.759 9.39619 14.7629 9.37998 14.7663 9.36369C14.7697 9.34739 14.7727 9.33101 14.7752 9.31457C14.7778 9.29813 14.7799 9.28164 14.7816 9.2651C14.7833 9.24856 14.7846 9.23199 14.7854 9.2154C14.7863 9.19881 14.7867 9.18221 14.7866 9.16559C14.7863 9.14908 14.7855 9.13259 14.7843 9.11612C14.7831 9.09964 14.7814 9.0832 14.7794 9.06681C14.7774 9.0504 14.7749 9.03405 14.772 9.01776C14.7692 9.00146 14.7659 8.98525 14.7622 8.96912C14.7585 8.95297 14.7544 8.93692 14.7499 8.92097C14.7454 8.905 14.7405 8.88916 14.7352 8.87342C14.7298 8.85768 14.7241 8.84207 14.718 8.82659C14.7119 8.81112 14.7054 8.79578 14.6985 8.7806C14.6917 8.76541 14.6844 8.75037 14.6767 8.73551C14.6691 8.72065 14.661 8.70597 14.6527 8.69147C14.6443 8.67697 14.6355 8.66267 14.6264 8.64856C14.6173 8.63447 14.6078 8.62055 14.598 8.60687C14.5881 8.59318 14.578 8.57974 14.5674 8.56651C14.5569 8.55329 14.5461 8.54032 14.5349 8.52758C14.5238 8.51484 14.5123 8.50236 14.5005 8.49013C14.4887 8.47791 14.4766 8.46597 14.4641 8.45429C14.4517 8.44262 14.439 8.43123 14.426 8.42012C14.4131 8.40901 14.3998 8.39822 14.3862 8.3877C14.3727 8.37719 14.3589 8.367 14.3449 8.3571C14.3308 8.34721 14.3165 8.33765 14.302 8.32841C14.2874 8.31916 14.2727 8.31025 14.2577 8.30165C14.2427 8.29308 14.2275 8.28484 14.212 8.27694C14.1966 8.26905 14.181 8.2615 14.1652 8.2543C14.1494 8.24711 14.1335 8.24026 14.1173 8.23378C14.1012 8.22731 14.0849 8.22121 14.0684 8.21545C14.052 8.20971 14.0354 8.20434 14.0186 8.19934C14.0019 8.19433 13.9851 8.18971 13.9681 8.18547C13.9511 8.18123 13.9341 8.17736 13.9169 8.17389C13.8998 8.17042 13.8825 8.16733 13.8652 8.16464C13.8479 8.16193 13.8305 8.15962 13.8131 8.15771C13.7957 8.15578 13.7782 8.15425 13.7607 8.15313C13.7432 8.152 13.7256 8.15125 13.7081 8.15091C13.6904 8.15089 13.6728 8.15128 13.6552 8.15208C13.6376 8.15288 13.62 8.15409 13.6024 8.1557C13.5848 8.15732 13.5673 8.15932 13.5498 8.16175C13.5324 8.16418 13.515 8.16701 13.4977 8.17024C13.4804 8.17347 13.4632 8.17709 13.446 8.18112C13.4289 8.18514 13.4119 8.18956 13.395 8.19438C13.3781 8.19919 13.3613 8.20437 13.3447 8.20997C13.3281 8.21556 13.3117 8.22153 13.2953 8.22788C13.279 8.23422 13.2629 8.24096 13.2469 8.24806C13.231 8.25515 13.2152 8.26262 13.1997 8.27044C13.1841 8.27826 13.1687 8.28645 13.1536 8.29498C13.1385 8.30351 13.1236 8.3124 13.1089 8.32164C13.0942 8.33085 13.0798 8.34041 13.0656 8.35031C13.0514 8.36021 13.0375 8.37042 13.0239 8.38096C13.0103 8.3915 12.9969 8.40234 12.9838 8.4135C12.9707 8.42466 12.958 8.43611 12.9455 8.44785C12.933 8.45961 12.9209 8.47163 12.909 8.48395C12.8972 8.49626 12.8857 8.50884 12.8745 8.52168C12.8633 8.53451 12.8525 8.54761 12.8419 8.56095C12.8314 8.5743 12.8213 8.58788 12.8115 8.6017C12.8017 8.61551 12.7923 8.62954 12.7832 8.6438C12.7742 8.65804 12.7655 8.67249 12.7572 8.68715C12.7489 8.7018 12.741 8.71663 12.7334 8.73165C12.7259 8.74667 12.7188 8.76186 12.7121 8.7772C12.7053 8.79255 12.699 8.80805 12.6931 8.82369C12.6871 8.83933 12.6816 8.85509 12.6765 8.87099C12.6714 8.8869 12.6668 8.9029 12.6625 8.91901C12.6582 8.93513 12.6544 8.95134 12.651 8.96762C12.6476 8.98391 12.6446 9.00027 12.642 9.0167C12.6395 9.03312 12.6373 9.04962 12.6356 9.06614C12.6339 9.08266 12.6327 9.09922 12.6318 9.11581C12.631 9.13239 12.6306 9.14898 12.6307 9.16559L12.6295 9.16454Z"   fill="#333333" >
</path>
</svg>
