<svg xmlns="http://www.w3.org/2000/svg" xmlns:xlink="http://www.w3.org/1999/xlink" width="41.831336975097656" height="42.44769287109375" viewBox="0 0 41.831336975097656 42.44769287109375" fill="none">
<path d="M23.6572 13.8925C23.0991 13.8925 22.6606 14.3349 22.6606 14.8979L22.6606 28.0896C22.6606 28.4918 22.8998 28.894 23.2984 29.0549C23.418 29.0951 23.5376 29.1353 23.697 29.1353C23.9761 29.1353 24.2551 29.0146 24.4145 28.8538L29.0783 24.0275C29.2776 23.8264 29.3972 23.5851 29.3972 23.3036C29.3972 23.0221 29.2776 22.7405 29.0783 22.5797C28.879 22.3786 28.6399 22.2579 28.3608 22.2579C28.0818 22.2579 27.8426 22.3786 27.6433 22.5797L24.7334 25.5961L24.7334 14.8979C24.6537 14.3349 24.2152 13.8925 23.6572 13.8925Z"   fill="#1A75FF" >
</path>
<path d="M4.4436 8.66403C5.51986 8.66403 6.5164 8.26184 7.2339 7.49769C7.95141 6.77375 8.38988 5.76829 8.38988 4.68239C8.38988 3.6367 7.95141 2.63124 7.2339 1.90731C6.5164 1.14315 5.51986 0.740967 4.4436 0.740967C3.4072 0.740967 2.41066 1.14315 1.6533 1.90731C0.935791 2.63124 0.497314 3.6367 0.497314 4.68239C0.497314 5.72807 0.895929 6.73354 1.6533 7.49769C2.41066 8.22162 3.36734 8.66403 4.4436 8.66403ZM3.00859 3.35517C3.36734 3.03343 3.76595 2.87255 4.20443 2.87255C4.64291 2.87255 5.08138 3.03343 5.40027 3.35517C5.71917 3.67692 5.91847 4.11933 5.91847 4.56173C5.91847 5.04435 5.71917 5.44654 5.40027 5.76829C5.08138 6.09004 4.68277 6.29113 4.20443 6.29113C3.72609 6.29113 3.32748 6.09004 3.00859 5.76829C2.68969 5.44654 2.49039 5.04435 2.49039 4.56173C2.53025 4.11933 2.68969 3.67692 3.00859 3.35517Z"   fill="#333333" >
</path>
<path d="M22.1021 36.6964L24.0951 38.104L24.2147 38.0236C26.8456 36.4149 29.317 34.4039 31.6289 32.0713C39.4019 24.2286 43.3083 14.3751 41.3153 7.45749L41.1957 7.13574L39.362 8.9858L39.362 9.10645C40.4782 15.099 36.6913 23.6656 29.9548 30.4625C27.5631 32.8756 24.9721 34.8866 22.2615 36.4953L22.1021 36.6964Z"   fill="#333333" >
</path>
<path d="M24.9719 3.43566C28.0014 2.38998 30.8315 2.06823 33.1834 2.51063L33.3029 2.51063L35.1764 0.62036L34.8575 0.499704C31.4693 -0.465542 27.3636 -0.0231388 22.8991 1.74648L22.5005 1.86714L24.8922 3.35522L24.9719 3.43566Z"   fill="#333333" >
</path>
<path d="M33.5037 4.68239C33.5037 5.72807 33.9023 6.73354 34.6596 7.49769C35.417 8.26184 36.3737 8.66403 37.4499 8.66403C38.4863 8.66403 39.4829 8.26184 40.2402 7.49769C40.9578 6.77375 41.3962 5.76829 41.3962 4.68239C41.3962 3.6367 40.9578 2.63124 40.2402 1.90731C39.5227 1.14315 38.5262 0.740967 37.4499 0.740967C36.4135 0.740967 35.417 1.14315 34.6596 1.90731C33.9023 2.63124 33.5037 3.6367 33.5037 4.68239ZM38.8451 5.76829C38.5262 6.09004 38.1276 6.29113 37.6493 6.29113C37.2108 6.29113 36.7723 6.09004 36.4534 5.76829C36.1345 5.44654 35.9352 5.04435 35.9352 4.56173C35.9352 4.11933 36.1345 3.67692 36.4534 3.35517C37.1311 2.71168 38.2073 2.71168 38.8451 3.35517C39.164 3.67692 39.3633 4.11933 39.3633 4.56173C39.3234 5.04435 39.164 5.44654 38.8451 5.76829Z"   fill="#333333" >
</path>
<path d="M8.86874 2.63122C14.7682 1.5051 23.2587 5.32587 30.0352 12.1228C32.3471 14.4555 34.3003 16.9893 35.8948 19.6035L36.0542 19.885L37.4095 17.7534L37.3298 17.6328C35.7354 15.099 33.822 12.7261 31.6296 10.4738C23.8566 2.67144 14.0507 -1.26998 7.23442 0.700728L6.91553 0.821384L8.74915 2.67144L8.86874 2.63122Z"   fill="#333333" >
</path>
<path d="M33.0235 39.9943C27.124 41.1204 18.5937 37.2997 11.8571 30.5027C9.50528 28.17 7.5122 25.596 5.91774 22.9416L5.71844 22.6199L4.44287 24.8319L4.48273 24.9526C6.07719 27.4863 7.95068 29.8994 10.1829 32.1115C16.6405 38.5867 24.4533 42.4074 30.8312 42.4074C32.1466 42.4074 33.4221 42.2465 34.618 41.9248L34.9369 41.8041L33.1033 39.9541L33.0235 39.9943Z"   fill="#333333" >
</path>
<path d="M34.6585 35.1279C33.1438 36.6964 33.1438 39.19 34.6585 40.7585C35.4159 41.5629 36.4523 41.9249 37.4488 41.9249C38.4454 41.9249 39.4419 41.5227 40.2391 40.7585C41.7937 39.2302 41.7937 36.6964 40.2391 35.1279C38.6845 33.5996 36.1732 33.5996 34.6585 35.1279ZM38.844 39.5117C38.5251 39.8335 38.1265 40.0346 37.6481 40.0346C37.2096 40.0346 36.7712 39.8335 36.4523 39.5117C36.1334 39.19 35.9341 38.7476 35.9341 38.3052C35.9341 37.8226 36.1334 37.4204 36.4523 37.0986C36.7712 36.7769 37.2096 36.5758 37.6481 36.5758C38.1265 36.5758 38.5251 36.7367 38.844 37.0986C39.1629 37.4204 39.3622 37.8226 39.3622 38.3052C39.3223 38.7476 39.1629 39.19 38.844 39.5117Z"   fill="#333333" >
</path>
<path d="M39.9593 22.7808L38.4446 25.0732L38.4844 25.1939C39.5607 28.2505 39.8796 31.1462 39.4013 33.5191L39.4013 33.6398L41.2349 35.4898L41.3146 35.1681C42.2713 31.8299 41.8727 27.6874 40.0789 23.1829L39.9593 22.7808Z"   fill="#333333" >
</path>
<path d="M17.0005 39.0291C14.0109 40.0747 11.1807 40.3965 8.86874 39.9541L8.74915 39.9541L6.91553 41.8041L7.23442 41.9248C8.43026 42.2465 9.66597 42.4476 10.9814 42.4476C13.4528 42.4476 16.1235 41.8846 18.9537 40.7182L19.2726 40.5574L17.0802 39.0291L17.0005 39.0291Z"   fill="#333333" >
</path>
<path d="M18.1962 28.9744C18.7543 28.9744 19.2326 28.4918 19.2326 27.9287L19.2326 14.737C19.2326 14.3348 18.9536 13.9327 18.5948 13.812C18.2361 13.6511 17.7577 13.7316 17.4787 14.0533L12.8548 18.8795C12.6555 19.0806 12.5359 19.322 12.5359 19.6035C12.5359 19.885 12.6555 20.1665 12.8548 20.3274C13.0541 20.5285 13.2933 20.6492 13.5723 20.6492C13.8513 20.6492 14.0905 20.5285 14.2898 20.3274L17.1997 17.311L17.1997 28.0092C17.1997 28.532 17.6382 28.9744 18.1962 28.9744Z"   fill="#1A75FF" >
</path>
<path d="M8.35009 37.9433C8.35009 36.8976 7.91161 35.8921 7.19411 35.1682C6.4766 34.404 5.48006 34.0018 4.4038 34.0018C3.36741 34.0018 2.37087 34.404 1.6135 35.1682C0.895996 35.8921 0.45752 36.8976 0.45752 37.9433C0.45752 38.9889 0.856134 39.9944 1.6135 40.7586C2.37087 41.5227 3.32754 41.9249 4.4038 41.9249C5.48006 41.9249 6.4766 41.5227 7.19411 40.7586C7.95147 39.9944 8.35009 39.0292 8.35009 37.9433ZM3.00865 37.0987C3.32754 36.7769 3.72616 36.5758 4.2045 36.5758C4.68283 36.5758 5.08145 36.7367 5.40034 37.0987C5.71923 37.4204 5.91854 37.8226 5.91854 38.3052C5.91854 38.7476 5.71923 39.19 5.40034 39.5118C5.08145 39.8335 4.68283 40.0346 4.2045 40.0346C3.72616 40.0346 3.32754 39.8335 3.00865 39.5118C2.68976 39.19 2.49045 38.7476 2.49045 38.3052C2.53032 37.8226 2.68976 37.4204 3.00865 37.0987Z"   fill="#333333" >
</path>
<path d="M0.61753 35.4496L2.45116 33.5995L2.45116 33.4789C1.29517 27.5265 5.08202 18.9198 11.8186 12.1228C14.1306 9.83036 16.602 7.85965 19.193 6.29112L19.472 6.09003L17.3195 4.76282L17.1999 4.80304C14.7285 6.41178 12.4165 8.30205 10.2241 10.4739C2.45116 18.3567 -1.45527 28.2505 0.497945 35.1278L0.61753 35.4496Z"   fill="#333333" >
</path>
<path d="M1.89306 19.7644L3.32807 17.2709L3.32807 17.1905C2.33153 14.2143 2.01264 11.4392 2.45112 9.14674L2.45112 9.02608L0.617493 7.17603L0.497909 7.49777C-0.458765 10.8761 -0.020289 14.9784 1.69375 19.4025L1.89306 19.7644Z"   fill="#333333" >
</path>
</svg>
