<svg xmlns="http://www.w3.org/2000/svg" xmlns:xlink="http://www.w3.org/1999/xlink" width="18" height="18" viewBox="0 0 18 18" fill="none">
<path d="M9.67846 5.88323L9.67846 13.9458C9.67846 14.274 9.37386 14.5385 9 14.5385C8.62615 14.5385 8.32154 14.274 8.32154 13.9458L8.32154 5.71846L7.50739 6.63094L7.24846 6.88432C7.2404 6.89227 7.23214 6.90001 7.2237 6.90758C7.21526 6.91514 7.20664 6.92248 7.19786 6.92964C7.18906 6.93677 7.1801 6.9437 7.17098 6.9504C7.16184 6.9571 7.15254 6.9636 7.14311 6.96988C7.13367 6.97613 7.12409 6.98217 7.11436 6.98798C7.10463 6.99377 7.09477 6.99934 7.08477 7.00468C7.07478 7.01 7.06465 7.01509 7.05441 7.01993C7.04417 7.02478 7.03381 7.02936 7.02336 7.03372C7.01287 7.03805 7.00231 7.04214 6.99167 7.04598C6.98099 7.04981 6.97026 7.05338 6.95943 7.0567C6.94859 7.06001 6.93768 7.06308 6.9267 7.06588C6.91572 7.06866 6.90469 7.07118 6.89359 7.07345C6.88248 7.0757 6.87133 7.07769 6.86014 7.07943C6.84894 7.08115 6.83769 7.08261 6.82645 7.08379C6.81517 7.08496 6.80388 7.08589 6.79256 7.08653C6.78124 7.08717 6.76992 7.08753 6.7586 7.08763C6.74728 7.08772 6.73596 7.08755 6.72464 7.0871C6.71332 7.08664 6.702 7.08593 6.69072 7.08494C6.67944 7.08394 6.66817 7.08267 6.65697 7.08115C6.64572 7.0796 6.63455 7.0778 6.62342 7.07574C6.61227 7.07366 6.6012 7.07131 6.59018 7.06872C6.57914 7.06611 6.56818 7.06323 6.5573 7.0601C6.54641 7.05696 6.5356 7.05357 6.52489 7.04992C6.51416 7.04627 6.50352 7.04235 6.49299 7.03818C6.48245 7.03402 6.47202 7.02961 6.4617 7.02495C6.45136 7.02028 6.44116 7.01535 6.43109 7.0102C6.421 7.00504 6.41104 6.99964 6.40122 6.994C6.39139 6.98836 6.3817 6.98249 6.37216 6.97639C6.36262 6.97028 6.35323 6.96396 6.34399 6.95741C6.33475 6.95084 6.32567 6.94406 6.31677 6.93708C6.30783 6.93007 6.29909 6.92288 6.29053 6.91546C6.28198 6.90804 6.27359 6.90043 6.26539 6.89263C6.2574 6.88494 6.24962 6.87707 6.24205 6.869C6.23448 6.86094 6.2271 6.8527 6.21992 6.84428C6.21275 6.83584 6.20578 6.82724 6.19904 6.81848C6.1923 6.80969 6.18577 6.80074 6.17949 6.79165C6.17316 6.78257 6.16709 6.77331 6.16126 6.76392C6.15541 6.75451 6.1498 6.74497 6.14445 6.7353C6.13907 6.72561 6.13394 6.7158 6.12908 6.70588C6.12419 6.69594 6.11955 6.68589 6.11516 6.67574C6.11077 6.66558 6.10664 6.65532 6.10278 6.64494C6.0989 6.63457 6.09528 6.62412 6.09193 6.61358C6.08856 6.60303 6.08548 6.59241 6.08266 6.58172C6.07982 6.571 6.07726 6.56025 6.07499 6.54942C6.07268 6.53859 6.07066 6.52771 6.06891 6.51679C6.06715 6.50584 6.06568 6.49488 6.06447 6.4839C6.06325 6.47289 6.06233 6.46187 6.06166 6.45081C6.061 6.43976 6.06062 6.4287 6.06051 6.41765C6.0604 6.40657 6.06055 6.39552 6.061 6.38446C6.06142 6.37341 6.06214 6.36235 6.06312 6.35134C6.06411 6.34032 6.06536 6.32932 6.06689 6.31836C6.06842 6.3074 6.07022 6.29648 6.0723 6.28561C6.07437 6.27474 6.07671 6.26393 6.07933 6.25318C6.08194 6.24241 6.08482 6.23172 6.08796 6.22111C6.09108 6.21051 6.09449 6.19999 6.09816 6.18954C6.10182 6.17909 6.10573 6.16873 6.10992 6.15849C6.11408 6.14823 6.11851 6.13811 6.12319 6.12809C6.12786 6.11806 6.13279 6.10814 6.13797 6.09837C6.14314 6.08856 6.14855 6.07891 6.15421 6.06941C6.15986 6.05989 6.16572 6.05051 6.17186 6.0413C6.17795 6.03206 6.1843 6.02299 6.19088 6.01409C6.19743 6.00518 6.20423 5.99643 6.21123 5.98787C6.21822 5.9793 6.22543 5.97091 6.23285 5.9627C6.24027 5.95448 6.24788 5.94646 6.2557 5.93862L8.41985 3.65816C8.42772 3.64987 8.43579 3.64177 8.44408 3.63389C8.45235 3.626 8.46081 3.61833 8.46948 3.61088C8.47813 3.6034 8.48697 3.59615 8.49599 3.58912C8.505 3.58208 8.5142 3.57529 8.52355 3.56872C8.5329 3.56213 8.5424 3.55581 8.55208 3.54971C8.56173 3.5436 8.57156 3.53773 8.58151 3.53212C8.59147 3.5265 8.60156 3.52113 8.6118 3.51602C8.62202 3.5109 8.63236 3.50604 8.64283 3.50144C8.65328 3.49682 8.66386 3.49249 8.67454 3.48842C8.68521 3.48433 8.696 3.48052 8.70687 3.47698C8.71773 3.47342 8.72868 3.47013 8.73971 3.46714C8.75073 3.46413 8.76184 3.4614 8.77301 3.45896C8.78418 3.4565 8.79539 3.45432 8.80667 3.45243C8.81793 3.45052 8.82925 3.44889 8.84061 3.44756C8.85197 3.44622 8.86335 3.44516 8.87476 3.4444C8.88616 3.44363 8.89757 3.44313 8.90901 3.44293C8.92044 3.44272 8.93186 3.44279 8.94329 3.44315C8.95472 3.44349 8.96614 3.44414 8.97753 3.44506C8.98893 3.44597 9.00029 3.44719 9.01163 3.44868C9.02295 3.45016 9.03425 3.45194 9.04551 3.45398C9.05676 3.45603 9.06794 3.45833 9.07908 3.46095C9.09021 3.46354 9.10126 3.46642 9.11226 3.46958C9.12324 3.47272 9.13414 3.47613 9.14497 3.47982C9.1558 3.48349 9.16651 3.48745 9.17715 3.49169C9.18777 3.49589 9.19828 3.50038 9.20869 3.50513C9.2191 3.50986 9.22938 3.51484 9.23953 3.5201C9.24967 3.52535 9.25971 3.53086 9.26959 3.53661C9.27947 3.54235 9.28922 3.54833 9.2988 3.55456C9.30838 3.56079 9.31781 3.56724 9.32708 3.57394C9.33636 3.58064 9.34544 3.58755 9.35438 3.59471C9.36329 3.60185 9.37204 3.60921 9.3806 3.6168C9.38915 3.62437 9.39752 3.63217 9.4057 3.64016L11.7249 5.90261C11.9839 6.17678 11.9742 6.60877 11.7014 6.86908C11.6928 6.87729 11.684 6.8853 11.675 6.8931C11.666 6.90088 11.6568 6.90845 11.6474 6.91584C11.6381 6.9232 11.6286 6.93034 11.6189 6.93727C11.6092 6.94419 11.5993 6.95088 11.5893 6.95733C11.5793 6.96379 11.5692 6.97002 11.5589 6.976C11.5486 6.98198 11.5382 6.98772 11.5276 6.99322C11.517 6.99871 11.5064 7.00396 11.4955 7.00896C11.4847 7.01393 11.4738 7.01867 11.4628 7.02315C11.4518 7.02762 11.4406 7.03184 11.4294 7.03582C11.4182 7.03977 11.4069 7.04346 11.3955 7.04689C11.384 7.05032 11.3726 7.05348 11.361 7.05638C11.3495 7.05925 11.3379 7.06186 11.3262 7.06421C11.3145 7.06656 11.3028 7.06862 11.291 7.07042C11.2793 7.07222 11.2675 7.07373 11.2556 7.07498C11.2438 7.07621 11.2319 7.07718 11.22 7.07788C11.2081 7.07856 11.1962 7.07896 11.1843 7.07909C11.1724 7.07921 11.1605 7.07905 11.1486 7.07864C11.1367 7.0782 11.1249 7.07748 11.113 7.0765C11.1011 7.07551 11.0893 7.07425 11.0775 7.07271C11.0657 7.07116 11.0539 7.06932 11.0422 7.06724C11.0305 7.06514 11.0188 7.06277 11.0072 7.06014C10.9956 7.05749 10.984 7.05458 10.9726 7.0514C10.9611 7.04822 10.9497 7.04477 10.9384 7.04106C10.9271 7.03733 10.9159 7.03336 10.9047 7.02912C10.8936 7.02486 10.8826 7.02035 10.8717 7.0156C10.8608 7.01083 10.85 7.00583 10.8393 7.00057C10.8286 6.99529 10.8181 6.98978 10.8077 6.98402C10.7972 6.97825 10.787 6.97225 10.7768 6.966C10.7667 6.95975 10.7567 6.95328 10.7469 6.94658C10.737 6.93986 10.7274 6.93291 10.7179 6.92576C10.7084 6.91858 10.699 6.9112 10.6899 6.90361C10.6807 6.896 10.6717 6.88818 10.6629 6.88015L10.3874 6.63094L9.67846 5.88323ZM13.1677 5.53847L14.7849 5.53847C15.8511 5.53847 16.7137 4.60939 16.7137 3.46155C16.7137 2.31508 15.8497 1.38462 14.7849 1.38462L3.2137 1.38462C2.14893 1.38462 1.2863 2.31508 1.2863 3.46155C1.2863 4.60939 2.14893 5.53847 3.2137 5.53847L4.8877 5.53847C5.04 5.53847 5.16462 5.66309 5.16462 5.81538L5.16462 6.64616C5.16462 6.65068 5.1645 6.6552 5.16429 6.65975C5.16407 6.66427 5.16373 6.6688 5.16329 6.6733C5.16284 6.67781 5.16229 6.68229 5.16162 6.6868C5.16094 6.69127 5.16017 6.69573 5.1593 6.70018C5.15841 6.70461 5.15742 6.70904 5.15632 6.71345C5.15523 6.71784 5.15401 6.7222 5.15269 6.72655C5.15136 6.73087 5.14994 6.73517 5.14843 6.73944C5.1469 6.7437 5.14527 6.74793 5.14355 6.75213C5.1418 6.75631 5.13997 6.76046 5.13804 6.76456C5.13609 6.76865 5.13404 6.77269 5.13192 6.7767C5.12978 6.78069 5.12755 6.78463 5.12522 6.78853C5.12287 6.79241 5.12045 6.79624 5.11795 6.8C5.11542 6.80377 5.1128 6.80748 5.11012 6.81111C5.10743 6.81475 5.10464 6.81833 5.10177 6.82183C5.09889 6.82533 5.09592 6.82876 5.09289 6.83213C5.08984 6.83548 5.08672 6.83875 5.08352 6.84197C5.0803 6.84517 5.07703 6.84829 5.07367 6.85134C5.0703 6.85437 5.06688 6.85734 5.06338 6.86022C5.05986 6.8631 5.0563 6.86588 5.05266 6.86859C5.04901 6.87127 5.0453 6.87389 5.04155 6.87641C5.03776 6.87892 5.03394 6.88135 5.03006 6.88367C5.02616 6.886 5.02222 6.88824 5.01825 6.89038C5.01423 6.89251 5.01018 6.89456 5.00609 6.89649C5.002 6.89842 4.99786 6.90026 4.99368 6.902C4.98947 6.90374 4.98525 6.90537 4.98099 6.9069C4.97671 6.90842 4.97242 6.90984 4.96808 6.91116C4.96375 6.91247 4.95937 6.91368 4.95498 6.91478C4.95059 6.91587 4.94616 6.91688 4.94173 6.91777C4.93726 6.91864 4.9328 6.91941 4.92833 6.92008C4.92384 6.92074 4.91935 6.92129 4.91485 6.92174C4.91033 6.92218 4.9058 6.92252 4.9013 6.92275C4.89675 6.92297 4.89223 6.92309 4.8877 6.92309L3.2137 6.92309C1.44 6.92309 0 5.37232 0 3.46155C0 1.55077 1.44 0 3.2137 0L14.7849 0C16.56 0 17.9986 1.55077 17.9986 3.46155C17.9986 5.37232 16.56 6.92309 14.7863 6.92309L13.1663 6.92309C13.1618 6.92309 13.1572 6.92297 13.1527 6.92275C13.1482 6.92252 13.1437 6.92218 13.1392 6.92174C13.1347 6.92129 13.1302 6.92074 13.1257 6.92008C13.1212 6.91941 13.1167 6.91864 13.1123 6.91777C13.1078 6.91688 13.1034 6.91587 13.099 6.91478C13.0946 6.91368 13.0903 6.91247 13.0859 6.91116C13.0816 6.90984 13.0773 6.90842 13.073 6.9069C13.0687 6.90537 13.0645 6.90374 13.0603 6.902C13.0561 6.90026 13.052 6.89842 13.0479 6.89649C13.0438 6.89456 13.0398 6.89251 13.0358 6.89038C13.0318 6.88824 13.0278 6.886 13.0239 6.88367C13.02 6.88135 13.0162 6.87892 13.0125 6.87641C13.0087 6.87389 13.005 6.87127 13.0014 6.86859C12.9977 6.86588 12.9941 6.8631 12.9906 6.86022C12.9871 6.85734 12.9837 6.85437 12.9803 6.85134C12.977 6.84829 12.9737 6.84517 12.9705 6.84197C12.9673 6.83875 12.9642 6.83548 12.9611 6.83213C12.9581 6.82876 12.9551 6.82533 12.9522 6.82183C12.9494 6.81833 12.9466 6.81475 12.9439 6.81111C12.9412 6.80748 12.9386 6.80377 12.9361 6.8C12.9335 6.79624 12.9311 6.79241 12.9288 6.78853C12.9264 6.78463 12.9242 6.78069 12.9221 6.7767C12.9199 6.77269 12.9179 6.76865 12.916 6.76456C12.914 6.76046 12.9122 6.75631 12.9105 6.75213C12.9087 6.74793 12.9071 6.7437 12.9056 6.73944C12.9041 6.73517 12.9026 6.73087 12.9013 6.72655C12.9 6.7222 12.8988 6.71784 12.8977 6.71345C12.8966 6.70904 12.8956 6.70461 12.8947 6.70018C12.8938 6.69573 12.893 6.69127 12.8924 6.6868C12.8917 6.68229 12.8912 6.67781 12.8907 6.6733C12.8903 6.6688 12.8899 6.66427 12.8897 6.65975C12.8895 6.6552 12.8894 6.65068 12.8894 6.64616L12.8894 5.81538C12.8894 5.66309 13.014 5.53847 13.1663 5.53847L13.1677 5.53847ZM13.1677 12.4615C13.1632 12.4615 13.1586 12.4614 13.1541 12.4612C13.1496 12.461 13.1451 12.4606 13.1405 12.4602C13.136 12.4598 13.1315 12.4592 13.1271 12.4585C13.1226 12.4579 13.1181 12.4571 13.1137 12.4562C13.1092 12.4553 13.1048 12.4543 13.1004 12.4532C13.096 12.4521 13.0916 12.4509 13.0873 12.4496C13.083 12.4483 13.0787 12.4469 13.0744 12.4454C13.0701 12.4438 13.0659 12.4422 13.0617 12.4405C13.0575 12.4387 13.0534 12.4369 13.0493 12.435C13.0452 12.433 13.0411 12.431 13.0372 12.4288C13.0332 12.4267 13.0292 12.4245 13.0253 12.4221C13.0214 12.4198 13.0176 12.4174 13.0138 12.4149C13.0101 12.4123 13.0064 12.4097 13.0027 12.407C12.9991 12.4043 12.9955 12.4015 12.992 12.3987C12.9885 12.3958 12.9851 12.3928 12.9817 12.3898C12.9784 12.3867 12.9751 12.3836 12.9719 12.3804C12.9687 12.3772 12.9655 12.3739 12.9625 12.3706C12.9595 12.3672 12.9565 12.3638 12.9536 12.3603C12.9508 12.3568 12.948 12.3532 12.9453 12.3496C12.9426 12.3459 12.9399 12.3422 12.9374 12.3385C12.9349 12.3347 12.9325 12.3309 12.9302 12.327C12.9278 12.3231 12.9256 12.3191 12.9235 12.3152C12.9213 12.3112 12.9193 12.3071 12.9174 12.303C12.9154 12.2989 12.9136 12.2948 12.9119 12.2906C12.9101 12.2864 12.9085 12.2822 12.907 12.2779C12.9054 12.2736 12.904 12.2693 12.9027 12.265C12.9014 12.2606 12.9002 12.2563 12.8991 12.2519C12.898 12.2475 12.897 12.2431 12.8961 12.2386C12.8952 12.2342 12.8944 12.2297 12.8938 12.2253C12.8931 12.2208 12.8925 12.2163 12.8921 12.2118C12.8917 12.2072 12.8913 12.2027 12.8911 12.1982C12.8909 12.1937 12.8908 12.1891 12.8908 12.1846L12.8908 11.3539C12.8908 11.2015 13.0154 11.0769 13.1677 11.0769L14.7863 11.0769C16.5614 11.0769 18 12.6277 18 14.5385C18 16.4492 16.56 18 14.7863 18L3.21508 18C1.44 18 0.0013857 16.4492 0.0013857 14.5385C0.0013857 12.6277 1.44 11.0769 3.2137 11.0769L4.8877 11.0769C5.04 11.0769 5.16462 11.2015 5.16462 11.3539L5.16462 12.1846C5.16462 12.1891 5.1645 12.1937 5.16429 12.1982C5.16407 12.2027 5.16373 12.2072 5.16329 12.2118C5.16284 12.2163 5.16229 12.2208 5.16162 12.2253C5.16094 12.2297 5.16017 12.2342 5.1593 12.2386C5.15841 12.2431 5.15742 12.2475 5.15632 12.2519C5.15523 12.2563 5.15401 12.2606 5.15269 12.265C5.15136 12.2693 5.14994 12.2736 5.14843 12.2779C5.1469 12.2822 5.14527 12.2864 5.14355 12.2906C5.1418 12.2948 5.13997 12.2989 5.13804 12.303C5.13609 12.3071 5.13404 12.3112 5.13192 12.3152C5.12978 12.3191 5.12755 12.3231 5.12522 12.327C5.12287 12.3309 5.12045 12.3347 5.11795 12.3385C5.11542 12.3422 5.1128 12.3459 5.11012 12.3496C5.10743 12.3532 5.10464 12.3568 5.10177 12.3603C5.09889 12.3638 5.09592 12.3672 5.09289 12.3706C5.08984 12.3739 5.08672 12.3772 5.08352 12.3804C5.0803 12.3836 5.07703 12.3867 5.07367 12.3898C5.0703 12.3928 5.06688 12.3958 5.06338 12.3987C5.05986 12.4015 5.0563 12.4043 5.05266 12.407C5.04901 12.4097 5.0453 12.4123 5.04155 12.4149C5.03776 12.4174 5.03394 12.4198 5.03006 12.4221C5.02616 12.4245 5.02222 12.4267 5.01825 12.4288C5.01423 12.431 5.01018 12.433 5.00609 12.435C5.002 12.4369 4.99786 12.4387 4.99368 12.4404C4.98947 12.4422 4.98525 12.4438 4.98099 12.4454C4.97671 12.4469 4.97242 12.4483 4.96808 12.4496C4.96375 12.4509 4.95937 12.4521 4.95498 12.4532C4.95059 12.4543 4.94616 12.4553 4.94173 12.4562C4.93726 12.4571 4.9328 12.4579 4.92833 12.4585C4.92384 12.4592 4.91935 12.4598 4.91485 12.4602C4.91033 12.4606 4.9058 12.461 4.9013 12.4612C4.89675 12.4614 4.89223 12.4615 4.8877 12.4615L3.21508 12.4615C2.14893 12.4615 1.2863 13.392 1.2863 14.5385C1.2863 15.6863 2.15031 16.6154 3.21508 16.6154L14.7863 16.6154C15.8511 16.6154 16.7137 15.6863 16.7137 14.5385C16.7137 13.392 15.8511 12.4615 14.7863 12.4615L13.1663 12.4615L13.1677 12.4615ZM1.92877 9.69509C1.57431 9.69509 1.2863 9.38631 1.2863 9.00277C1.2863 8.62062 1.57431 8.31047 1.92877 8.31047L4.86001 8.31047C5.01232 8.31047 5.13692 8.43509 5.13692 8.58738L5.13692 9.41815C5.13692 9.42268 5.13681 9.4272 5.1366 9.43175C5.13637 9.43627 5.13603 9.44079 5.1356 9.4453C5.13514 9.44981 5.13459 9.45429 5.13393 9.4588C5.13325 9.46327 5.13247 9.46773 5.1316 9.47218C5.13071 9.47661 5.12973 9.48104 5.12863 9.48545C5.12753 9.48984 5.12632 9.4942 5.12501 9.49855C5.12369 9.50287 5.12225 9.50716 5.12074 9.51144C5.1192 9.5157 5.11757 9.51992 5.11585 9.52413C5.11411 9.52831 5.11227 9.53246 5.11034 9.53656C5.10839 9.54065 5.10635 9.54468 5.10423 9.5487C5.10209 9.55269 5.09985 9.55663 5.09753 9.56053C5.0952 9.56441 5.09278 9.56823 5.09026 9.572C5.08774 9.57577 5.08513 9.57948 5.08244 9.58311C5.07973 9.58675 5.07695 9.59033 5.07407 9.59383C5.07119 9.59733 5.06822 9.60076 5.06519 9.60413C5.06215 9.60748 5.05902 9.61075 5.05582 9.61397C5.05261 9.61717 5.04933 9.62029 5.04598 9.62334C5.04261 9.62637 5.03918 9.62934 5.03568 9.63222C5.03218 9.6351 5.0286 9.63788 5.02497 9.64059C5.02133 9.64327 5.01762 9.64589 5.01385 9.6484C5.01007 9.65092 5.00624 9.65334 5.00236 9.65567C4.99846 9.658 4.99453 9.66024 4.99055 9.66237C4.98654 9.66451 4.98249 9.66656 4.9784 9.66849C4.97431 9.67042 4.97016 9.67226 4.96598 9.674C4.96178 9.67574 4.95756 9.67737 4.9533 9.6789C4.94902 9.68042 4.94472 9.68183 4.94039 9.68316C4.93605 9.68447 4.93168 9.68568 4.92729 9.68678C4.92289 9.68787 4.91847 9.68888 4.91404 9.68977C4.90959 9.69064 4.90512 9.69141 4.90063 9.69208C4.89615 9.69274 4.89166 9.69329 4.88715 9.69374C4.88263 9.69418 4.87811 9.69452 4.8736 9.69475C4.86906 9.69497 4.86453 9.69509 4.86001 9.69509L1.92877 9.69509ZM13.0929 9.41539L13.0929 8.58462C13.0929 8.4323 13.2175 8.3077 13.3699 8.3077L16.56 8.3077C16.5713 8.3077 16.5826 8.30797 16.594 8.30854C16.6053 8.30909 16.6166 8.30992 16.6279 8.31104C16.6391 8.31213 16.6504 8.31352 16.6616 8.31518C16.6728 8.31685 16.6839 8.31878 16.6951 8.32099C16.7062 8.32319 16.7172 8.32569 16.7282 8.32845C16.7392 8.3312 16.7501 8.33421 16.761 8.3375C16.7718 8.34079 16.7825 8.34433 16.7932 8.34816C16.8039 8.35198 16.8145 8.35605 16.8249 8.36039C16.8354 8.36472 16.8458 8.36932 16.856 8.37417C16.8662 8.37901 16.8764 8.38411 16.8864 8.38945C16.8963 8.39478 16.9062 8.40037 16.9159 8.4062C16.9256 8.41201 16.9352 8.41807 16.9446 8.42437C16.954 8.43066 16.9633 8.43719 16.9724 8.44395C16.9815 8.45068 16.9904 8.45765 16.9992 8.46484C17.0079 8.47202 17.0165 8.47942 17.0249 8.48703C17.0333 8.49464 17.0415 8.50244 17.0495 8.51047C17.0575 8.51847 17.0654 8.52667 17.073 8.53508C17.0806 8.54346 17.088 8.55204 17.0952 8.5608C17.1024 8.56955 17.1093 8.57848 17.1161 8.58759C17.1228 8.59669 17.1293 8.60595 17.1356 8.61538C17.1419 8.62479 17.148 8.63437 17.1538 8.6441C17.1596 8.65381 17.1652 8.66365 17.1706 8.67365C17.1759 8.68364 17.181 8.69375 17.1858 8.70401C17.1907 8.71423 17.1953 8.72459 17.1996 8.73507C17.2039 8.74552 17.208 8.75609 17.2118 8.76676C17.2157 8.77744 17.2192 8.78819 17.2225 8.79904C17.2258 8.80987 17.2288 8.82079 17.2316 8.83179C17.2343 8.84277 17.2368 8.85382 17.239 8.86494C17.2412 8.87605 17.2432 8.88722 17.2448 8.89842C17.2465 8.90963 17.2479 8.92086 17.249 8.93214C17.2501 8.94342 17.2509 8.95472 17.2515 8.96604C17.252 8.97734 17.2523 8.98866 17.2523 9C17.2523 9.01132 17.252 9.02266 17.2515 9.03398C17.2509 9.04529 17.2501 9.05659 17.249 9.06787C17.2479 9.07913 17.2465 9.09038 17.2448 9.10158C17.2432 9.11279 17.2412 9.12394 17.239 9.13507C17.2368 9.14616 17.2343 9.15722 17.2316 9.16822C17.2288 9.1792 17.2258 9.19012 17.2225 9.20097C17.2192 9.2118 17.2157 9.22257 17.2118 9.23324C17.208 9.2439 17.2039 9.25446 17.1996 9.26493C17.1953 9.2754 17.1907 9.28576 17.1858 9.296C17.181 9.30624 17.1759 9.31637 17.1706 9.32636C17.1652 9.33634 17.1596 9.34618 17.1538 9.35591C17.148 9.36564 17.1419 9.3752 17.1356 9.38463C17.1293 9.39404 17.1228 9.40329 17.1161 9.41242C17.1093 9.4215 17.1024 9.43044 17.0952 9.43921C17.088 9.44795 17.0806 9.45653 17.073 9.46493C17.0654 9.47332 17.0575 9.48151 17.0495 9.48954C17.0415 9.49755 17.0333 9.50537 17.0249 9.51298C17.0165 9.52059 17.0079 9.52797 16.9992 9.53516C16.9904 9.54236 16.9815 9.54932 16.9724 9.55606C16.9633 9.5628 16.954 9.56933 16.9446 9.57564C16.9352 9.58192 16.9256 9.58798 16.9159 9.59381C16.9062 9.59964 16.8963 9.60522 16.8864 9.61056C16.8764 9.6159 16.8662 9.62099 16.856 9.62584C16.8458 9.63068 16.8354 9.63527 16.8249 9.63962C16.8145 9.64394 16.8039 9.64803 16.7932 9.65185C16.7825 9.65565 16.7718 9.65921 16.761 9.66251C16.7501 9.66578 16.7392 9.66879 16.7282 9.67156C16.7172 9.67432 16.7062 9.6768 16.6951 9.67901C16.6839 9.68121 16.6728 9.68316 16.6616 9.68483C16.6504 9.68647 16.6391 9.68785 16.6279 9.68897C16.6166 9.69007 16.6053 9.6909 16.594 9.69147C16.5826 9.69202 16.5713 9.6923 16.56 9.6923L13.3699 9.6923C13.3653 9.6923 13.3608 9.69219 13.3563 9.69198C13.3517 9.69175 13.3472 9.69141 13.3427 9.69098C13.3382 9.69052 13.3337 9.68997 13.3292 9.68931C13.3247 9.68863 13.3203 9.68785 13.3158 9.68698C13.3114 9.68609 13.3069 9.68511 13.3026 9.68401C13.2982 9.68291 13.2938 9.6817 13.2895 9.6804C13.2851 9.67907 13.2808 9.67763 13.2766 9.67612C13.2723 9.67458 13.268 9.67296 13.2639 9.67123C13.2597 9.66949 13.2555 9.66766 13.2514 9.66572C13.2474 9.66379 13.2433 9.66175 13.2393 9.65961C13.2353 9.65747 13.2314 9.65524 13.2275 9.65291C13.2236 9.65058 13.2198 9.64816 13.216 9.64564C13.2122 9.64312 13.2085 9.64051 13.2049 9.63782C13.2012 9.63511 13.1977 9.63233 13.1942 9.62945C13.1907 9.62658 13.1872 9.6236 13.1839 9.62058C13.1805 9.61753 13.1772 9.6144 13.174 9.61121C13.1708 9.60799 13.1677 9.60471 13.1647 9.60136C13.1616 9.59799 13.1587 9.59457 13.1558 9.59106C13.1529 9.58756 13.1501 9.58398 13.1474 9.58035C13.1447 9.57671 13.1421 9.573 13.1396 9.56924C13.1371 9.56545 13.1346 9.56163 13.1323 9.55775C13.13 9.55385 13.1278 9.54991 13.1256 9.54593C13.1235 9.54192 13.1214 9.53787 13.1195 9.53378C13.1176 9.52969 13.1157 9.52555 13.114 9.52136C13.1123 9.51716 13.1106 9.51294 13.1091 9.50868C13.1076 9.5044 13.1062 9.5001 13.1048 9.49577C13.1035 9.49143 13.1023 9.48706 13.1012 9.48267C13.1001 9.47828 13.0991 9.47385 13.0982 9.46942C13.0973 9.46497 13.0966 9.4605 13.0959 9.45602C13.0952 9.45153 13.0947 9.44704 13.0943 9.44254C13.0938 9.43801 13.0935 9.43349 13.0933 9.42898C13.093 9.42444 13.0929 9.41992 13.0929 9.41539Z"   fill="#333333" >
</path>
</svg>
