<svg xmlns="http://www.w3.org/2000/svg" xmlns:xlink="http://www.w3.org/1999/xlink" width="18.35382080078125" height="17.61932373046875" viewBox="0 0 18.35382080078125 17.61932373046875" fill="none">
<path d="M18.353 12.2822C18.3524 12.2726 18.3516 12.2631 18.3506 12.2536C18.3496 12.2441 18.3484 12.2346 18.3469 12.2251C18.3454 12.2157 18.3437 12.2062 18.3418 12.1969C18.3398 12.1875 18.3377 12.1782 18.3353 12.1689C18.3329 12.1596 18.3302 12.1504 18.3274 12.1413C18.3245 12.1321 18.3214 12.1231 18.3181 12.1141C18.3148 12.1051 18.3112 12.0962 18.3075 12.0873C18.3037 12.0785 18.2998 12.0698 18.2956 12.0612C18.2914 12.0525 18.287 12.044 18.2824 12.0356C18.2778 12.0272 18.273 12.0189 18.268 12.0107C18.2629 12.0025 18.2577 11.9944 18.2523 11.9865C18.2469 11.9785 18.2413 11.9708 18.2354 11.9631C18.2297 11.9554 18.2237 11.9479 18.2175 11.9405C18.2113 11.9332 18.2049 11.9259 18.1984 11.9189C18.1919 11.9118 18.1852 11.9049 18.1783 11.8982C18.1714 11.8914 18.1644 11.8849 18.1572 11.8784L13.7383 7.95449L16.7139 4.56108C16.8173 4.4437 16.8681 4.2906 16.8566 4.13556C16.7141 2.24657 15.2267 0.756155 13.3201 0.591752C13.1142 0.573997 12.9046 0.572531 12.6971 0.587276C12.6878 0.587934 12.6787 0.588808 12.6695 0.589897C12.6603 0.590983 12.6512 0.592283 12.6421 0.593796C12.633 0.595308 12.6239 0.59703 12.6149 0.598966C12.6059 0.600898 12.5969 0.603039 12.588 0.605389C12.5791 0.60774 12.5702 0.610296 12.5614 0.613059C12.5526 0.615819 12.5439 0.618783 12.5352 0.621951C12.5266 0.625118 12.518 0.628484 12.5095 0.632051C12.501 0.635617 12.4926 0.639378 12.4843 0.643335C12.476 0.64729 12.4678 0.651437 12.4596 0.655775C12.4515 0.660116 12.4435 0.664641 12.4356 0.669352C12.4277 0.674063 12.4199 0.678954 12.4123 0.684027C12.4046 0.6891 12.397 0.694348 12.3896 0.699772C12.3822 0.705194 12.3749 0.710789 12.3678 0.716553C12.3606 0.722313 12.3536 0.72824 12.3468 0.734331C12.3399 0.740418 12.3332 0.746664 12.3266 0.753066C12.32 0.759468 12.3136 0.766018 12.3073 0.772716L9.2856 4.00027L4.94985 0.149744C4.83364 0.0460984 4.68233 -0.00676596 4.52293 0.000674844C4.51329 0.0011977 4.50367 0.00195324 4.49405 0.00294006C4.48443 0.00392783 4.47485 0.00514793 4.4653 0.0065977C4.45575 0.00804889 4.44622 0.00972879 4.43675 0.0116408C4.42727 0.0135497 4.41787 0.0156898 4.40849 0.018056C4.39914 0.0204225 4.38984 0.0230142 4.3806 0.0258293C4.37135 0.0286447 4.3622 0.0316823 4.35312 0.0349441C4.34403 0.0382021 4.33505 0.0416793 4.32615 0.045376C4.31723 0.0490708 4.30842 0.0529788 4.29968 0.0570959C4.29098 0.0612188 4.28237 0.0655487 4.27387 0.0700853C4.26534 0.0746201 4.25697 0.0793632 4.24871 0.0843068C4.24045 0.0892503 4.23232 0.0943919 4.22428 0.0997261C4.21628 0.105066 4.20842 0.110593 4.20068 0.116313C4.19293 0.12203 4.18533 0.127931 4.1779 0.134019C4.17045 0.140103 4.16318 0.146368 4.15604 0.152807C4.14891 0.159245 4.14192 0.165852 4.13514 0.172631C4.12831 0.179407 4.12169 0.186344 4.11523 0.193444L0.150839 4.5582C-0.0668266 4.79799 -0.0465482 5.1674 0.196731 5.38339L4.45248 9.1627L2.50571 11.2421C2.49053 11.2583 2.47635 11.2752 2.46316 11.293C2.44995 11.3108 2.43781 11.3292 2.42673 11.3484C2.41565 11.3675 2.40569 11.3872 2.39685 11.4075C2.38803 11.4277 2.38041 11.4484 2.37398 11.4695L0.727015 16.8651C0.725044 16.8715 0.72319 16.878 0.721455 16.8845C0.719704 16.891 0.718079 16.8976 0.71658 16.9041C0.715063 16.9107 0.713668 16.9173 0.712391 16.9239C0.711098 16.9305 0.709931 16.9371 0.708891 16.9438C0.707836 16.9504 0.706901 16.9571 0.706085 16.9638C0.705268 16.9705 0.704569 16.9772 0.703991 16.9839C0.703412 16.9906 0.702946 16.9973 0.702593 17.004C0.702252 17.0107 0.702026 17.0175 0.701915 17.0242C0.7018 17.0309 0.701807 17.0377 0.701934 17.0444C0.702049 17.0511 0.702288 17.0579 0.702657 17.0646C0.703011 17.0713 0.703487 17.078 0.704083 17.0847C0.704678 17.0915 0.705389 17.0982 0.706214 17.1048C0.70704 17.1115 0.707989 17.1182 0.709055 17.1248C0.71011 17.1315 0.711286 17.1381 0.712583 17.1447C0.713866 17.1514 0.715272 17.158 0.716802 17.1645C0.718331 17.1711 0.719966 17.1776 0.721715 17.1841C0.72346 17.1907 0.725322 17.1971 0.727299 17.2036C0.729291 17.21 0.731386 17.2164 0.733583 17.2228C0.735776 17.2292 0.738091 17.2355 0.740521 17.2418C0.74295 17.2481 0.745483 17.2544 0.748117 17.2606C0.750767 17.2668 0.753521 17.273 0.756376 17.2791C0.75923 17.2852 0.762189 17.2913 0.765252 17.2973C0.768328 17.3033 0.771502 17.3093 0.774773 17.3152C0.778058 17.3211 0.781439 17.3269 0.784916 17.3327C0.788407 17.3385 0.791991 17.3442 0.795663 17.3499C0.799349 17.3556 0.803135 17.3612 0.807016 17.3667C0.810883 17.3723 0.814854 17.3778 0.818934 17.3832C0.822995 17.3886 0.827157 17.3939 0.831418 17.3992C0.835676 17.4045 0.840022 17.4096 0.844449 17.4148C0.848892 17.4199 0.853419 17.4249 0.85803 17.4299C0.86264 17.4348 0.867335 17.4397 0.872117 17.4445C0.876912 17.4493 0.881779 17.4541 0.886716 17.4587C0.898766 17.47 0.911273 17.4807 0.924233 17.491C0.937194 17.5012 0.95056 17.5109 0.96434 17.5201C0.978119 17.5292 0.992261 17.5377 1.00676 17.5457C1.02126 17.5536 1.03607 17.561 1.0512 17.5677C1.06633 17.5745 1.08171 17.5805 1.09736 17.586C1.11298 17.5914 1.12883 17.5963 1.14489 17.6004C1.16093 17.6045 1.17713 17.608 1.19347 17.6108C1.20979 17.6136 1.22623 17.6157 1.24276 17.6171C1.3267 17.6243 1.41276 17.614 1.49498 17.5844L6.88384 15.6584C6.90745 15.6501 6.9304 15.6403 6.95273 15.629C6.97504 15.6177 6.99654 15.6051 7.01718 15.591C7.03786 15.577 7.05754 15.5618 7.07619 15.5452C7.09487 15.5287 7.1124 15.5111 7.12876 15.4923L9.07737 13.27L13.4032 17.112C13.4149 17.1225 13.4272 17.1326 13.4398 17.1421C13.4524 17.1517 13.4655 17.1607 13.4788 17.1692C13.4922 17.1777 13.5059 17.1857 13.5199 17.1931C13.5339 17.2005 13.5482 17.2073 13.5628 17.2136C13.5774 17.2198 13.5922 17.2255 13.6072 17.2306C13.6223 17.2357 13.6375 17.2401 13.6529 17.244C13.6683 17.2478 13.6838 17.2511 13.6995 17.2537C13.7152 17.2563 13.7309 17.2583 13.7468 17.2596C13.9256 17.275 14.1085 17.2103 14.2378 17.0686L18.203 12.7039C18.2094 12.6968 18.2157 12.6895 18.2218 12.6821C18.2279 12.6747 18.2338 12.6671 18.2395 12.6594C18.2452 12.6517 18.2508 12.6439 18.2561 12.6359C18.2614 12.6279 18.2665 12.6198 18.2715 12.6116C18.2764 12.6034 18.2811 12.5951 18.2856 12.5866C18.2901 12.5781 18.2944 12.5696 18.2985 12.5609C18.3026 12.5523 18.3064 12.5435 18.3101 12.5346C18.3138 12.5258 18.3172 12.5169 18.3204 12.5079C18.3236 12.4988 18.3266 12.4897 18.3293 12.4806C18.3321 12.4714 18.3346 12.4622 18.3369 12.4529C18.3392 12.4436 18.3413 12.4343 18.3431 12.4249C18.3449 12.4155 18.3465 12.4061 18.3479 12.3966C18.3493 12.3871 18.3504 12.3777 18.3513 12.3681C18.3522 12.3586 18.3528 12.3491 18.3533 12.3395C18.3537 12.33 18.3539 12.3204 18.3538 12.3109C18.3537 12.3013 18.3535 12.2917 18.3529 12.2822L18.353 12.2822ZM13.0086 1.74575C14.3335 1.76151 15.4433 2.71883 15.6502 3.98855L14.3817 5.43517C14.1532 4.87329 13.7907 4.36951 13.3134 3.96257C12.842 3.56009 12.2921 3.28146 11.7043 3.13885L13.0086 1.74575ZM1.42571 4.90552L4.60134 1.40935L5.32213 2.0495L4.65998 2.77855C4.4423 3.01834 4.46259 3.38775 4.70588 3.60374C4.71767 3.61426 4.7299 3.6243 4.74255 3.63383C4.75518 3.64338 4.76816 3.65241 4.78153 3.66091C4.7949 3.6694 4.80861 3.67736 4.82262 3.68476C4.83665 3.69219 4.85097 3.69902 4.86552 3.70527C4.8801 3.71153 4.89492 3.71721 4.90994 3.72228C4.925 3.72736 4.94022 3.73184 4.95561 3.73569C4.97103 3.73953 4.98657 3.74276 5.00223 3.74537C5.0179 3.748 5.03366 3.74999 5.04947 3.75134C5.22834 3.76676 5.41181 3.70212 5.5405 3.56001L6.20233 2.83125L7.01753 3.55527L6.39947 4.23537C6.18179 4.47518 6.20207 4.84458 6.44537 5.06057C6.45716 5.07111 6.46937 5.08117 6.48199 5.09073C6.49463 5.1003 6.50763 5.10936 6.52099 5.11788C6.53433 5.12641 6.54802 5.13437 6.56203 5.14179C6.57606 5.14921 6.59036 5.15607 6.60493 5.16234C6.61951 5.16864 6.63433 5.1743 6.64939 5.17938C6.66443 5.18447 6.67965 5.18896 6.69507 5.1928C6.71047 5.19667 6.72601 5.19992 6.74167 5.20253C6.75737 5.20514 6.77312 5.20713 6.78893 5.20847C6.96781 5.2239 7.15069 5.15918 7.27995 5.01744L7.89805 4.3373L8.48337 4.85716L5.25472 8.30579L1.42571 4.90552ZM3.291 12.5124C3.30479 12.5124 3.31857 12.512 3.3323 12.5111C4.57541 12.4208 5.67017 13.3516 5.76363 14.5855C5.76502 14.6036 5.76726 14.6217 5.77032 14.6396C5.7734 14.6576 5.77735 14.6753 5.78212 14.6929C5.78689 14.7105 5.79248 14.7278 5.79891 14.7449C5.80532 14.762 5.81251 14.7787 5.82053 14.7951L2.19922 16.0895L3.291 12.5124ZM6.86758 14.0044C6.55283 12.6225 5.39599 11.5766 3.99538 11.3729L10.7129 4.19783C11.3826 4.18148 12.0294 4.40947 12.5424 4.84675C13.0428 5.27344 13.3621 5.85328 13.4532 6.49405L12.5016 7.57926C12.4905 7.5898 6.86758 14.0044 6.86758 14.0044ZM13.7522 15.8525L9.85109 12.3877L12.9647 8.8368L13.5374 9.34538L12.8397 10.1136C12.6221 10.3534 12.6424 10.7228 12.8856 10.9388C12.8974 10.9493 12.9097 10.9594 12.9223 10.9689C12.9349 10.9785 12.9479 10.9875 12.9613 10.996C12.9747 11.0045 12.9884 11.0125 13.0024 11.0199C13.0164 11.0273 13.0307 11.0341 13.0453 11.0404C13.0599 11.0466 13.0747 11.0523 13.0897 11.0574C13.1047 11.0625 13.12 11.0669 13.1354 11.0708C13.1508 11.0746 13.1663 11.0779 13.182 11.0805C13.1977 11.0831 13.2134 11.0851 13.2293 11.0864C13.4081 11.1018 13.5916 11.0372 13.7203 10.8951L14.4178 10.1271L15.1941 10.8165L14.5366 11.5402C14.319 11.7803 14.3392 12.1497 14.5825 12.3657C14.5943 12.3762 14.6065 12.3862 14.6192 12.3958C14.6318 12.4053 14.6448 12.4143 14.6582 12.4228C14.6716 12.4313 14.6852 12.4393 14.6993 12.4467C14.7133 12.4541 14.7276 12.461 14.7422 12.4672C14.7568 12.4735 14.7716 12.4791 14.7866 12.4842C14.8016 12.4893 14.8169 12.4938 14.8323 12.4976C14.8477 12.5015 14.8632 12.5047 14.8789 12.5073C14.8945 12.5099 14.9103 12.5119 14.9261 12.5133C15.105 12.5287 15.2885 12.464 15.4171 12.3222L16.0747 11.5984L16.9282 12.3563L13.7522 15.8525Z"   fill="#333333" >
</path>
</svg>
