<svg xmlns="http://www.w3.org/2000/svg" xmlns:xlink="http://www.w3.org/1999/xlink" width="18" height="18" viewBox="0 0 18 18" fill="none">
<path d="M10.6667 5.33333L2 5.33333C0.897333 5.33333 0 6.23067 0 7.33333L0 16C0 17.1027 0.897333 18 2 18L10.6667 18C11.7693 18 12.6667 17.1027 12.6667 16L12.6667 7.33333C12.6667 6.23067 11.7693 5.33333 10.6667 5.33333ZM11.3333 16C11.3333 16.0109 11.3331 16.0218 11.3325 16.0327C11.332 16.0436 11.3312 16.0545 11.3301 16.0654C11.3291 16.0762 11.3277 16.087 11.3261 16.0978C11.3245 16.1086 11.3226 16.1194 11.3205 16.1301C11.3184 16.1408 11.316 16.1514 11.3134 16.162C11.3107 16.1726 11.3078 16.1831 11.3046 16.1935C11.3015 16.204 11.298 16.2143 11.2944 16.2246C11.2907 16.2349 11.2868 16.245 11.2826 16.2551C11.2784 16.2652 11.274 16.2752 11.2693 16.285C11.2647 16.2949 11.2598 16.3046 11.2546 16.3143C11.2495 16.3239 11.2441 16.3334 11.2385 16.3427C11.2329 16.3521 11.227 16.3613 11.221 16.3704C11.2149 16.3794 11.2086 16.3884 11.2021 16.3971C11.1956 16.4059 11.1889 16.4145 11.182 16.4229C11.1751 16.4314 11.168 16.4396 11.1606 16.4477C11.1533 16.4558 11.1458 16.4637 11.1381 16.4714C11.1304 16.4791 11.1225 16.4866 11.1144 16.494C11.1063 16.5013 11.098 16.5084 11.0896 16.5153C11.0812 16.5223 11.0726 16.529 11.0638 16.5355C11.055 16.542 11.0461 16.5483 11.037 16.5543C11.028 16.5604 11.0188 16.5662 11.0094 16.5718C11 16.5774 10.9905 16.5828 10.9809 16.5879C10.9713 16.5931 10.9616 16.598 10.9517 16.6027C10.9419 16.6073 10.9319 16.6117 10.9218 16.6159C10.9117 16.6201 10.9015 16.624 10.8912 16.6277C10.881 16.6314 10.8706 16.6348 10.8602 16.638C10.8497 16.6411 10.8392 16.644 10.8286 16.6467C10.8181 16.6493 10.8074 16.6517 10.7967 16.6539C10.786 16.656 10.7753 16.6579 10.7645 16.6595C10.7537 16.6611 10.7429 16.6624 10.732 16.6635C10.7212 16.6645 10.7103 16.6653 10.6994 16.6659C10.6885 16.6664 10.6776 16.6667 10.6667 16.6667L2 16.6667C1.63267 16.6667 1.33333 16.368 1.33333 16L1.33333 7.33333C1.33333 6.966 1.63267 6.66667 2 6.66667L10.6667 6.66667C11.0347 6.66667 11.3333 6.966 11.3333 7.33333L11.3333 16ZM13.3333 2.66667L4.66667 2.66667C4.65575 2.66667 4.64485 2.66694 4.63396 2.66748C4.62306 2.668 4.61217 2.66881 4.60131 2.66987C4.59046 2.67094 4.57965 2.67227 4.56885 2.67388C4.55806 2.67548 4.54731 2.67735 4.5366 2.67948C4.52592 2.6816 4.51527 2.684 4.50469 2.68665C4.4941 2.68929 4.48358 2.69221 4.47315 2.69537C4.46271 2.69854 4.45235 2.70196 4.44208 2.70565C4.43181 2.70931 4.42163 2.71323 4.41154 2.71742C4.40146 2.72158 4.39148 2.726 4.38163 2.73067C4.37177 2.73533 4.36202 2.74025 4.3524 2.7454C4.34277 2.75054 4.33329 2.75592 4.32394 2.76152C4.31458 2.76712 4.30535 2.77296 4.29629 2.77902C4.28723 2.78508 4.27831 2.79135 4.26954 2.79785C4.26077 2.80435 4.25217 2.81106 4.24373 2.818C4.23529 2.82492 4.22704 2.83204 4.21896 2.83938C4.21088 2.84669 4.20298 2.85421 4.19527 2.86194C4.18754 2.86965 4.18002 2.87754 4.17271 2.88562C4.16538 2.89371 4.15825 2.90196 4.15133 2.9104C4.1444 2.91883 4.13769 2.92744 4.13119 2.93621C4.12469 2.94498 4.11842 2.9539 4.11235 2.96296C4.10629 2.97202 4.10046 2.98125 4.09485 2.9906C4.08925 2.99996 4.08388 3.00944 4.07873 3.01906C4.07358 3.02869 4.06867 3.03844 4.064 3.04829C4.05933 3.05815 4.05492 3.06813 4.05075 3.07821C4.04656 3.08829 4.04265 3.09846 4.03898 3.10873C4.03529 3.119 4.03188 3.12937 4.02871 3.13981C4.02554 3.15025 4.02262 3.16077 4.01998 3.17135C4.01733 3.18194 4.01494 3.19258 4.01281 3.20327C4.01069 3.21398 4.00881 3.22473 4.00721 3.23552C4.0056 3.24631 4.00427 3.25712 4.00321 3.26798C4.00215 3.27883 4.00133 3.28973 4.00081 3.30063C4.00027 3.31152 4 3.32242 4 3.33333C4 3.34425 4.00027 3.35515 4.00081 3.36604C4.00133 3.37694 4.00215 3.38783 4.00321 3.39869C4.00427 3.40954 4.0056 3.42035 4.00721 3.43115C4.00881 3.44194 4.01069 3.45269 4.01281 3.4634C4.01494 3.47408 4.01733 3.48473 4.01998 3.49531C4.02262 3.5059 4.02554 3.51642 4.02871 3.52685C4.03188 3.53729 4.03529 3.54765 4.03898 3.55792C4.04265 3.56819 4.04656 3.57838 4.05075 3.58846C4.05492 3.59854 4.05933 3.60852 4.064 3.61838C4.06867 3.62823 4.07358 3.63798 4.07873 3.6476C4.08388 3.65721 4.08925 3.66671 4.09485 3.67606C4.10046 3.68542 4.10629 3.69465 4.11235 3.70371C4.11842 3.71277 4.12469 3.72169 4.13119 3.73046C4.13769 3.73923 4.1444 3.74783 4.15133 3.75627C4.15825 3.76471 4.16538 3.77296 4.17271 3.78104C4.18002 3.78912 4.18754 3.79702 4.19527 3.80473C4.20298 3.81246 4.21088 3.81998 4.21896 3.82729C4.22704 3.83463 4.23529 3.84175 4.24373 3.84867C4.25217 3.8556 4.26077 3.86231 4.26954 3.86881C4.27831 3.87531 4.28723 3.88158 4.29629 3.88765C4.30535 3.89371 4.31458 3.89954 4.32394 3.90515C4.33329 3.91075 4.34277 3.91613 4.3524 3.92127C4.36202 3.92642 4.37177 3.93133 4.38163 3.936C4.39148 3.94067 4.40146 3.94508 4.41154 3.94925C4.42163 3.95344 4.43179 3.95735 4.44206 3.96102C4.45233 3.96471 4.46271 3.96813 4.47315 3.97129C4.48358 3.97446 4.4941 3.97738 4.50469 3.98002C4.51527 3.98267 4.52592 3.98506 4.5366 3.98719C4.54731 3.98931 4.55806 3.99119 4.56885 3.99279C4.57965 3.9944 4.59046 3.99573 4.60131 3.99679C4.61217 3.99785 4.62306 3.99867 4.63396 3.99919C4.64485 3.99973 4.65575 4 4.66667 4L13.3333 4C13.7013 4 14 4.29933 14 4.66667L14 13.3333C14 13.3442 14.0003 13.3551 14.0008 13.366C14.0013 13.3769 14.0021 13.3878 14.0032 13.3987C14.0043 13.4095 14.0056 13.4204 14.0072 13.4311C14.0088 13.4419 14.0107 13.4527 14.0128 13.4634C14.0149 13.4741 14.0173 13.4847 14.02 13.4953C14.0226 13.5059 14.0255 13.5164 14.0287 13.5269C14.0319 13.5373 14.0353 13.5476 14.039 13.5579C14.0426 13.5682 14.0466 13.5784 14.0507 13.5885C14.0549 13.5985 14.0593 13.6085 14.064 13.6184C14.0687 13.6282 14.0736 13.638 14.0787 13.6476C14.0839 13.6572 14.0892 13.6667 14.0949 13.6761C14.1005 13.6854 14.1063 13.6946 14.1124 13.7037C14.1184 13.7128 14.1247 13.7217 14.1312 13.7305C14.1377 13.7392 14.1444 13.7478 14.1513 13.7563C14.1582 13.7647 14.1654 13.773 14.1727 13.781C14.18 13.7891 14.1875 13.797 14.1953 13.8047C14.203 13.8125 14.2109 13.82 14.219 13.8273C14.227 13.8346 14.2353 13.8418 14.2437 13.8487C14.2522 13.8556 14.2608 13.8623 14.2695 13.8688C14.2783 13.8753 14.2872 13.8816 14.2963 13.8876C14.3054 13.8937 14.3146 13.8995 14.3239 13.9051C14.3333 13.9108 14.3428 13.9161 14.3524 13.9213C14.362 13.9264 14.3718 13.9313 14.3816 13.936C14.3915 13.9406 14.4015 13.9451 14.4115 13.9493C14.4216 13.9534 14.4318 13.9574 14.4421 13.961C14.4523 13.9647 14.4627 13.9681 14.4731 13.9713C14.4836 13.9745 14.4941 13.9774 14.5047 13.98C14.5153 13.9827 14.5259 13.9851 14.5366 13.9872C14.5473 13.9893 14.5581 13.9912 14.5689 13.9928C14.5796 13.9944 14.5905 13.9957 14.6013 13.9968C14.6122 13.9979 14.6231 13.9987 14.634 13.9992C14.6449 13.9997 14.6558 14 14.6667 14C14.6776 14 14.6885 13.9997 14.6994 13.9992C14.7103 13.9987 14.7212 13.9979 14.732 13.9968C14.7429 13.9957 14.7537 13.9944 14.7645 13.9928C14.7753 13.9912 14.786 13.9893 14.7967 13.9872C14.8074 13.9851 14.8181 13.9827 14.8286 13.98C14.8392 13.9774 14.8497 13.9745 14.8602 13.9713C14.8706 13.9681 14.881 13.9647 14.8912 13.961C14.9015 13.9574 14.9117 13.9534 14.9218 13.9493C14.9319 13.9451 14.9419 13.9406 14.9517 13.936C14.9616 13.9313 14.9713 13.9264 14.9809 13.9213C14.9905 13.9161 15 13.9108 15.0094 13.9051C15.0188 13.8995 15.028 13.8937 15.037 13.8876C15.0461 13.8816 15.055 13.8753 15.0638 13.8688C15.0726 13.8623 15.0812 13.8556 15.0896 13.8487C15.098 13.8418 15.1063 13.8346 15.1144 13.8273C15.1225 13.82 15.1304 13.8125 15.1381 13.8047C15.1458 13.797 15.1533 13.7891 15.1606 13.781C15.168 13.773 15.1751 13.7647 15.182 13.7563C15.1889 13.7478 15.1956 13.7392 15.2021 13.7305C15.2086 13.7217 15.2149 13.7128 15.221 13.7037C15.227 13.6946 15.2329 13.6854 15.2385 13.6761C15.2441 13.6667 15.2495 13.6572 15.2546 13.6476C15.2598 13.638 15.2647 13.6282 15.2693 13.6184C15.274 13.6085 15.2784 13.5985 15.2826 13.5885C15.2868 13.5784 15.2907 13.5682 15.2944 13.5579C15.298 13.5476 15.3015 13.5373 15.3046 13.5269C15.3078 13.5164 15.3107 13.5059 15.3134 13.4953C15.316 13.4847 15.3184 13.4741 15.3205 13.4634C15.3226 13.4527 15.3245 13.4419 15.3261 13.4311C15.3277 13.4204 15.3291 13.4095 15.3301 13.3987C15.3312 13.3878 15.332 13.3769 15.3325 13.366C15.3331 13.3551 15.3333 13.3442 15.3333 13.3333L15.3333 4.66667C15.3333 3.564 14.436 2.66667 13.3333 2.66667ZM9.33333 14L3.33333 14C3.32242 14 3.31152 14.0003 3.30063 14.0008C3.28973 14.0013 3.27883 14.0021 3.26798 14.0032C3.25712 14.0043 3.24631 14.0056 3.23552 14.0072C3.22473 14.0088 3.21398 14.0107 3.20327 14.0128C3.19258 14.0149 3.18194 14.0173 3.17135 14.02C3.16077 14.0226 3.15025 14.0255 3.13981 14.0287C3.12937 14.0319 3.119 14.0353 3.10873 14.039C3.09846 14.0426 3.08829 14.0466 3.07821 14.0507C3.06813 14.0549 3.05815 14.0593 3.04829 14.064C3.03844 14.0687 3.02869 14.0736 3.01906 14.0787C3.00944 14.0839 2.99996 14.0892 2.9906 14.0949C2.98125 14.1005 2.97202 14.1063 2.96296 14.1124C2.9539 14.1184 2.94498 14.1247 2.93621 14.1312C2.92744 14.1377 2.91883 14.1444 2.9104 14.1513C2.90196 14.1582 2.89371 14.1654 2.88562 14.1727C2.87754 14.18 2.86965 14.1875 2.86194 14.1953C2.85421 14.203 2.84669 14.2109 2.83938 14.219C2.83204 14.227 2.82492 14.2353 2.818 14.2437C2.81106 14.2522 2.80435 14.2608 2.79785 14.2695C2.79135 14.2783 2.78508 14.2872 2.77902 14.2963C2.77296 14.3054 2.76712 14.3146 2.76152 14.3239C2.75592 14.3333 2.75054 14.3428 2.7454 14.3524C2.74025 14.362 2.73533 14.3718 2.73067 14.3816C2.726 14.3915 2.72158 14.4015 2.71742 14.4115C2.71323 14.4216 2.70931 14.4318 2.70565 14.4421C2.70196 14.4523 2.69854 14.4627 2.69537 14.4731C2.69221 14.4836 2.68929 14.4941 2.68665 14.5047C2.684 14.5153 2.6816 14.5259 2.67948 14.5366C2.67735 14.5473 2.67548 14.5581 2.67388 14.5689C2.67227 14.5796 2.67094 14.5905 2.66987 14.6013C2.66881 14.6122 2.668 14.6231 2.66748 14.634C2.66694 14.6449 2.66667 14.6558 2.66667 14.6667C2.66667 14.6776 2.66694 14.6885 2.66748 14.6994C2.668 14.7103 2.66881 14.7212 2.66987 14.732C2.67094 14.7429 2.67227 14.7537 2.67388 14.7645C2.67548 14.7753 2.67735 14.786 2.67948 14.7967C2.6816 14.8074 2.684 14.8181 2.68665 14.8286C2.68929 14.8392 2.69221 14.8497 2.69537 14.8602C2.69854 14.8706 2.70196 14.881 2.70565 14.8912C2.70931 14.9015 2.71323 14.9117 2.71742 14.9218C2.72158 14.9319 2.726 14.9419 2.73067 14.9517C2.73533 14.9616 2.74025 14.9713 2.7454 14.9809C2.75054 14.9905 2.75592 15 2.76152 15.0094C2.76712 15.0188 2.77296 15.028 2.77902 15.037C2.78508 15.0461 2.79135 15.055 2.79785 15.0638C2.80435 15.0726 2.81106 15.0812 2.818 15.0896C2.82492 15.098 2.83204 15.1063 2.83938 15.1144C2.84669 15.1225 2.85421 15.1304 2.86194 15.1381C2.86965 15.1458 2.87754 15.1533 2.88562 15.1606C2.89371 15.168 2.90196 15.1751 2.9104 15.182C2.91883 15.1889 2.92744 15.1956 2.93621 15.2021C2.94498 15.2086 2.9539 15.2149 2.96296 15.221C2.97202 15.227 2.98125 15.2329 2.9906 15.2385C2.99996 15.2441 3.00944 15.2495 3.01906 15.2546C3.02869 15.2598 3.03844 15.2647 3.04829 15.2693C3.05815 15.274 3.06813 15.2784 3.07821 15.2826C3.08829 15.2868 3.09846 15.2907 3.10873 15.2944C3.119 15.298 3.12937 15.3015 3.13981 15.3046C3.15025 15.3078 3.16077 15.3107 3.17135 15.3134C3.18194 15.316 3.19258 15.3184 3.20327 15.3205C3.21398 15.3226 3.22473 15.3245 3.23552 15.3261C3.24631 15.3277 3.25712 15.3291 3.26798 15.3301C3.27883 15.3312 3.28973 15.332 3.30063 15.3325C3.31152 15.3331 3.32242 15.3333 3.33333 15.3333L9.33333 15.3333C9.34425 15.3333 9.35515 15.3331 9.36604 15.3325C9.37694 15.332 9.38783 15.3312 9.39869 15.3301C9.40954 15.3291 9.42035 15.3277 9.43115 15.3261C9.44194 15.3245 9.45269 15.3226 9.4634 15.3205C9.47408 15.3184 9.48473 15.316 9.49531 15.3134C9.5059 15.3107 9.51642 15.3078 9.52685 15.3046C9.53729 15.3015 9.54765 15.298 9.55792 15.2944C9.56819 15.2907 9.57837 15.2868 9.58846 15.2826C9.59854 15.2784 9.60852 15.274 9.61837 15.2693C9.62823 15.2647 9.63798 15.2598 9.6476 15.2546C9.65721 15.2495 9.66671 15.2441 9.67606 15.2385C9.68542 15.2329 9.69465 15.227 9.70371 15.221C9.71277 15.2149 9.72169 15.2086 9.73046 15.2021C9.73923 15.1956 9.74783 15.1889 9.75627 15.182C9.76471 15.1751 9.77296 15.168 9.78104 15.1606C9.78913 15.1533 9.79702 15.1458 9.80473 15.1381C9.81246 15.1304 9.81998 15.1225 9.82729 15.1144C9.83463 15.1063 9.84175 15.098 9.84867 15.0896C9.8556 15.0812 9.86231 15.0726 9.86881 15.0638C9.87531 15.055 9.88158 15.0461 9.88765 15.037C9.89371 15.028 9.89954 15.0188 9.90515 15.0094C9.91075 15 9.91613 14.9905 9.92127 14.9809C9.92642 14.9713 9.93133 14.9616 9.936 14.9517C9.94065 14.9419 9.94506 14.9319 9.94925 14.9218C9.95344 14.9117 9.95735 14.9015 9.96102 14.8912C9.96471 14.881 9.96813 14.8706 9.97129 14.8602C9.97446 14.8497 9.97738 14.8392 9.98002 14.8286C9.98267 14.8181 9.98506 14.8074 9.98719 14.7967C9.98931 14.786 9.99119 14.7753 9.99279 14.7645C9.9944 14.7537 9.99573 14.7429 9.99679 14.732C9.99785 14.7212 9.99867 14.7103 9.99919 14.6994C9.99973 14.6885 10 14.6776 10 14.6667C10 14.6558 9.99973 14.6449 9.99919 14.634C9.99867 14.6231 9.99785 14.6122 9.99679 14.6013C9.99573 14.5905 9.9944 14.5796 9.99279 14.5689C9.99119 14.5581 9.98931 14.5473 9.98719 14.5366C9.98506 14.5259 9.98267 14.5153 9.98002 14.5047C9.97738 14.4941 9.97446 14.4836 9.97129 14.4731C9.96813 14.4627 9.96471 14.4523 9.96102 14.4421C9.95735 14.4318 9.95344 14.4216 9.94925 14.4115C9.94506 14.4015 9.94065 14.3915 9.936 14.3816C9.93133 14.3718 9.92642 14.362 9.92127 14.3524C9.91613 14.3428 9.91075 14.3333 9.90515 14.3239C9.89954 14.3146 9.89371 14.3054 9.88765 14.2963C9.88158 14.2872 9.87531 14.2783 9.86881 14.2695C9.86231 14.2608 9.8556 14.2522 9.84867 14.2437C9.84175 14.2353 9.83463 14.227 9.82729 14.219C9.81998 14.2109 9.81246 14.203 9.80473 14.1952C9.79702 14.1875 9.78913 14.18 9.78104 14.1727C9.77296 14.1654 9.76471 14.1582 9.75627 14.1513C9.74783 14.1444 9.73923 14.1377 9.73046 14.1312C9.72169 14.1247 9.71277 14.1184 9.70371 14.1124C9.69465 14.1063 9.68542 14.1005 9.67606 14.0949C9.66671 14.0892 9.65721 14.0839 9.6476 14.0787C9.63798 14.0736 9.62823 14.0687 9.61837 14.064C9.60852 14.0593 9.59854 14.0549 9.58846 14.0507C9.57837 14.0466 9.56819 14.0426 9.55792 14.039C9.54765 14.0353 9.53729 14.0319 9.52685 14.0287C9.51642 14.0255 9.5059 14.0226 9.49531 14.02C9.48473 14.0173 9.47408 14.0149 9.4634 14.0128C9.45269 14.0107 9.44194 14.0088 9.43115 14.0072C9.42035 14.0056 9.40954 14.0043 9.39869 14.0032C9.38783 14.0021 9.37694 14.0013 9.36604 14.0008C9.35515 14.0003 9.34425 14 9.33333 14ZM16 0L7.33333 0C7.32242 0 7.31152 0.000267983 7.30062 0.000804106C7.28973 0.00133896 7.27883 0.002141 7.26798 0.0032104C7.25712 0.00427994 7.24631 0.00561523 7.23552 0.0072166C7.22473 0.00881673 7.21398 0.0106813 7.20327 0.0128104C7.19258 0.0149382 7.18194 0.0173278 7.17135 0.0199792C7.16077 0.0226306 7.15025 0.0255396 7.13981 0.0287063C7.12937 0.0318729 7.11902 0.0352944 7.10875 0.0389708C7.09848 0.0426458 7.08829 0.0465717 7.07821 0.0507479C7.06812 0.0549229 7.05815 0.0593423 7.04829 0.0640062C7.03844 0.0686715 7.02869 0.0735756 7.01906 0.0787188C7.00944 0.0838619 6.99996 0.0892381 6.9906 0.0948479C6.98125 0.100456 6.97202 0.106292 6.96296 0.112354C6.9539 0.118415 6.94498 0.124696 6.93621 0.131196C6.92744 0.137695 6.91883 0.144405 6.9104 0.151327C6.90196 0.158248 6.89371 0.165372 6.88562 0.1727C6.87754 0.180026 6.86965 0.187547 6.86194 0.195263C6.85421 0.202976 6.84669 0.210875 6.83938 0.21896C6.83204 0.227046 6.82492 0.235304 6.818 0.243738C6.81106 0.252173 6.80435 0.260771 6.79785 0.269533C6.79135 0.278298 6.78508 0.287215 6.77902 0.296285C6.77296 0.305358 6.76713 0.314573 6.76152 0.323931C6.75592 0.33329 6.75052 0.342779 6.74538 0.352402C6.74023 0.362025 6.73533 0.371767 6.73067 0.381629C6.726 0.391494 6.72158 0.401465 6.71742 0.411544C6.71323 0.421625 6.70931 0.431806 6.70565 0.442083C6.70196 0.452348 6.69854 0.462702 6.69537 0.473146C6.69221 0.48359 6.68929 0.494104 6.68665 0.504687C6.684 0.515271 6.6816 0.52591 6.67948 0.536604C6.67735 0.547312 6.67548 0.558062 6.67387 0.568854C6.67227 0.579646 6.67094 0.590465 6.66988 0.601313C6.66881 0.612173 6.668 0.623056 6.66748 0.633958C6.66694 0.644848 6.66667 0.65575 6.66667 0.666667C6.66667 0.677583 6.66694 0.688485 6.66748 0.699375C6.668 0.710277 6.66881 0.72116 6.66988 0.732021C6.67094 0.742869 6.67227 0.753688 6.67387 0.764479C6.67548 0.775271 6.67735 0.786021 6.67948 0.796729C6.6816 0.807423 6.684 0.818062 6.68665 0.828646C6.68929 0.839229 6.69221 0.849744 6.69537 0.860187C6.69854 0.870631 6.70196 0.880985 6.70565 0.89125C6.70931 0.901527 6.71323 0.911708 6.71742 0.921792C6.72158 0.931875 6.726 0.941848 6.73067 0.951708C6.73533 0.961569 6.74023 0.971313 6.74538 0.980937C6.75052 0.990548 6.75592 1.00004 6.76152 1.0094C6.76713 1.01876 6.77296 1.02797 6.77902 1.03704C6.78508 1.04611 6.79135 1.05503 6.79785 1.06379C6.80435 1.07256 6.81106 1.08116 6.818 1.0896C6.82492 1.09804 6.83204 1.10629 6.83938 1.11437C6.84669 1.12246 6.85421 1.13035 6.86194 1.13806C6.86965 1.14579 6.87754 1.15331 6.88562 1.16062C6.89371 1.16796 6.90196 1.17508 6.9104 1.182C6.91883 1.18893 6.92744 1.19565 6.93621 1.20215C6.94498 1.20865 6.9539 1.21492 6.96296 1.22098C6.97202 1.22704 6.98125 1.23287 6.9906 1.23848C6.99996 1.24409 7.00944 1.24946 7.01906 1.2546C7.02869 1.25976 7.03844 1.26467 7.04829 1.26933C7.05815 1.274 7.06812 1.27842 7.07821 1.28258C7.08829 1.28676 7.09846 1.29069 7.10873 1.29435C7.119 1.29804 7.12937 1.30146 7.13981 1.30463C7.15025 1.30779 7.16077 1.3107 7.17135 1.31335C7.18194 1.31601 7.19258 1.3184 7.20327 1.32052C7.21398 1.32265 7.22473 1.32451 7.23552 1.32613C7.24631 1.32772 7.25712 1.32906 7.26798 1.33012C7.27883 1.33119 7.28973 1.33199 7.30062 1.33252C7.31152 1.33306 7.32242 1.33333 7.33333 1.33333L16 1.33333C16.368 1.33333 16.6667 1.63267 16.6667 2L16.6667 10.6667C16.6667 10.6776 16.6669 10.6885 16.6675 10.6994C16.668 10.7103 16.6688 10.7212 16.6699 10.732C16.6709 10.7429 16.6723 10.7537 16.6739 10.7645C16.6755 10.7753 16.6774 10.786 16.6795 10.7967C16.6816 10.8074 16.684 10.8181 16.6866 10.8286C16.6893 10.8392 16.6922 10.8497 16.6954 10.8602C16.6985 10.8706 16.702 10.881 16.7056 10.8912C16.7093 10.9015 16.7132 10.9117 16.7174 10.9218C16.7216 10.9319 16.726 10.9418 16.7307 10.9517C16.7353 10.9616 16.7402 10.9713 16.7454 10.9809C16.7505 10.9905 16.7559 11 16.7615 11.0094C16.7671 11.0188 16.773 11.028 16.779 11.037C16.7851 11.0461 16.7914 11.055 16.7979 11.0638C16.8044 11.0726 16.8111 11.0812 16.818 11.0896C16.8249 11.098 16.832 11.1063 16.8394 11.1144C16.8467 11.1225 16.8542 11.1304 16.8619 11.1381C16.8696 11.1458 16.8775 11.1533 16.8856 11.1606C16.8937 11.168 16.902 11.1751 16.9104 11.182C16.9188 11.1889 16.9274 11.1956 16.9362 11.2021C16.945 11.2086 16.9539 11.2149 16.963 11.221C16.972 11.227 16.9813 11.2329 16.9906 11.2385C17 11.2441 17.0094 11.2495 17.0191 11.2546C17.0287 11.2598 17.0384 11.2647 17.0483 11.2693C17.0581 11.274 17.0681 11.2784 17.0782 11.2826C17.0883 11.2868 17.0985 11.2907 17.1087 11.2944C17.119 11.298 17.1294 11.3015 17.1398 11.3046C17.1502 11.3078 17.1608 11.3107 17.1714 11.3134C17.1819 11.316 17.1926 11.3184 17.2033 11.3205C17.214 11.3226 17.2247 11.3245 17.2355 11.3261C17.2463 11.3277 17.2571 11.3291 17.268 11.3301C17.2789 11.3312 17.2897 11.332 17.3006 11.3325C17.3115 11.3331 17.3224 11.3333 17.3333 11.3333C17.3442 11.3333 17.3551 11.3331 17.366 11.3325C17.3769 11.332 17.3878 11.3312 17.3987 11.3301C17.4095 11.3291 17.4204 11.3277 17.4311 11.3261C17.4419 11.3245 17.4527 11.3226 17.4634 11.3205C17.4741 11.3184 17.4847 11.316 17.4953 11.3134C17.5059 11.3107 17.5164 11.3078 17.5269 11.3046C17.5373 11.3015 17.5476 11.298 17.5579 11.2944C17.5682 11.2907 17.5784 11.2868 17.5885 11.2826C17.5985 11.2784 17.6085 11.274 17.6184 11.2693C17.6282 11.2647 17.638 11.2598 17.6476 11.2546C17.6572 11.2495 17.6667 11.2441 17.6761 11.2385C17.6854 11.2329 17.6946 11.227 17.7037 11.221C17.7128 11.2149 17.7217 11.2086 17.7305 11.2021C17.7392 11.1956 17.7478 11.1889 17.7563 11.182C17.7647 11.1751 17.773 11.168 17.781 11.1606C17.7891 11.1533 17.797 11.1458 17.8047 11.1381C17.8125 11.1304 17.82 11.1225 17.8273 11.1144C17.8346 11.1063 17.8417 11.098 17.8487 11.0896C17.8556 11.0812 17.8623 11.0726 17.8688 11.0638C17.8753 11.055 17.8816 11.0461 17.8876 11.037C17.8937 11.028 17.8995 11.0188 17.9051 11.0094C17.9107 11 17.9161 10.9905 17.9213 10.9809C17.9264 10.9713 17.9313 10.9616 17.936 10.9517C17.9406 10.9419 17.9451 10.9319 17.9492 10.9218C17.9534 10.9117 17.9574 10.9015 17.961 10.8912C17.9647 10.881 17.9681 10.8706 17.9713 10.8602C17.9745 10.8497 17.9774 10.8392 17.98 10.8286C17.9827 10.8181 17.9851 10.8074 17.9872 10.7967C17.9893 10.786 17.9912 10.7753 17.9928 10.7645C17.9944 10.7537 17.9957 10.7429 17.9968 10.732C17.9979 10.7212 17.9987 10.7103 17.9992 10.6994C17.9997 10.6885 18 10.6776 18 10.6667L18 2C18 0.897333 17.1027 0 16 0Z"   fill="#333333" >
</path>
</svg>
